<?xml version="1.0" encoding="utf-8"?>
<!-- Generator: Adobe Illustrator 21.0.0, SVG Export Plug-In . SVG Version: 6.00 Build 0)  -->
<svg version="1.1" id="Calque_1" xmlns="http://www.w3.org/2000/svg" xmlns:xlink="http://www.w3.org/1999/xlink" x="0px" y="0px"
	 viewBox="0 0 1729.1 1295.4" style="enable-background:new 0 0 1729.1 1295.4;" xml:space="preserve">
<style type="text/css">
	.st0{fill:none;stroke:#000000;stroke-width:2;stroke-linecap:round;stroke-linejoin:round;stroke-miterlimit:10;}
</style>
<g>
	<path class="st0" d="M-1609.3,934.5l-1.7,2.2l-2.2,1.8l-2.4,1.3l-2.7,0.8l-2.7,0.2l-2.8-0.2l-2.7-0.8l-2.4-1.4l-2.2-1.7l-1.7-2.2
		l-1.3-2.4l-0.8-2.7l-0.3-2.7l0.3-2.8l0.8-2.7l1.3-2.4 M-1673,659.8l9.6,3.6l8.6,4.8l8.1,6l7.4,7.2l6.9,8.5l6.3,9.6l5.6,10.8
		l4.9,11.7l4.2,12.7l3.4,13.4l2.5,13.9l1.8,14.5l1,17.8l-0.2,17.9l-1.3,17.9l-2.5,17.4l-3.5,16.8l-3.5,12.6l-4,11.8l-4.6,11.1
		l-5.1,10l-5.4,9 M-1632.8,918.8l-1.3,2.4l-0.8,2.7l-0.3,2.8l0.3,2.7l0.8,2.7l1.3,2.4l1.7,2.2l2.2,1.7l2.4,1.4l2.7,0.8l2.7,0.2
		l2.8-0.2l2.7-0.8l2.4-1.3l2.2-1.8l1.7-2.2 M-1609.3,934.5l7.1-11.7l6.3-12.7l5.6-13.7l4.7-14.5l4-15.2l3.1-15.7l2.6-19l1.4-19.3
		l0.1-19.4l-1.1-19.4l-1.9-16.1l-2.9-15.7l-3.9-15.3l-4.8-14.7l-5.8-13.9l-6.8-13l-5.8-9.1l-6.4-8.5l-7-7.8l-7.5-7.1l-8.2-6.4
		l-8.8-5.4l-9.4-4.6l-10.1-3.6 M-1664.8,632.7l-4.5-1.6l-4.4-2l-4.3-2.3l-4-2.7l-3.7-3l-3.5-3.4l-3.2-3.6l-2.9-3.9l-2.5-4.1
		l-2.2-4.3l-1.8-4.4l-1.4-4.7l-1.1-4.7l-0.6-4.8l-0.2-4.8 M-1705.1,578.4V436.7 M-1705.1,436.7h-28.3 M-1733.4,436.7v42.5
		 M-1719.2,479.2h-14.2 M-1719.2,487.7v-8.5 M-1719.2,487.7h-14.2 M-1733.4,487.7v76.5 M-1719.2,564.2h-14.2 M-1719.2,572.7v-8.5
		 M-1719.2,572.7h-14.2 M-1733.4,572.7v5.7 M-1733.4,578.4l0.2,5.7l0.5,5.7l1,5.7l1.3,5.5l1.7,5.5l2.1,5.3l2.4,5.2l2.8,5l3.1,4.8
		l3.4,4.6l3.7,4.3l4,4.1l4.3,3.8l4.5,3.6l4.7,3.2l4.9,2.8l5.1,2.6l5.3,2.2l5.4,1.8"/>
	<path class="st0" d="M-1540,934.5l-1.7,2.2l-2.2,1.8l-2.4,1.3l-2.7,0.8l-2.7,0.2l-2.8-0.2l-2.7-0.8l-2.4-1.4l-2.2-1.7l-1.7-2.2
		l-1.3-2.4l-0.8-2.7l-0.3-2.7l0.3-2.8l0.8-2.7l1.3-2.4 M-1603.7,659.8l9.6,3.6l8.6,4.8l8.1,6l7.4,7.2l6.9,8.5l6.3,9.6l5.6,10.8
		l4.9,11.7l4.2,12.7l3.4,13.4l2.5,13.9l1.8,14.5l1,17.8l-0.2,17.9l-1.3,17.9l-2.5,17.4l-3.5,16.8l-3.5,12.6l-4,11.8l-4.6,11.1
		l-5.1,10l-5.4,9 M-1563.5,918.8l-1.3,2.4l-0.8,2.7l-0.3,2.8l0.3,2.7l0.8,2.7l1.3,2.4l1.7,2.2l2.2,1.7l2.4,1.4l2.7,0.8l2.7,0.2
		l2.8-0.2l2.7-0.8l2.4-1.3l2.2-1.8l1.7-2.2 M-1540,934.5l7.1-11.7l6.3-12.7l5.6-13.7l4.7-14.5l4-15.2l3.1-15.7l2.6-19l1.4-19.3
		l0.1-19.4l-1.1-19.4l-1.9-16.1l-2.9-15.7l-3.9-15.3l-4.8-14.7l-5.8-13.9l-6.8-13l-5.8-9.1l-6.4-8.5l-7-7.8l-7.5-7.1l-8.2-6.4
		l-8.8-5.4l-9.4-4.6l-10.1-3.6 M-1595.5,632.7l-4.5-1.6l-4.4-2l-4.3-2.3l-4-2.7l-3.7-3l-3.5-3.4l-3.2-3.6l-2.9-3.9l-2.5-4.1
		l-2.2-4.3l-1.8-4.4l-1.4-4.7l-1.1-4.7l-0.6-4.8l-0.2-4.8 M-1635.8,578.4V436.7 M-1635.8,436.7h-28.3 M-1664.1,436.7v42.5
		 M-1649.9,479.2h-14.2 M-1649.9,487.7v-8.5 M-1649.9,487.7h-14.2 M-1664.1,487.7v76.5 M-1649.9,564.2h-14.2 M-1649.9,572.7v-8.5
		 M-1649.9,572.7h-14.2 M-1664.1,572.7v5.7 M-1664.1,578.4l0.2,5.7l0.5,5.7l1,5.7l1.3,5.5l1.7,5.5l2.1,5.3l2.4,5.2l2.8,5l3.1,4.8
		l3.4,4.6l3.7,4.3l4,4.1l4.3,3.8l4.5,3.6l4.7,3.2l4.9,2.8l5.1,2.6l5.3,2.2l5.4,1.8"/>
	<path class="st0" d="M-1470.8,934.5l-1.7,2.2l-2.2,1.8l-2.4,1.3l-2.7,0.8l-2.7,0.2l-2.8-0.2l-2.7-0.8l-2.4-1.4l-2.2-1.7l-1.7-2.2
		l-1.3-2.4l-0.8-2.7l-0.3-2.7l0.3-2.8l0.8-2.7l1.3-2.4 M-1534.5,659.8l9.6,3.6l8.6,4.8l8.1,6l7.4,7.2l6.9,8.5l6.3,9.6l5.6,10.8
		l4.9,11.7l4.2,12.7l3.4,13.4l2.5,13.9l1.8,14.5l1,17.8l-0.2,17.9l-1.3,17.9l-2.5,17.4l-3.5,16.8l-3.5,12.6l-4,11.8l-4.6,11.1
		l-5.1,10l-5.4,9 M-1494.3,918.8l-1.3,2.4l-0.8,2.7l-0.3,2.8l0.3,2.7l0.8,2.7l1.3,2.4l1.7,2.2l2.2,1.7l2.4,1.4l2.7,0.8l2.7,0.2
		l2.8-0.2l2.7-0.8l2.4-1.3l2.2-1.8l1.7-2.2 M-1470.8,934.5l7.1-11.7l6.3-12.7l5.6-13.7l4.7-14.5l4-15.2l3.1-15.7l2.6-19l1.4-19.3
		l0.1-19.4l-1.1-19.4l-1.9-16.1l-2.9-15.7l-3.9-15.3l-4.8-14.7l-5.8-13.9l-6.8-13l-5.8-9.1l-6.4-8.5l-7-7.8l-7.5-7.1l-8.2-6.4
		l-8.8-5.4l-9.4-4.6l-10.1-3.6 M-1526.3,632.7l-4.5-1.6l-4.4-2l-4.3-2.3l-4-2.7l-3.7-3l-3.5-3.4l-3.2-3.6l-2.9-3.9l-2.5-4.1
		l-2.2-4.3l-1.8-4.4l-1.4-4.7l-1.1-4.7l-0.6-4.8l-0.2-4.8 M-1566.6,578.4V436.7 M-1566.6,436.7h-28.3 M-1594.9,436.7v42.5
		 M-1580.7,479.2h-14.2 M-1580.7,487.7v-8.5 M-1580.7,487.7h-14.2 M-1594.9,487.7v76.5 M-1580.7,564.2h-14.2 M-1580.7,572.7v-8.5
		 M-1580.7,572.7h-14.2 M-1594.9,572.7v5.7 M-1594.9,578.4l0.2,5.7l0.5,5.7l1,5.7l1.3,5.5l1.7,5.5l2.1,5.3l2.4,5.2l2.8,5l3.1,4.8
		l3.4,4.6l3.7,4.3l4,4.1l4.3,3.8l4.5,3.6l4.7,3.2l4.9,2.8l5.1,2.6l5.3,2.2l5.4,1.8"/>
	<path class="st0" d="M-1401.5,934.5l-1.7,2.2l-2.2,1.8l-2.4,1.3l-2.7,0.8l-2.7,0.2l-2.8-0.2l-2.7-0.8l-2.4-1.4l-2.2-1.7l-1.7-2.2
		l-1.3-2.4l-0.8-2.7l-0.3-2.7l0.3-2.8l0.8-2.7l1.3-2.4 M-1465.2,659.8l9.6,3.6l8.6,4.8l8.1,6l7.4,7.2l6.9,8.5l6.3,9.6l5.6,10.8
		l4.9,11.7l4.2,12.7l3.4,13.4l2.5,13.9l1.8,14.5l1,17.8l-0.2,17.9l-1.3,17.9l-2.5,17.4l-3.5,16.8l-3.5,12.6l-4,11.8l-4.6,11.1
		l-5.1,10l-5.4,9 M-1425,918.8l-1.3,2.4l-0.8,2.7l-0.3,2.8l0.3,2.7l0.8,2.7l1.3,2.4l1.7,2.2l2.2,1.7l2.4,1.4l2.7,0.8l2.7,0.2
		l2.8-0.2l2.7-0.8l2.4-1.3l2.2-1.8l1.7-2.2 M-1401.5,934.5l7.1-11.7l6.3-12.7l5.6-13.7l4.7-14.5l4-15.2l3.1-15.7l2.6-19l1.4-19.3
		l0.1-19.4l-1.1-19.4l-1.9-16.1l-2.9-15.7l-3.9-15.3l-4.8-14.7l-5.8-13.9l-6.8-13l-5.8-9.1l-6.4-8.5l-7-7.8l-7.5-7.1l-8.2-6.4
		l-8.8-5.4l-9.4-4.6l-10.1-3.6 M-1457,632.7l-4.5-1.6l-4.4-2l-4.3-2.3l-4-2.7l-3.7-3l-3.5-3.4l-3.2-3.6l-2.9-3.9l-2.5-4.1l-2.2-4.3
		l-1.8-4.4l-1.4-4.7l-1.1-4.7l-0.6-4.8l-0.2-4.8 M-1497.3,578.4V436.7 M-1497.3,436.7h-28.3 M-1525.6,436.7v42.5 M-1511.4,479.2
		h-14.2 M-1511.4,487.7v-8.5 M-1511.4,487.7h-14.2 M-1525.6,487.7v76.5 M-1511.4,564.2h-14.2 M-1511.4,572.7v-8.5 M-1511.4,572.7
		h-14.2 M-1525.6,572.7v5.7 M-1525.6,578.4l0.2,5.7l0.5,5.7l1,5.7l1.3,5.5l1.7,5.5l2.1,5.3l2.4,5.2l2.8,5l3.1,4.8l3.4,4.6l3.7,4.3
		l4,4.1l4.3,3.8l4.5,3.6l4.7,3.2l4.9,2.8l5.1,2.6l5.3,2.2l5.4,1.8"/>
	<path class="st0" d="M-1332.2,934.5l-1.7,2.2l-2.2,1.8l-2.4,1.3l-2.7,0.8l-2.7,0.2l-2.8-0.2l-2.7-0.8l-2.4-1.4l-2.2-1.7l-1.7-2.2
		l-1.3-2.4l-0.8-2.7l-0.3-2.7l0.3-2.8l0.8-2.7l1.3-2.4 M-1395.9,659.8l9.6,3.6l8.6,4.8l8.1,6l7.4,7.2l6.9,8.5l6.3,9.6l5.6,10.8
		l4.9,11.7l4.2,12.7l3.4,13.4l2.5,13.9l1.8,14.5l1,17.8l-0.2,17.9l-1.3,17.9l-2.5,17.4l-3.5,16.8l-3.5,12.6l-4,11.8l-4.6,11.1
		l-5.1,10l-5.4,9 M-1355.7,918.8l-1.3,2.4l-0.8,2.7l-0.3,2.8l0.3,2.7l0.8,2.7l1.3,2.4l1.7,2.2l2.2,1.7l2.4,1.4l2.7,0.8l2.7,0.2
		l2.8-0.2l2.7-0.8l2.4-1.3l2.2-1.8l1.7-2.2 M-1332.2,934.5l7.1-11.7l6.3-12.7l5.6-13.7l4.7-14.5l4-15.2l3.1-15.7l2.6-19l1.4-19.3
		l0.1-19.4l-1.1-19.4l-1.9-16.1l-2.9-15.7l-3.9-15.3l-4.8-14.7l-5.8-13.9l-6.8-13l-5.8-9.1l-6.4-8.5l-7-7.8l-7.5-7.1l-8.2-6.4
		l-8.8-5.4l-9.4-4.6l-10.1-3.6 M-1387.7,632.7l-4.5-1.6l-4.4-2l-4.3-2.3l-4-2.7l-3.7-3l-3.5-3.4l-3.2-3.6l-2.9-3.9l-2.5-4.1
		l-2.2-4.3l-1.8-4.4l-1.4-4.7l-1.1-4.7l-0.6-4.8l-0.2-4.8 M-1428,578.4V436.7 M-1428,436.7h-28.3 M-1456.3,436.7v42.5
		 M-1442.1,479.2h-14.2 M-1442.1,487.7v-8.5 M-1442.1,487.7h-14.2 M-1456.3,487.7v76.5 M-1442.1,564.2h-14.2 M-1442.1,572.7v-8.5
		 M-1442.1,572.7h-14.2 M-1456.3,572.7v5.7 M-1456.3,578.4l0.2,5.7l0.5,5.7l1,5.7l1.3,5.5l1.7,5.5l2.1,5.3l2.4,5.2l2.8,5l3.1,4.8
		l3.4,4.6l3.7,4.3l4,4.1l4.3,3.8l4.5,3.6l4.7,3.2l4.9,2.8l5.1,2.6l5.3,2.2l5.4,1.8"/>
	<path class="st0" d="M-1262.9,934.5l-1.7,2.2l-2.2,1.8l-2.4,1.3l-2.7,0.8l-2.7,0.2l-2.8-0.2l-2.7-0.8l-2.4-1.4l-2.2-1.7l-1.7-2.2
		l-1.3-2.4l-0.8-2.7l-0.3-2.7l0.3-2.8l0.8-2.7l1.3-2.4 M-1326.6,659.8l9.6,3.6l8.6,4.8l8.1,6l7.4,7.2l6.9,8.5l6.3,9.6l5.6,10.8
		l4.9,11.7l4.2,12.7l3.4,13.4l2.5,13.9l1.8,14.5l1,17.8l-0.2,17.9l-1.3,17.9l-2.5,17.4l-3.5,16.8l-3.5,12.6l-4,11.8l-4.6,11.1
		l-5.1,10l-5.4,9 M-1286.4,918.8l-1.3,2.4l-0.8,2.7l-0.3,2.8l0.3,2.7l0.8,2.7l1.3,2.4l1.7,2.2l2.2,1.7l2.4,1.4l2.7,0.8l2.7,0.2
		l2.8-0.2l2.7-0.8l2.4-1.3l2.2-1.8l1.7-2.2 M-1262.9,934.5l7.1-11.7l6.3-12.7l5.6-13.7l4.7-14.5l4-15.2l3.1-15.7l2.6-19l1.4-19.3
		l0.1-19.4l-1.1-19.4l-1.9-16.1l-2.9-15.7l-3.9-15.3l-4.8-14.7l-5.8-13.9l-6.8-13l-5.8-9.1l-6.4-8.5l-7-7.8l-7.5-7.1l-8.2-6.4
		l-8.8-5.4l-9.4-4.6l-10.1-3.6 M-1318.4,632.7l-4.5-1.6l-4.4-2l-4.3-2.3l-4-2.7l-3.7-3l-3.5-3.4l-3.2-3.6l-2.9-3.9l-2.5-4.1
		l-2.2-4.3l-1.8-4.4l-1.4-4.7l-1.1-4.7l-0.6-4.8l-0.2-4.8 M-1358.7,578.4V436.7 M-1358.7,436.7h-28.3 M-1387,436.7v42.5
		 M-1372.8,479.2h-14.2 M-1372.8,487.7v-8.5 M-1372.8,487.7h-14.2 M-1387,487.7v76.5 M-1372.8,564.2h-14.2 M-1372.8,572.7v-8.5
		 M-1372.8,572.7h-14.2 M-1387,572.7v5.7 M-1387,578.4l0.2,5.7l0.5,5.7l1,5.7l1.3,5.5l1.7,5.5l2.1,5.3l2.4,5.2l2.8,5l3.1,4.8
		l3.4,4.6l3.7,4.3l4,4.1l4.3,3.8l4.5,3.6l4.7,3.2l4.9,2.8l5.1,2.6l5.3,2.2l5.4,1.8"/>
	<path class="st0" d="M-1193.7,934.5l-1.7,2.2l-2.2,1.8l-2.4,1.3l-2.7,0.8l-2.7,0.2l-2.8-0.2l-2.7-0.8l-2.4-1.4l-2.2-1.7l-1.7-2.2
		l-1.3-2.4l-0.8-2.7l-0.3-2.7l0.3-2.8l0.8-2.7l1.3-2.4 M-1257.4,659.8l9.6,3.6l8.6,4.8l8.1,6l7.4,7.2l6.9,8.5l6.3,9.6l5.6,10.8
		l4.9,11.7l4.2,12.7l3.4,13.4l2.5,13.9l1.8,14.5l1,17.8l-0.2,17.9l-1.3,17.9l-2.5,17.4l-3.5,16.8l-3.5,12.6l-4,11.8l-4.6,11.1
		l-5.1,10l-5.4,9 M-1217.2,918.8l-1.3,2.4l-0.8,2.7l-0.3,2.8l0.3,2.7l0.8,2.7l1.3,2.4l1.7,2.2l2.2,1.7l2.4,1.4l2.7,0.8l2.7,0.2
		l2.8-0.2l2.7-0.8l2.4-1.3l2.2-1.8l1.7-2.2 M-1193.7,934.5l7.1-11.7l6.3-12.7l5.6-13.7l4.7-14.5l4-15.2l3.1-15.7l2.6-19l1.4-19.3
		l0.1-19.4l-1.1-19.4l-1.9-16.1l-2.9-15.7l-3.9-15.3l-4.8-14.7l-5.8-13.9l-6.8-13l-5.8-9.1l-6.4-8.5l-7-7.8l-7.5-7.1l-8.2-6.4
		l-8.8-5.4l-9.4-4.6l-10.1-3.6 M-1249.2,632.7l-4.5-1.6l-4.4-2l-4.3-2.3l-4-2.7l-3.7-3l-3.5-3.4l-3.2-3.6l-2.9-3.9l-2.5-4.1
		l-2.2-4.3l-1.8-4.4l-1.4-4.7l-1.1-4.7l-0.6-4.8l-0.2-4.8 M-1289.5,578.4V436.7 M-1289.5,436.7h-28.3 M-1317.8,436.7v42.5
		 M-1303.6,479.2h-14.2 M-1303.6,487.7v-8.5 M-1303.6,487.7h-14.2 M-1317.8,487.7v76.5 M-1303.6,564.2h-14.2 M-1303.6,572.7v-8.5
		 M-1303.6,572.7h-14.2 M-1317.8,572.7v5.7 M-1317.8,578.4l0.2,5.7l0.5,5.7l1,5.7l1.3,5.5l1.7,5.5l2.1,5.3l2.4,5.2l2.8,5l3.1,4.8
		l3.4,4.6l3.7,4.3l4,4.1l4.3,3.8l4.5,3.6l4.7,3.2l4.9,2.8l5.1,2.6l5.3,2.2l5.4,1.8"/>
	<path class="st0" d="M-1124.4,934.5l-1.7,2.2l-2.2,1.8l-2.4,1.3l-2.7,0.8l-2.7,0.2l-2.8-0.2l-2.7-0.8l-2.4-1.4l-2.2-1.7l-1.7-2.2
		l-1.3-2.4l-0.8-2.7l-0.3-2.7l0.3-2.8l0.8-2.7l1.3-2.4 M-1188.1,659.8l9.6,3.6l8.6,4.8l8.1,6l7.4,7.2l6.9,8.5l6.3,9.6l5.6,10.8
		l4.9,11.7l4.2,12.7l3.4,13.4l2.5,13.9l1.8,14.5l1,17.8l-0.2,17.9l-1.3,17.9l-2.5,17.4l-3.5,16.8l-3.5,12.6l-4,11.8l-4.6,11.1
		l-5.1,10l-5.4,9 M-1147.9,918.8l-1.3,2.4l-0.8,2.7l-0.3,2.8l0.3,2.7l0.8,2.7l1.3,2.4l1.7,2.2l2.2,1.7l2.4,1.4l2.7,0.8l2.7,0.2
		l2.8-0.2l2.7-0.8l2.4-1.3l2.2-1.8l1.7-2.2 M-1124.4,934.5l7.1-11.7l6.3-12.7l5.6-13.7l4.7-14.5l4-15.2l3.1-15.7l2.6-19l1.4-19.3
		l0.1-19.4l-1.1-19.4l-1.9-16.1l-2.9-15.7l-3.9-15.3l-4.8-14.7l-5.8-13.9l-6.8-13l-5.8-9.1l-6.4-8.5l-7-7.8l-7.5-7.1l-8.2-6.4
		l-8.8-5.4l-9.4-4.6l-10.1-3.6 M-1179.9,632.7l-4.5-1.6l-4.4-2l-4.3-2.3l-4-2.7l-3.7-3l-3.5-3.4l-3.2-3.6l-2.9-3.9l-2.5-4.1
		l-2.2-4.3l-1.8-4.4l-1.4-4.7l-1.1-4.7l-0.6-4.8l-0.2-4.8 M-1220.2,578.4V436.7 M-1220.2,436.7h-28.3 M-1248.5,436.7v42.5
		 M-1234.3,479.2h-14.2 M-1234.3,487.7v-8.5 M-1234.3,487.7h-14.2 M-1248.5,487.7v76.5 M-1234.3,564.2h-14.2 M-1234.3,572.7v-8.5
		 M-1234.3,572.7h-14.2 M-1248.5,572.7v5.7 M-1248.5,578.4l0.2,5.7l0.5,5.7l1,5.7l1.3,5.5l1.7,5.5l2.1,5.3l2.4,5.2l2.8,5l3.1,4.8
		l3.4,4.6l3.7,4.3l4,4.1l4.3,3.8l4.5,3.6l4.7,3.2l4.9,2.8l5.1,2.6l5.3,2.2l5.4,1.8"/>
	<path class="st0" d="M-1055.1,934.5l-1.7,2.2l-2.2,1.8l-2.4,1.3l-2.7,0.8l-2.7,0.2l-2.8-0.2l-2.7-0.8l-2.4-1.4l-2.2-1.7l-1.7-2.2
		l-1.3-2.4l-0.8-2.7l-0.3-2.7l0.3-2.8l0.8-2.7l1.3-2.4 M-1118.8,659.8l9.6,3.6l8.6,4.8l8.1,6l7.4,7.2l6.9,8.5l6.3,9.6l5.6,10.8
		l4.9,11.7l4.2,12.7l3.4,13.4l2.5,13.9l1.8,14.5l1,17.8l-0.2,17.9l-1.3,17.9l-2.5,17.4l-3.5,16.8l-3.5,12.6l-4,11.8l-4.6,11.1
		l-5.1,10l-5.4,9 M-1078.6,918.8l-1.3,2.4l-0.8,2.7l-0.3,2.8l0.3,2.7l0.8,2.7l1.3,2.4l1.7,2.2l2.2,1.7l2.4,1.4l2.7,0.8l2.7,0.2
		l2.8-0.2l2.7-0.8l2.4-1.3l2.2-1.8l1.7-2.2 M-1055.1,934.5l7.1-11.7l6.3-12.7l5.6-13.7l4.7-14.5l4-15.2l3.1-15.7l2.6-19l1.4-19.3
		l0.1-19.4l-1.1-19.4l-1.9-16.1l-2.9-15.7l-3.9-15.3l-4.8-14.7l-5.8-13.9l-6.8-13l-5.8-9.1l-6.4-8.5l-7-7.8l-7.5-7.1l-8.2-6.4
		l-8.8-5.4l-9.4-4.6l-10.1-3.6 M-1110.6,632.7l-4.5-1.6l-4.4-2l-4.3-2.3l-4-2.7l-3.7-3l-3.5-3.4l-3.2-3.6l-2.9-3.9l-2.5-4.1
		l-2.2-4.3l-1.8-4.4l-1.4-4.7l-1.1-4.7l-0.6-4.8l-0.2-4.8 M-1150.9,578.4V436.7 M-1150.9,436.7h-28.3 M-1179.2,436.7v42.5
		 M-1165,479.2h-14.2 M-1165,487.7v-8.5 M-1165,487.7h-14.2 M-1179.2,487.7v76.5 M-1165,564.2h-14.2 M-1165,572.7v-8.5 M-1165,572.7
		h-14.2 M-1179.2,572.7v5.7 M-1179.2,578.4l0.2,5.7l0.5,5.7l1,5.7l1.3,5.5l1.7,5.5l2.1,5.3l2.4,5.2l2.8,5l3.1,4.8l3.4,4.6l3.7,4.3
		l4,4.1l4.3,3.8l4.5,3.6l4.7,3.2l4.9,2.8l5.1,2.6l5.3,2.2l5.4,1.8"/>
</g>
<g>
	<path class="st0" d="M-1723,75.1h-14.2 M-1723,83.6v-8.5 M-1723,83.6h-14.2 M-1737.2,83.6v76.6 M-1723,160.2h-14.2 M-1723,168.7
		v-8.5 M-1723,168.7h-14.2 M-1737.2,168.7v5.6 M-1737.2,174.3l0.2,5.2l0.4,5.2l0.8,5.1l1.1,5l1.4,5l1.7,4.9l2,4.8l2.3,4.6l2.5,4.5
		l2.9,4.3l3.1,4.2l3.3,4l3.6,3.7l3.7,3.5l4,3.3l4.2,3.1l4.4,2.7l4.5,2.5l4.7,2.3l4.8,1.9l4.9,1.7 M-1676.7,255.8l8.2,3l7.6,3.9
		l7,4.7l6.7,5.7l6.2,6.6l5.8,7.4l5.3,8.3l4.9,9.2l4.3,9.9l3.8,10.6l3.3,11.1l2.6,11.7l2.1,12.1l1.4,12.4l1,15.6v15.8l-0.9,15.7
		 M-1602.2,425.7l-5.2-6.2 M-1594.8,426.8l-0.9,0.5l-1,0.3l-1,0.1l-1-0.1l-1-0.2l-0.9-0.4l-0.8-0.6l-0.8-0.7 M-1578.7,416.7
		l-16.1,10.1 M-1578.7,416.7l0.6-15.6l-0.2-15.7l-1-15.6l-1.6-13.8l-2.3-13.6l-3-13.2l-3.7-12.8l-4.4-12.4l-5.2-11.8l-5.9-11.1
		l-5.2-8.2l-5.6-7.7l-6.1-7.2l-6.6-6.6l-7-5.9l-7.5-5.3l-7.9-4.6l-8.4-3.8l-8.8-3.2 M-1668.5,228.6l-4.1-1.4l-3.9-1.6l-3.7-2
		l-3.7-2.3l-3.4-2.5l-3.2-2.7l-3.1-3l-2.8-3.3l-2.5-3.4l-2.3-3.6l-2-3.8l-1.7-3.9l-1.4-4l-1.1-4.1l-0.8-4.2l-0.5-4.2l-0.1-4.3
		 M-1708.8,174.3V32.6 M-1708.8,32.6h-28.4 M-1737.2,32.6v42.5"/>
	<path class="st0" d="M-1642.9,75.1h-14.2 M-1642.9,83.6v-8.5 M-1642.9,83.6h-14.2 M-1657.1,83.6v76.6 M-1642.9,160.2h-14.2
		 M-1642.9,168.7v-8.5 M-1642.9,168.7h-14.2 M-1657.1,168.7v5.6 M-1657.1,174.3l0.2,5.2l0.4,5.2l0.8,5.1l1.1,5l1.4,5l1.7,4.9l2,4.8
		l2.3,4.6l2.5,4.5l2.9,4.3l3.1,4.2l3.3,4l3.6,3.7l3.7,3.5l4,3.3l4.2,3.1l4.4,2.7l4.5,2.5l4.7,2.3l4.8,1.9l4.9,1.7 M-1596.6,255.8
		l8.2,3l7.6,3.9l7,4.7l6.7,5.7l6.2,6.6l5.8,7.4l5.3,8.3l4.9,9.2l4.3,9.9l3.8,10.6l3.3,11.1l2.6,11.7l2.1,12.1l1.4,12.4l1,15.6v15.8
		l-0.9,15.7 M-1522.1,425.7l-5.2-6.2 M-1514.7,426.8l-0.9,0.5l-1,0.3l-1,0.1l-1-0.1l-1-0.2l-0.9-0.4l-0.8-0.6l-0.8-0.7
		 M-1498.6,416.7l-16.1,10.1 M-1498.6,416.7l0.6-15.6l-0.2-15.7l-1-15.6l-1.6-13.8l-2.3-13.6l-3-13.2l-3.7-12.8l-4.4-12.4l-5.2-11.8
		l-5.9-11.1l-5.2-8.2l-5.6-7.7l-6.1-7.2l-6.6-6.6l-7-5.9l-7.5-5.3l-7.9-4.6l-8.4-3.8l-8.8-3.2 M-1588.4,228.6l-4.1-1.4l-3.9-1.6
		l-3.7-2l-3.7-2.3l-3.4-2.5l-3.2-2.7l-3.1-3l-2.8-3.3l-2.5-3.4l-2.3-3.6l-2-3.8l-1.7-3.9l-1.4-4l-1.1-4.1l-0.8-4.2l-0.5-4.2
		l-0.1-4.3 M-1628.7,174.3V32.6 M-1628.7,32.6h-28.4 M-1657.1,32.6v42.5"/>
	<path class="st0" d="M-1562.8,75.1h-14.2 M-1562.8,83.6v-8.5 M-1562.8,83.6h-14.2 M-1577,83.6v76.6 M-1562.8,160.2h-14.2
		 M-1562.8,168.7v-8.5 M-1562.8,168.7h-14.2 M-1577,168.7v5.6 M-1577,174.3l0.2,5.2l0.4,5.2l0.8,5.1l1.1,5l1.4,5l1.7,4.9l2,4.8
		l2.3,4.6l2.5,4.5l2.9,4.3l3.1,4.2l3.3,4l3.6,3.7l3.7,3.5l4,3.3l4.2,3.1l4.4,2.7l4.5,2.5l4.7,2.3l4.8,1.9l4.9,1.7 M-1516.5,255.8
		l8.2,3l7.6,3.9l7,4.7l6.7,5.7l6.2,6.6l5.8,7.4l5.3,8.3l4.9,9.2l4.3,9.9l3.8,10.6l3.3,11.1l2.6,11.7l2.1,12.1l1.4,12.4l1,15.6v15.8
		l-0.9,15.7 M-1442,425.7l-5.2-6.2 M-1434.6,426.8l-0.9,0.5l-1,0.3l-1,0.1l-1-0.1l-1-0.2l-0.9-0.4l-0.8-0.6l-0.8-0.7 M-1418.5,416.7
		l-16.1,10.1 M-1418.5,416.7l0.6-15.6l-0.2-15.7l-1-15.6l-1.6-13.8l-2.3-13.6l-3-13.2l-3.7-12.8l-4.4-12.4l-5.2-11.8l-5.9-11.1
		l-5.2-8.2l-5.6-7.7l-6.1-7.2l-6.6-6.6l-7-5.9l-7.5-5.3l-7.9-4.6l-8.4-3.8l-8.8-3.2 M-1508.3,228.6l-4.1-1.4l-3.9-1.6l-3.7-2
		l-3.7-2.3l-3.4-2.5l-3.2-2.7l-3.1-3l-2.8-3.3l-2.5-3.4l-2.3-3.6l-2-3.8l-1.7-3.9l-1.4-4l-1.1-4.1l-0.8-4.2l-0.5-4.2l-0.1-4.3
		 M-1548.6,174.3V32.6 M-1548.6,32.6h-28.4 M-1577,32.6v42.5"/>
	<path class="st0" d="M-1482.7,75.1h-14.2 M-1482.7,83.6v-8.5 M-1482.7,83.6h-14.2 M-1496.9,83.6v76.6 M-1482.7,160.2h-14.2
		 M-1482.7,168.7v-8.5 M-1482.7,168.7h-14.2 M-1496.9,168.7v5.6 M-1496.9,174.3l0.2,5.2l0.4,5.2l0.8,5.1l1.1,5l1.4,5l1.7,4.9l2,4.8
		l2.3,4.6l2.5,4.5l2.9,4.3l3.1,4.2l3.3,4l3.6,3.7l3.7,3.5l4,3.3l4.2,3.1l4.4,2.7l4.5,2.5l4.7,2.3l4.8,1.9l4.9,1.7 M-1436.4,255.8
		l8.2,3l7.6,3.9l7,4.7l6.7,5.7l6.2,6.6l5.8,7.4l5.3,8.3l4.9,9.2l4.3,9.9l3.8,10.6l3.3,11.1l2.6,11.7l2.1,12.1l1.4,12.4l1,15.6v15.8
		l-0.9,15.7 M-1361.9,425.7l-5.2-6.2 M-1354.5,426.8l-0.9,0.5l-1,0.3l-1,0.1l-1-0.1l-1-0.2l-0.9-0.4l-0.8-0.6l-0.8-0.7
		 M-1338.4,416.7l-16.1,10.1 M-1338.4,416.7l0.6-15.6l-0.2-15.7l-1-15.6l-1.6-13.8l-2.3-13.6l-3-13.2l-3.7-12.8l-4.4-12.4l-5.2-11.8
		l-5.9-11.1l-5.2-8.2l-5.6-7.7l-6.1-7.2l-6.6-6.6l-7-5.9l-7.5-5.3l-7.9-4.6l-8.4-3.8l-8.8-3.2 M-1428.2,228.6l-4.1-1.4l-3.9-1.6
		l-3.7-2l-3.7-2.3l-3.4-2.5l-3.2-2.7l-3.1-3l-2.8-3.3l-2.5-3.4l-2.3-3.6l-2-3.8l-1.7-3.9l-1.4-4l-1.1-4.1l-0.8-4.2l-0.5-4.2
		l-0.1-4.3 M-1468.5,174.3V32.6 M-1468.5,32.6h-28.4 M-1496.9,32.6v42.5"/>
	<path class="st0" d="M-1402.6,75.1h-14.2 M-1402.6,83.6v-8.5 M-1402.6,83.6h-14.2 M-1416.8,83.6v76.6 M-1402.6,160.2h-14.2
		 M-1402.6,168.7v-8.5 M-1402.6,168.7h-14.2 M-1416.8,168.7v5.6 M-1416.8,174.3l0.2,5.2l0.4,5.2l0.8,5.1l1.1,5l1.4,5l1.7,4.9l2,4.8
		l2.3,4.6l2.5,4.5l2.9,4.3l3.1,4.2l3.3,4l3.6,3.7l3.7,3.5l4,3.3l4.2,3.1l4.4,2.7l4.5,2.5l4.7,2.3l4.8,1.9l4.9,1.7 M-1356.3,255.8
		l8.2,3l7.6,3.9l7,4.7l6.7,5.7l6.2,6.6l5.8,7.4l5.3,8.3l4.9,9.2l4.3,9.9l3.8,10.6l3.3,11.1l2.6,11.7l2.1,12.1l1.4,12.4l1,15.6v15.8
		l-0.9,15.7 M-1281.8,425.7l-5.2-6.2 M-1274.4,426.8l-0.9,0.5l-1,0.3l-1,0.1l-1-0.1l-1-0.2l-0.9-0.4l-0.8-0.6l-0.8-0.7
		 M-1258.3,416.7l-16.1,10.1 M-1258.3,416.7l0.6-15.6l-0.2-15.7l-1-15.6l-1.6-13.8l-2.3-13.6l-3-13.2l-3.7-12.8l-4.4-12.4l-5.2-11.8
		l-5.9-11.1l-5.2-8.2l-5.6-7.7l-6.1-7.2l-6.6-6.6l-7-5.9l-7.5-5.3l-7.9-4.6l-8.4-3.8l-8.8-3.2 M-1348.1,228.6l-4.1-1.4l-3.9-1.6
		l-3.7-2l-3.7-2.3l-3.4-2.5l-3.2-2.7l-3.1-3l-2.8-3.3l-2.5-3.4l-2.3-3.6l-2-3.8l-1.7-3.9l-1.4-4l-1.1-4.1l-0.8-4.2l-0.5-4.2
		l-0.1-4.3 M-1388.4,174.3V32.6 M-1388.4,32.6h-28.4 M-1416.8,32.6v42.5"/>
	<path class="st0" d="M-1322.5,75.1h-14.2 M-1322.5,83.6v-8.5 M-1322.5,83.6h-14.2 M-1336.7,83.6v76.6 M-1322.5,160.2h-14.2
		 M-1322.5,168.7v-8.5 M-1322.5,168.7h-14.2 M-1336.7,168.7v5.6 M-1336.7,174.3l0.2,5.2l0.4,5.2l0.8,5.1l1.1,5l1.4,5l1.7,4.9l2,4.8
		l2.3,4.6l2.5,4.5l2.9,4.3l3.1,4.2l3.3,4l3.6,3.7l3.7,3.5l4,3.3l4.2,3.1l4.4,2.7l4.5,2.5l4.7,2.3l4.8,1.9l4.9,1.7 M-1276.2,255.8
		l8.2,3l7.6,3.9l7,4.7l6.7,5.7l6.2,6.6l5.8,7.4l5.3,8.3l4.9,9.2l4.3,9.9l3.8,10.6l3.3,11.1l2.6,11.7l2.1,12.1l1.4,12.4l1,15.6v15.8
		l-0.9,15.7 M-1201.7,425.7l-5.2-6.2 M-1194.3,426.8l-0.9,0.5l-1,0.3l-1,0.1l-1-0.1l-1-0.2l-0.9-0.4l-0.8-0.6l-0.8-0.7
		 M-1178.2,416.7l-16.1,10.1 M-1178.2,416.7l0.6-15.6l-0.2-15.7l-1-15.6l-1.6-13.8l-2.3-13.6l-3-13.2l-3.7-12.8l-4.4-12.4l-5.2-11.8
		l-5.9-11.1l-5.2-8.2l-5.6-7.7l-6.1-7.2l-6.6-6.6l-7-5.9l-7.5-5.3l-7.9-4.6l-8.4-3.8l-8.8-3.2 M-1268,228.6l-4.1-1.4l-3.9-1.6
		l-3.7-2l-3.7-2.3l-3.4-2.5l-3.2-2.7l-3.1-3l-2.8-3.3l-2.5-3.4l-2.3-3.6l-2-3.8l-1.7-3.9l-1.4-4l-1.1-4.1l-0.8-4.2l-0.5-4.2
		l-0.1-4.3 M-1308.3,174.3V32.6 M-1308.3,32.6h-28.4 M-1336.7,32.6v42.5"/>
	<path class="st0" d="M-1242.4,75.1h-14.2 M-1242.4,83.6v-8.5 M-1242.4,83.6h-14.2 M-1256.6,83.6v76.6 M-1242.4,160.2h-14.2
		 M-1242.4,168.7v-8.5 M-1242.4,168.7h-14.2 M-1256.6,168.7v5.6 M-1256.6,174.3l0.2,5.2l0.4,5.2l0.8,5.1l1.1,5l1.4,5l1.7,4.9l2,4.8
		l2.3,4.6l2.5,4.5l2.9,4.3l3.1,4.2l3.3,4l3.6,3.7l3.7,3.5l4,3.3l4.2,3.1l4.4,2.7l4.5,2.5l4.7,2.3l4.8,1.9l4.9,1.7 M-1196.1,255.8
		l8.2,3l7.6,3.9l7,4.7l6.7,5.7l6.2,6.6l5.8,7.4l5.3,8.3l4.9,9.2l4.3,9.9l3.8,10.6l3.3,11.1l2.6,11.7l2.1,12.1l1.4,12.4l1,15.6v15.8
		l-0.9,15.7 M-1121.6,425.7l-5.2-6.2 M-1114.2,426.8l-0.9,0.5l-1,0.3l-1,0.1l-1-0.1l-1-0.2l-0.9-0.4l-0.8-0.6l-0.8-0.7
		 M-1098.1,416.7l-16.1,10.1 M-1098.1,416.7l0.6-15.6l-0.2-15.7l-1-15.6l-1.6-13.8l-2.3-13.6l-3-13.2l-3.7-12.8l-4.4-12.4l-5.2-11.8
		l-5.9-11.1l-5.2-8.2l-5.6-7.7l-6.1-7.2l-6.6-6.6l-7-5.9l-7.5-5.3l-7.9-4.6l-8.4-3.8l-8.8-3.2 M-1187.9,228.6l-4.1-1.4l-3.9-1.6
		l-3.7-2l-3.7-2.3l-3.4-2.5l-3.2-2.7l-3.1-3l-2.8-3.3l-2.5-3.4l-2.3-3.6l-2-3.8l-1.7-3.9l-1.4-4l-1.1-4.1l-0.8-4.2l-0.5-4.2
		l-0.1-4.3 M-1228.2,174.3V32.6 M-1228.2,32.6h-28.4 M-1256.6,32.6v42.5"/>
	<path class="st0" d="M-1082.2,75.1h-14.2 M-1082.2,83.6v-8.5 M-1082.2,83.6h-14.2 M-1096.4,83.6v76.6 M-1082.2,160.2h-14.2
		 M-1082.2,168.7v-8.5 M-1082.2,168.7h-14.2 M-1096.4,168.7v5.6 M-1096.4,174.3l0.2,5.2l0.4,5.2l0.8,5.1l1.1,5l1.4,5l1.7,4.9l2,4.8
		l2.3,4.6l2.5,4.5l2.9,4.3l3.1,4.2l3.3,4l3.6,3.7l3.7,3.5l4,3.3l4.2,3.1l4.4,2.7l4.5,2.5l4.7,2.3l4.8,1.9l4.9,1.7 M-1035.9,255.8
		l8.2,3l7.6,3.9l7,4.7l6.7,5.7l6.2,6.6l5.8,7.4l5.3,8.3l4.9,9.2l4.3,9.9l3.8,10.6l3.3,11.1l2.6,11.7l2.1,12.1l1.4,12.4l1,15.6v15.8
		l-0.9,15.7 M-961.4,425.7l-5.2-6.2 M-954,426.8l-0.9,0.5l-1,0.3l-1,0.1l-1-0.1l-1-0.2l-0.9-0.4l-0.8-0.6l-0.8-0.7 M-937.9,416.7
		l-16.1,10.1 M-937.9,416.7l0.6-15.6l-0.2-15.7l-1-15.6l-1.6-13.8l-2.3-13.6l-3-13.2l-3.7-12.8l-4.4-12.4l-5.2-11.8l-5.9-11.1
		l-5.2-8.2l-5.6-7.7l-6.1-7.2l-6.6-6.6l-7-5.9l-7.5-5.3l-7.9-4.6l-8.4-3.8l-8.8-3.2 M-1027.7,228.6l-4.1-1.4l-3.9-1.6l-3.7-2
		l-3.7-2.3l-3.4-2.5l-3.2-2.7l-3.1-3l-2.8-3.3l-2.5-3.4l-2.3-3.6l-2-3.8l-1.7-3.9l-1.4-4l-1.1-4.1l-0.8-4.2l-0.5-4.2l-0.1-4.3
		 M-1068,174.3V32.6 M-1068,32.6h-28.4 M-1096.4,32.6v42.5"/>
	<path class="st0" d="M-1162.3,75.1h-14.2 M-1162.3,83.6v-8.5 M-1162.3,83.6h-14.2 M-1176.5,83.6v76.6 M-1162.3,160.2h-14.2
		 M-1162.3,168.7v-8.5 M-1162.3,168.7h-14.2 M-1176.5,168.7v5.6 M-1176.5,174.3l0.2,5.2l0.4,5.2l0.8,5.1l1.1,5l1.4,5l1.7,4.9l2,4.8
		l2.3,4.6l2.5,4.5l2.9,4.3l3.1,4.2l3.3,4l3.6,3.7l3.7,3.5l4,3.3l4.2,3.1l4.4,2.7l4.5,2.5l4.7,2.3l4.8,1.9l4.9,1.7 M-1116,255.8
		l8.2,3l7.6,3.9l7,4.7l6.7,5.7l6.2,6.6l5.8,7.4l5.3,8.3l4.9,9.2l4.3,9.9l3.8,10.6l3.3,11.1l2.6,11.7l2.1,12.1l1.4,12.4l1,15.6v15.8
		l-0.9,15.7 M-1041.5,425.7l-5.2-6.2 M-1034.1,426.8l-0.9,0.5l-1,0.3l-1,0.1l-1-0.1l-1-0.2l-0.9-0.4l-0.8-0.6l-0.8-0.7 M-1018,416.7
		l-16.1,10.1 M-1018,416.7l0.6-15.6l-0.2-15.7l-1-15.6l-1.6-13.8l-2.3-13.6l-3-13.2l-3.7-12.8l-4.4-12.4l-5.2-11.8l-5.9-11.1
		l-5.2-8.2l-5.6-7.7l-6.1-7.2l-6.6-6.6l-7-5.9l-7.5-5.3l-7.9-4.6l-8.4-3.8l-8.8-3.2 M-1107.8,228.6l-4.1-1.4l-3.9-1.6l-3.7-2
		l-3.7-2.3l-3.4-2.5l-3.2-2.7l-3.1-3l-2.8-3.3l-2.5-3.4l-2.3-3.6l-2-3.8l-1.7-3.9l-1.4-4l-1.1-4.1l-0.8-4.2l-0.5-4.2l-0.1-4.3
		 M-1148.1,174.3V32.6 M-1148.1,32.6h-28.4 M-1176.5,32.6v42.5"/>
</g>
<path class="st0" d="M-1261.6,1065.8v-2.3v-2.3l-0.1-2.3l-0.1-2.3l-0.1-2.3l-0.2-2.3l-0.3-2.3l-0.3-2.3 M-1274.9,1116.4l1.1-2
	l1.1-2.1l0.9-2.2l1-2.1l0.9-2.1l0.8-2.2l0.8-2.2l0.8-2.2 M-1305.2,973.8l-3.1-2.3l-3.3-2.3l-3.3-2.2l-3.4-2l-3.4-1.9l-3.6-1.8
	l-3.5-1.7l-3.7-1.5 M-1278.8,1003.1l-2.2-3.3l-2.2-3.2l-2.4-3.2l-2.5-3.1l-2.6-3l-2.7-2.9l-2.8-2.8l-2.9-2.7 M-1264.1,1039.6
	l-0.9-3.8l-1-3.9l-1.1-3.7l-1.3-3.8l-1.4-3.7l-1.6-3.6l-1.7-3.6l-1.8-3.5 M-1262.7,1079l0.1-0.7l0.1-0.7l0.1-0.7l0.1-0.6v-0.7
	l0.1-0.7l0.1-0.7v-0.6 M-1265.3,1091.8l0.2-0.6l0.2-0.6l0.1-0.7l0.2-0.6l0.1-0.6l0.2-0.6l0.1-0.7l0.1-0.6 M-1299.1,1147.5l2.9-2.7
	l2.8-2.8l2.7-2.9l2.6-3l2.5-3.1l2.4-3.1l2.2-3.3l2.2-3.3 M-1332.5,1168.3l3.7-1.5l3.5-1.7l3.6-1.8l3.4-1.9l3.4-2l3.3-2.2l3.3-2.3
	l3.1-2.3 M-1371,1176.5l3.9-0.2l4-0.3l3.9-0.5l3.9-0.6l3.9-0.8l3.9-0.9l3.8-1l3.8-1.2 M-1410,1171l3.8,1.2l3.8,1l3.9,0.9l3.8,0.8
	l3.9,0.6l4,0.5l3.9,0.3l4,0.2 M-1444.8,1152.6l3.2,2.3l3.2,2.3l3.3,2.2l3.4,2l3.5,1.9l3.5,1.8l3.6,1.7l3.6,1.5 M-1471.1,1123.3
	l2.1,3.3l2.3,3.3l2.4,3.1l2.5,3.1l2.6,3l2.7,2.9l2.8,2.8l2.8,2.7 M-1485.9,1086.8l0.9,3.8l1,3.9l1.2,3.7l1.3,3.8l1.4,3.7l1.5,3.6
	l1.7,3.6l1.8,3.5 M-1487.3,1047.4l-0.4,4l-0.4,3.9l-0.2,3.9l-0.1,4l0.1,4l0.2,3.9l0.4,3.9l0.4,4 M-1475.1,1010l-1.8,3.5l-1.7,3.6
	l-1.5,3.6l-1.4,3.7l-1.3,3.8l-1.2,3.7l-1,3.9l-0.9,3.8 M-1450.9,978.9l-2.8,2.7l-2.8,2.8l-2.7,2.9l-2.6,3l-2.5,3.1l-2.4,3.2
	l-2.3,3.2l-2.1,3.3 M-1417.5,958.1l-3.6,1.5l-3.6,1.7l-3.5,1.8l-3.5,1.9l-3.4,2l-3.3,2.2l-3.2,2.3l-3.2,2.3 M-1378.9,949.9l-4,0.2
	l-3.9,0.3l-4,0.5l-3.9,0.6l-3.8,0.8l-3.9,0.9l-3.8,1l-3.8,1.2 M-1261.6,1065.8l-27-4.7 M-1276.6,1049.9l13.9-2.5 M-1278,1042.1
	l1.4,7.8 M-1264.1,1039.6l-13.9,2.5 M-1287.1,1017l12.2-7 M-1291,1010.2l3.9,6.8 M-1278.8,1003.1l-12.2,7.1 M-1308.2,989.8l9.1-10.9
	 M-1314.2,984.7l6,5.1 M-1305.2,973.8l-9,10.9 M-1337.3,971.3l4.8-13.2 M-1344.8,968.6l7.5,2.7 M-1339.9,955.4l-4.9,13.2
	 M-1339.9,955.4l-3.8-1.2l-3.8-1l-3.9-0.9l-3.9-0.8l-3.9-0.6l-3.9-0.5l-4-0.3l-3.9-0.2 M-1371,964v-14.1 M-1378.9,964h7.9
	 M-1378.9,949.9V964 M-1405.2,968.6l-4.8-13.2 M-1412.6,971.3l7.4-2.7 M-1417.5,958.1l4.9,13.2 M-1435.7,984.7l-9.1-10.9
	 M-1441.8,989.8l6.1-5.1 M-1450.9,978.9l9.1,10.9 M-1458.9,1010.2l-12.2-7.1 M-1462.9,1017l4-6.8 M-1475.1,1010l12.2,7
	 M-1472,1042.1l-13.9-2.5 M-1473.4,1049.9l1.4-7.8 M-1487.3,1047.4l13.9,2.5 M-1473.4,1076.5l-13.9,2.5 M-1472,1084.3l-1.4-7.8
	 M-1485.9,1086.8l13.9-2.5 M-1462.9,1109.4l-12.2,7 M-1458.9,1116.2l-4-6.8 M-1471.1,1123.3l12.2-7.1 M-1441.8,1136.7l-9.1,10.8
	 M-1435.7,1141.8l-6.1-5.1 M-1444.8,1152.6l9.1-10.8 M-1412.6,1155.1l-4.9,13.2 M-1405.2,1157.8l-7.4-2.7 M-1410,1171l4.8-13.2
	 M-1378.9,1162.4v14.1 M-1371,1162.4h-7.9 M-1371,1176.5v-14.1 M-1344.8,1157.8l4.9,13.2 M-1337.3,1155.1l-7.5,2.7 M-1332.5,1168.3
	l-4.8-13.2 M-1314.2,1141.8l9,10.8 M-1308.2,1136.7l-6,5.1 M-1299.1,1147.5l-9.1-10.8 M-1291,1116.2l12.2,7.1 M-1287.1,1109.4
	l-3.9,6.8 M-1274.9,1116.4l-12.2-7 M-1294.5,1094.6l27,4.7 M-1293.1,1086.2l-1.4,8.4 M-1265.1,1091.1l-28-4.9 M-1265.3,1091.8
	l0.2-0.7 M-1278,1084.3l13.9,2.5 M-1276.6,1076.5l-1.4,7.8 M-1262.7,1079l-13.9-2.5 M-1262.2,1074.3l0.1-0.7 M-1290.1,1069.4
	l27.9,4.9 M-1288.6,1061.1l-1.5,8.3 M-1375,1122.7l3.7-0.1l3.6-0.3l3.6-0.6l3.5-0.7l3.5-1l3.4-1.2l3.4-1.4l3.2-1.6l3.2-1.8l3-2
	l2.9-2.2l2.8-2.3l2.6-2.5l2.5-2.7l2.3-2.8l2.1-2.9l2-3.1l1.7-3.2l1.6-3.3l1.3-3.3l1.2-3.5l0.9-3.5l0.7-3.6l0.5-3.6l0.3-3.6v-3.6
	l-0.1-3.6l-0.4-3.6l-0.6-3.6l-0.8-3.6l-1.1-3.4l-1.2-3.4l-1.5-3.4l-1.6-3.2l-1.9-3.1l-2-3l-2.2-2.9l-2.4-2.8l-2.6-2.5l-2.7-2.5
	l-2.8-2.2l-3-2.1l-3.1-1.9l-3.2-1.7l-3.3-1.5l-3.4-1.3l-3.4-1.1l-3.6-0.9l-3.5-0.6l-3.6-0.5l-3.7-0.2h-3.6l-3.6,0.2l-3.6,0.5
	l-3.6,0.6l-3.5,0.9l-3.5,1.1l-3.4,1.3l-3.3,1.5l-3.2,1.7l-3.1,1.9l-2.9,2.1l-2.9,2.2l-2.7,2.5l-2.5,2.5l-2.4,2.8l-2.2,2.9l-2.1,3
	l-1.8,3.1l-1.7,3.2l-1.4,3.4l-1.3,3.4l-1,3.4l-0.8,3.6l-0.6,3.6l-0.4,3.6l-0.2,3.6l0.1,3.6l0.2,3.6l0.5,3.6l0.7,3.6l1,3.5l1.1,3.5
	l1.4,3.3l1.5,3.3l1.8,3.2l1.9,3.1l2.1,2.9l2.3,2.8l2.5,2.7l2.6,2.5l2.8,2.3l2.9,2.2l3.1,2l3.1,1.8l3.3,1.6l3.3,1.4l3.5,1.2l3.4,1
	l3.6,0.7l3.6,0.6l3.6,0.3L-1375,1122.7"/>
<path class="st0" d="M893.7,273.5l-0.3-2.2l-0.7-2.1l-1.1-1.9l-1.5-1.7l-1.8-1.3l-2-0.9l-2.2-0.4h-2.2l-2.2,0.4l-2,0.9l-1.8,1.3
	l-1.5,1.7l-1.1,1.9l-0.7,2.1l-0.2,2.2l0.2,2.3l0.7,2.1l1.1,1.9l1.5,1.6l1.8,1.4l2,0.9l2.2,0.4h2.2l2.2-0.4l2-0.9l1.8-1.4l1.5-1.6
	l1.1-1.9l0.7-2.1L893.7,273.5 M1035.4,273.5l-0.2-2.2l-0.7-2.1l-1.1-1.9l-1.5-1.7l-1.8-1.3l-2.1-0.9l-2.1-0.4h-2.3l-2.1,0.4
	l-2.1,0.9l-1.8,1.3l-1.4,1.7l-1.2,1.9l-0.6,2.1l-0.3,2.2l0.3,2.3l0.6,2.1l1.2,1.9l1.4,1.6l1.8,1.4l2.1,0.9l2.1,0.4h2.3l2.1-0.4
	l2.1-0.9l1.8-1.4l1.5-1.6l1.1-1.9l0.7-2.1L1035.4,273.5 M783.8,245.2l-4.9,0.2l-4.8,0.8l-4.7,1.1l-4.6,1.7l-4.4,2.1l-4.2,2.5
	l-3.9,2.9l-3.6,3.2l-3.2,3.6l-2.9,3.9l-2.5,4.2l-2.1,4.4l-1.7,4.6l-1.1,4.7l-0.8,4.8l-0.2,4.9l0.2,4.9l0.8,4.8l1.1,4.7l1.7,4.6
	l2.1,4.4l2.5,4.2l2.9,3.9l3.2,3.6l3.6,3.3l3.9,2.9l4.2,2.5l4.4,2l4.6,1.7l4.7,1.2l4.8,0.7l4.9,0.2 M783.8,344.4h566.9 M1350.7,344.4
	l4.9-0.2l4.8-0.7l4.7-1.2l4.6-1.7l4.4-2l4.2-2.5l3.9-2.9l3.6-3.3l3.3-3.6l2.9-3.9l2.5-4.2l2.1-4.4l1.6-4.6l1.2-4.7l0.7-4.8l0.2-4.9
	l-0.2-4.9l-0.7-4.8l-1.2-4.7l-1.6-4.6l-2.1-4.4l-2.5-4.2l-2.9-3.9l-3.3-3.6l-3.6-3.2l-3.9-2.9l-4.2-2.5l-4.4-2.1l-4.6-1.7l-4.7-1.1
	l-4.8-0.8l-4.9-0.2 M1350.7,245.2H783.8 M795.1,294.8l-0.2-2.3l-0.7-2.2l-1.1-2l-1.5-1.7l-1.8-1.4l-2.1-1l-2.2-0.6l-2.3-0.1
	l-2.2,0.3l-2.2,0.8l-1.9,1.2l-1.7,1.6l-1.3,1.9l-0.9,2.1l-0.5,2.3v2.3l0.5,2.2l0.9,2.1l1.3,1.9l1.7,1.6l1.9,1.2l2.2,0.8l2.2,0.3
	l2.3-0.1l2.2-0.6l2.1-1l1.8-1.4l1.5-1.7l1.1-2l0.7-2.2L795.1,294.8 M1350.7,283.5H1124 M1350.7,306.1l2.4-0.2l2.2-0.7l2.1-1.2
	l1.8-1.6l1.4-1.9l0.9-2.2l0.5-2.3v-2.4l-0.5-2.3l-0.9-2.2l-1.4-1.9l-1.8-1.6l-2.1-1.2l-2.2-0.7l-2.4-0.2 M1124,306.1h226.7
	 M1124,283.5l-2.4,0.2l-2.2,0.7l-2.1,1.2l-1.8,1.6l-1.4,1.9l-0.9,2.2l-0.5,2.3v2.4l0.5,2.3l0.9,2.2l1.4,1.9l1.8,1.6l2.1,1.2l2.2,0.7
	l2.4,0.2"/>
<path class="st0" d="M1446.2,188.9v17 M1446.2,205.9h42.5 M1488.7,205.9v-17 M1488.7,188.9h56.7 M1545.4,188.9v17 M1545.4,205.9
	h42.5 M1587.9,205.9v-17 M1587.9,188.9h28.3 M1616.2,188.9v-9.8 M1616.2,179.1v-1.5l-0.1-1.4l-0.2-1.5l-0.3-1.4l-0.3-1.4l-0.4-1.4
	l-0.5-1.4l-0.5-1.4 M1613.9,167.7L1576,81.1 M1576,81.1l-1.4-2.9l-1.5-2.8l-1.6-2.7l-1.9-2.6l-1.9-2.5l-2.1-2.4l-2.3-2.2l-2.3-2.2
	l-2.5-2l-2.6-1.9l-2.7-1.7l-2.7-1.5l-2.9-1.4l-2.9-1.3l-3-1l-3.1-1l-3.1-0.7l-3.1-0.5l-3.2-0.4l-3.2-0.2h-3.2l-3.1,0.1l-3.2,0.4
	l-3.1,0.5l-3.2,0.7l-3,0.8l-3,1.1l-3,1.2l-2.9,1.3l-2.8,1.5l-2.7,1.7l-2.6,1.9l-2.5,1.9l-2.4,2.1l-2.2,2.3l-2.2,2.3l-2,2.5l-1.8,2.6
	l-1.7,2.7 M1475.4,74.8l-53.6,89.8 M1421.8,164.6l-0.9,1.6l-0.8,1.8l-0.7,1.7l-0.6,1.9l-0.4,1.8l-0.3,1.9l-0.2,1.9l-0.1,1.9
	 M1417.8,179.1v9.8 M1417.8,188.9h28.4 M1535.4,103.8l-0.1-1.4l-0.3-1.4l-0.4-1.3l-0.6-1.3l-0.8-1.2l-0.9-1.1l-1-1l-1.2-0.8
	l-1.2-0.7l-1.3-0.5l-1.4-0.4l-1.4-0.2h-1.5l-1.4,0.2l-1.3,0.4l-1.4,0.5l-1.2,0.7l-1.2,0.8l-1,1l-0.9,1.1l-0.8,1.2l-0.6,1.3l-0.4,1.3
	l-0.3,1.4l-0.1,1.4l0.1,1.5l0.3,1.4l0.4,1.3l0.6,1.3l0.8,1.2l0.9,1.1l1,1l1.2,0.8l1.2,0.7l1.4,0.5l1.3,0.4l1.4,0.2h1.5l1.4-0.2
	l1.4-0.4l1.3-0.5l1.2-0.7l1.2-0.8l1-1l0.9-1.1l0.8-1.2l0.6-1.3l0.4-1.3l0.3-1.4L1535.4,103.8"/>
<path class="st0" d="M-1513.6,1065.7l0.1-2.3l-0.1-2.3v-2.3l-0.1-2.2l-0.2-2.3l-0.2-2.3l-0.3-2.3l-0.2-2.3 M-1526.8,1116.4l1.1-2.1
	l1-2.1l1-2.1l0.9-2.1l0.9-2.2l0.9-2.2l0.8-2.1l0.8-2.2 M-1557.1,973.8l-3.2-2.4l-3.2-2.2l-3.3-2.2l-3.4-2l-3.5-1.9l-3.5-1.8
	l-3.6-1.7l-3.6-1.6 M-1530.8,1003.1l-2.1-3.3l-2.3-3.3l-2.4-3.1l-2.5-3.1l-2.6-3l-2.7-2.9l-2.8-2.8l-2.9-2.7 M-1516,1039.6l-0.9-3.9
	l-1-3.8l-1.2-3.8l-1.3-3.7l-1.4-3.7l-1.5-3.6l-1.7-3.6l-1.8-3.6 M-1514.6,1078.9v-0.6l0.1-0.7l0.1-0.7l0.1-0.7l0.1-0.6v-0.7l0.1-0.7
	l0.1-0.7 M-1517.2,1091.8l0.1-0.6l0.2-0.7l0.2-0.6l0.1-0.6l0.2-0.7l0.1-0.6l0.1-0.6l0.2-0.6 M-1551.1,1147.4l2.9-2.7l2.8-2.8
	l2.7-2.9l2.6-2.9l2.5-3.1l2.4-3.2l2.3-3.2l2.1-3.3 M-1584.4,1168.3l3.6-1.6l3.6-1.6l3.5-1.8l3.5-1.9l3.4-2.1l3.3-2.1l3.2-2.3
	l3.2-2.4 M-1623,1176.5l4-0.2l3.9-0.4l4-0.4l3.9-0.7l3.8-0.7l3.9-0.9l3.8-1l3.8-1.2 M-1662,1171l3.8,1.2l3.8,1l3.9,0.9l3.9,0.7
	l3.9,0.7l3.9,0.4l4,0.4l3.9,0.2 M-1696.7,1152.5l3.1,2.4l3.3,2.3l3.3,2.1l3.4,2.1l3.4,1.9l3.6,1.8l3.5,1.6l3.7,1.6 M-1723.1,1123.3
	l2.2,3.3l2.2,3.2l2.4,3.2l2.5,3.1l2.6,2.9l2.7,2.9l2.8,2.8l2.9,2.7 M-1737.8,1086.8l0.9,3.8l1,3.8l1.1,3.8l1.3,3.7l1.4,3.7l1.6,3.7
	l1.7,3.6l1.7,3.5 M-1739.2,1047.4l-0.5,3.9l-0.3,4l-0.2,3.9l-0.1,4l0.1,3.9l0.2,4l0.3,3.9l0.5,3.9 M-1727.1,1009.9l-1.7,3.6
	l-1.7,3.6l-1.6,3.6l-1.4,3.7l-1.3,3.7l-1.1,3.8l-1,3.8l-0.9,3.9 M-1702.8,978.9l-2.9,2.7l-2.8,2.8l-2.7,2.9l-2.6,3l-2.5,3.1
	l-2.4,3.1l-2.2,3.3l-2.2,3.3 M-1669.4,958l-3.7,1.6l-3.5,1.7l-3.6,1.8l-3.4,1.9l-3.4,2l-3.3,2.2l-3.3,2.2l-3.1,2.4 M-1630.9,949.9
	l-3.9,0.2l-4,0.3l-3.9,0.5l-3.9,0.6l-3.9,0.8l-3.9,0.8l-3.8,1.1l-3.8,1.1 M-1513.6,1065.7l-27-4.7 M-1528.5,1049.8l13.9-2.4
	 M-1529.9,1042l1.4,7.8 M-1516,1039.6l-13.9,2.4 M-1539,1017l12.2-7.1 M-1543,1010.1l4,6.9 M-1530.8,1003.1l-12.2,7 M-1560.1,989.7
	l9-10.8 M-1566.2,984.6l6.1,5.1 M-1557.1,973.8l-9.1,10.8 M-1589.3,971.3l4.9-13.3 M-1596.7,968.6l7.4,2.7 M-1591.9,955.3l-4.8,13.3
	 M-1591.9,955.3l-3.8-1.1l-3.8-1.1l-3.9-0.8l-3.8-0.8l-3.9-0.6l-4-0.5l-3.9-0.3l-4-0.2 M-1623,964v-14.1 M-1630.9,964h7.9
	 M-1630.9,949.9V964 M-1657.1,968.6l-4.9-13.3 M-1664.6,971.3l7.5-2.7 M-1669.4,958l4.8,13.3 M-1687.7,984.6l-9-10.8 M-1693.7,989.7
	l6-5.1 M-1702.8,978.9l9.1,10.8 M-1710.9,1010.1l-12.2-7 M-1714.8,1017l3.9-6.9 M-1727.1,1009.9l12.3,7.1 M-1723.9,1042l-13.9-2.4
	 M-1725.3,1049.8l1.4-7.8 M-1739.2,1047.4l13.9,2.4 M-1725.3,1076.5l-13.9,2.4 M-1723.9,1084.3l-1.4-7.8 M-1737.8,1086.8l13.9-2.5
	 M-1714.8,1109.3l-12.3,7.1 M-1710.9,1116.2l-3.9-6.9 M-1723.1,1123.3l12.2-7.1 M-1693.7,1136.6l-9.1,10.8 M-1687.7,1141.7l-6-5.1
	 M-1696.7,1152.5l9-10.8 M-1664.6,1155l-4.8,13.3 M-1657.1,1157.8l-7.5-2.8 M-1662,1171l4.9-13.2 M-1630.9,1162.4v14.1
	 M-1623,1162.4h-7.9 M-1623,1176.5v-14.1 M-1596.7,1157.8l4.8,13.2 M-1589.3,1155l-7.4,2.8 M-1584.4,1168.3l-4.9-13.3
	 M-1566.2,1141.7l9.1,10.8 M-1560.1,1136.6l-6.1,5.1 M-1551.1,1147.4l-9-10.8 M-1543,1116.2l12.2,7.1 M-1539,1109.3l-4,6.9
	 M-1526.8,1116.4l-12.2-7.1 M-1546.5,1094.5l27.1,4.8 M-1545,1086.1l-1.5,8.4 M-1517.1,1091l-27.9-4.9 M-1517.2,1091.8l0.1-0.8
	 M-1529.9,1084.3l13.9,2.5 M-1528.5,1076.5l-1.4,7.8 M-1514.6,1078.9l-13.9-2.4 M-1514.2,1074.3l0.2-0.8 M-1542.1,1069.4l27.9,4.9
	 M-1540.6,1061l-1.5,8.4 M-1626.9,1102.9l2.9-0.2l3-0.3l2.9-0.5l2.9-0.8l2.8-1l2.7-1.2l2.6-1.4l2.5-1.5l2.4-1.8l2.3-1.9l2.1-2.1
	l1.9-2.3l1.8-2.4l1.5-2.5l1.4-2.6l1.2-2.7l1-2.8l0.8-2.9l0.5-2.9l0.3-3l0.2-2.9l-0.2-3l-0.3-2.9l-0.5-3l-0.8-2.8l-1-2.8l-1.2-2.7
	l-1.4-2.7l-1.5-2.5l-1.8-2.4l-1.9-2.2l-2.1-2.1l-2.3-2l-2.4-1.7l-2.5-1.6l-2.6-1.4l-2.7-1.2l-2.8-1l-2.9-0.7l-2.9-0.6l-3-0.3
	l-2.9-0.1l-3,0.1l-2.9,0.3l-3,0.6l-2.8,0.7l-2.8,1l-2.8,1.2l-2.6,1.4l-2.5,1.6l-2.4,1.7l-2.2,2l-2.1,2.1l-2,2.2l-1.7,2.4l-1.6,2.5
	l-1.4,2.7l-1.2,2.7l-1,2.8l-0.7,2.8l-0.6,3l-0.3,2.9l-0.1,3l0.1,2.9l0.3,3l0.6,2.9l0.7,2.9l1,2.8l1.2,2.7l1.4,2.6l1.6,2.5l1.7,2.4
	l2,2.3l2.1,2.1l2.2,1.9l2.4,1.8l2.5,1.5l2.6,1.4l2.8,1.2l2.8,1l2.8,0.8l3,0.5l2.9,0.3L-1626.9,1102.9"/>
<g>
	<path class="st0" d="M-1066.1,436.7h-24.7 M-1090.8,450.9v-14.2 M-1090.8,450.9h14.1 M-1076.7,450.9v8.5 M-1076.7,459.4h-28.3
		 M-1105,459.4V536 M-1105,536h28.3 M-1076.7,536v8.5 M-1076.7,544.5h-14.1 M-1090.8,558.6v-14.1 M-1090.8,558.6h24.7
		 M-1066.1,558.6l85.2-34.7 M-980.9,523.9l1.7-0.7l1.7-0.9l1.6-1.1l1.6-1.1l1.5-1.2l1.4-1.3l1.3-1.4l1.2-1.5l1.1-1.6l0.9-1.6
		l0.9-1.7l0.8-1.8l0.6-1.8l0.5-1.9l0.4-1.8l0.3-1.9l0.1-2v-1.9l-0.1-1.9l-0.3-1.9l-0.4-1.9l-0.5-1.8l-0.6-1.8l-0.8-1.8l-0.9-1.7
		l-0.9-1.6l-1.1-1.6l-1.2-1.5l-1.3-1.4l-1.4-1.3l-1.5-1.3l-1.6-1.1l-1.6-1l-1.7-0.9l-1.7-0.8 M-980.9,471.4l-85.2-34.7
		 M-980.3,497.7l-0.1-1.2l-0.1-1.2l-0.4-1.2l-0.4-1.1l-0.6-1.1l-0.6-1l-0.8-0.9l-0.9-0.9l-0.9-0.7l-1-0.6l-1.1-0.6l-1.2-0.4
		l-1.1-0.3l-1.2-0.1l-1.2-0.1l-1.2,0.1l-1.2,0.3l-1.2,0.3l-1.1,0.5l-1,0.6l-1,0.7l-0.9,0.8l-0.9,0.8l-0.7,1l-0.6,1.1l-0.5,1.1
		l-0.4,1.1l-0.2,1.2l-0.2,1.2v1.2l0.2,1.2l0.2,1.2l0.4,1.1l0.5,1.1l0.6,1.1l0.7,0.9l0.9,0.9l0.9,0.8l1,0.7l1,0.6l1.1,0.4l1.2,0.4
		l1.2,0.2l1.2,0.1h1.2l1.2-0.2l1.1-0.3l1.2-0.4l1.1-0.5l1-0.6l0.9-0.8l0.9-0.8l0.8-1l0.6-1l0.6-1l0.4-1.2l0.4-1.1l0.1-1.2
		L-980.3,497.7"/>
	<path class="st0" d="M-1002.2,659.6h24.7 M-977.5,645.4v14.2 M-977.5,645.4h-14.1 M-991.6,645.4v-8.5 M-991.6,636.9h28.3
		 M-963.3,636.9v-76.6 M-963.3,560.3h-28.3 M-991.6,560.3v-8.5 M-991.6,551.8h14.1 M-977.5,537.7v14.1 M-977.5,537.7h-24.7
		 M-1002.2,537.7l-85.2,34.7 M-1087.4,572.4l-1.7,0.7l-1.7,0.9l-1.6,1.1l-1.6,1.1l-1.5,1.2l-1.4,1.3l-1.3,1.4l-1.2,1.5l-1.1,1.6
		l-0.9,1.6l-0.9,1.7l-0.8,1.8l-0.6,1.8l-0.5,1.9l-0.4,1.8l-0.3,1.9l-0.1,2v1.9l0.1,1.9l0.3,1.9l0.4,1.9l0.5,1.8l0.6,1.8l0.8,1.8
		l0.9,1.7l0.9,1.6l1.1,1.6l1.2,1.5l1.3,1.4l1.4,1.3l1.5,1.3l1.6,1.1l1.6,1l1.7,0.9l1.7,0.8 M-1087.4,624.9l85.2,34.7 M-1088,598.6
		l0.1,1.2l0.1,1.2l0.4,1.2l0.4,1.1l0.6,1.1l0.6,1l0.8,0.9l0.9,0.9l0.9,0.7l1,0.6l1.1,0.6l1.2,0.4l1.1,0.3l1.2,0.1l1.2,0.1l1.2-0.1
		l1.2-0.3l1.2-0.3l1.1-0.5l1-0.6l1-0.7l0.9-0.8l0.9-0.8l0.7-1l0.6-1.1l0.5-1.1l0.4-1.1l0.2-1.2l0.2-1.2V598l-0.2-1.2l-0.2-1.2
		l-0.4-1.1l-0.5-1.1l-0.6-1.1l-0.7-0.9l-0.9-0.9l-0.9-0.8l-1-0.7l-1-0.6l-1.1-0.4l-1.2-0.4l-1.2-0.2l-1.2-0.1h-1.2l-1.2,0.2
		l-1.1,0.3l-1.2,0.4l-1.1,0.5l-1,0.6l-0.9,0.8l-0.9,0.8l-0.8,1l-0.6,1l-0.6,1l-0.4,1.2l-0.4,1.1l-0.1,1.2L-1088,598.6"/>
</g>
<path class="st0" d="M992.9,154.8l-0.2-2.2l-0.7-2.1l-1.1-1.9l-1.5-1.7l-1.8-1.3l-2-0.9l-2.2-0.4h-2.2l-2.2,0.4l-2,0.9l-1.8,1.3
	l-1.5,1.7l-1.1,1.9l-0.7,2.1l-0.3,2.2l0.3,2.3l0.7,2.1l1.1,1.9l1.5,1.6l1.8,1.3l2,1l2.2,0.4h2.2l2.2-0.4l2-1l1.8-1.3l1.5-1.6
	l1.1-1.9l0.7-2.1L992.9,154.8 M1191.3,154.8l-0.2-2.2l-0.7-2.1l-1.1-1.9l-1.5-1.7l-1.8-1.3l-2-0.9l-2.2-0.4h-2.2l-2.2,0.4l-2,0.9
	l-1.8,1.3l-1.5,1.7l-1.1,1.9l-0.7,2.1l-0.2,2.2l0.2,2.3l0.7,2.1l1.1,1.9l1.5,1.6l1.8,1.3l2,1l2.2,0.4h2.2l2.2-0.4l2-1l1.8-1.3
	l1.5-1.6l1.1-1.9l0.7-2.1L1191.3,154.8 M795.2,176.1l-0.2-2.3l-0.7-2.2l-1.1-2l-1.5-1.7l-1.9-1.4l-2-1l-2.2-0.6l-2.3-0.1l-2.3,0.3
	l-2.1,0.8l-2,1.2l-1.7,1.6l-1.3,1.9l-0.9,2.1l-0.4,2.3v2.2l0.4,2.3l0.9,2.1l1.3,1.9l1.7,1.6l2,1.2l2.1,0.8l2.3,0.3l2.3-0.1l2.2-0.6
	l2-1l1.9-1.4l1.5-1.7l1.1-2l0.7-2.2L795.2,176.1 M783.8,126.5l-4.8,0.2l-4.8,0.7l-4.8,1.2l-4.5,1.7l-4.4,2.1l-4.2,2.5l-3.9,2.9
	l-3.6,3.2l-3.3,3.6l-2.9,3.9l-2.5,4.2l-2.1,4.4l-1.6,4.6l-1.2,4.7l-0.7,4.8l-0.3,4.9l0.3,4.9l0.7,4.8l1.2,4.7l1.6,4.6l2.1,4.4
	l2.5,4.2l2.9,3.9l3.3,3.6l3.6,3.2l3.9,2.9l4.2,2.6l4.4,2l4.5,1.7l4.8,1.2l4.8,0.7l4.8,0.2 M783.8,225.7h567 M1350.8,225.7l4.8-0.2
	l4.9-0.7l4.7-1.2l4.6-1.7l4.4-2l4.1-2.6l3.9-2.9l3.7-3.2l3.2-3.6l2.9-3.9l2.5-4.2l2.1-4.4l1.6-4.6l1.2-4.7l0.7-4.8l0.3-4.9l-0.3-4.9
	l-0.7-4.8l-1.2-4.7l-1.6-4.6l-2.1-4.4l-2.5-4.2l-2.9-3.9l-3.2-3.6l-3.7-3.2l-3.9-2.9l-4.1-2.5l-4.4-2.1l-4.6-1.7l-4.7-1.2l-4.9-0.7
	l-4.8-0.2 M1350.8,126.5h-567 M1362.1,176.1l-0.2-2.3l-0.7-2.2l-1.1-2l-1.5-1.7l-1.8-1.4l-2.1-1l-2.2-0.6l-2.3-0.1l-2.3,0.3
	l-2.1,0.8l-2,1.2l-1.6,1.6l-1.3,1.9l-0.9,2.1l-0.5,2.3v2.2l0.5,2.3l0.9,2.1l1.3,1.9l1.6,1.6l2,1.2l2.1,0.8l2.3,0.3l2.3-0.1l2.2-0.6
	l2.1-1l1.8-1.4l1.5-1.7l1.1-2l0.7-2.2L1362.1,176.1"/>
<path class="st0" d="M985.9,47.8l-0.2-2.2l-0.7-2.1l-1.1-1.9l-1.5-1.7l-1.8-1.3l-2-0.9l-2.2-0.4h-2.2l-2.2,0.4l-2,0.9l-1.8,1.3
	l-1.5,1.7l-1.1,1.9l-0.7,2.1l-0.3,2.2l0.3,2.3l0.7,2.1l1.1,1.9l1.5,1.6L970,57l2,1l2.2,0.4h2.2l2.2-0.4l2-1l1.8-1.3l1.5-1.6l1.1-1.9
	l0.7-2.1L985.9,47.8 M1184.3,47.8l-0.2-2.2l-0.7-2.1l-1.1-1.9l-1.5-1.7l-1.8-1.3l-2-0.9l-2.2-0.4h-2.2l-2.2,0.4l-2,0.9l-1.8,1.3
	l-1.5,1.7l-1.1,1.9l-0.7,2.1l-0.2,2.2l0.2,2.3l0.7,2.1l1.1,1.9l1.5,1.6l1.8,1.3l2,1l2.2,0.4h2.2l2.2-0.4l2-1l1.8-1.3l1.5-1.6
	l1.1-1.9l0.7-2.1L1184.3,47.8 M788.2,69.1l-0.2-2.3l-0.7-2.2l-1.1-2l-1.5-1.7l-1.9-1.4l-2-1l-2.2-0.6l-2.3-0.1l-2.3,0.3l-2.1,0.8
	l-2,1.2l-1.7,1.6l-1.3,1.9l-0.9,2.1l-0.4,2.3v2.2l0.4,2.3l0.9,2.1l1.3,1.9l1.7,1.6l2,1.2l2.1,0.8l2.3,0.3l2.3-0.1l2.2-0.6l2-1
	l1.9-1.4l1.5-1.7l1.1-2l0.7-2.2L788.2,69.1 M776.8,19.5l-4.8,0.2l-4.8,0.7l-4.8,1.2l-4.5,1.7l-4.4,2.1l-4.2,2.5l-3.9,2.9l-3.6,3.2
	l-3.3,3.6l-2.9,3.9l-2.5,4.2l-2.1,4.4l-1.6,4.6l-1.2,4.7l-0.7,4.8l-0.3,4.9l0.3,4.9l0.7,4.8l1.2,4.7l1.6,4.6l2.1,4.4l2.5,4.2
	l2.9,3.9l3.3,3.6l3.6,3.2l3.9,2.9l4.2,2.6l4.4,2l4.5,1.7l4.8,1.2l4.8,0.7l4.8,0.2 M776.8,118.7h567 M1343.8,118.7l4.8-0.2l4.9-0.7
	l4.7-1.2l4.6-1.7l4.4-2l4.1-2.6l3.9-2.9l3.7-3.2l3.2-3.6l2.9-3.9l2.5-4.2l2.1-4.4l1.6-4.6l1.2-4.7l0.7-4.8l0.3-4.9l-0.3-4.9
	l-0.7-4.8l-1.2-4.7l-1.6-4.6l-2.1-4.4l-2.5-4.2l-2.9-3.9l-3.2-3.6l-3.7-3.2l-3.9-2.9l-4.1-2.5l-4.4-2.1l-4.6-1.7l-4.7-1.2l-4.9-0.7
	l-4.8-0.2 M1343.8,19.5h-567 M1355.1,69.1l-0.2-2.3l-0.7-2.2l-1.1-2l-1.5-1.7l-1.8-1.4l-2.1-1l-2.2-0.6l-2.3-0.1l-2.3,0.3l-2.1,0.8
	l-2,1.2l-1.6,1.6l-1.3,1.9l-0.9,2.1l-0.5,2.3v2.2l0.5,2.3l0.9,2.1l1.3,1.9l1.6,1.6l2,1.2l2.1,0.8l2.3,0.3l2.3-0.1l2.2-0.6l2.1-1
	l1.8-1.4l1.5-1.7l1.1-2l0.7-2.2L1355.1,69.1"/>
<path class="st0" d="M350.6,232.6h42.6 M350.6,232.6v-17 M350.6,215.6h42.6 M393.2,232.6v-17 M449.9,232.6h42.5 M449.9,232.6v-17
	 M449.9,215.6h42.5 M492.4,232.6v-17 M690.8,11.5h-652 M38.8,11.5l-4,0.3l-4,0.8L27.1,14l-3.6,2l-3.2,2.4l-2.9,2.8L15,24.5L13.1,28
	l-1.5,3.8l-0.8,4l-0.3,4 M10.5,39.8v368.5 M10.5,408.3l0.3,4l0.8,4l1.5,3.8l1.9,3.5l2.4,3.3l2.9,2.8l3.2,2.5l3.6,1.9l3.7,1.4l4,0.9
	l4,0.3 M38.8,436.7h652 M690.8,436.7l4-0.3l4-0.9l3.8-1.4l3.5-1.9l3.3-2.5l2.8-2.8l2.5-3.3l1.9-3.5l1.4-3.8l0.9-4l0.3-4
	 M719.2,408.3V39.8 M719.2,39.8l-0.3-4l-0.9-4l-1.4-3.8l-1.9-3.5l-2.5-3.3l-2.8-2.8l-3.3-2.4l-3.5-2l-3.8-1.4l-4-0.8l-4-0.3"/>
<text transform="matrix(1 0 0 1 -1708.5645 -77.0331)" style="font-family:'MyriadPro-Regular'; font-size:250.3696px;">3mm</text>
<text transform="matrix(1 0 0 1 1.269531e-04 -77.033)" style="font-family:'MyriadPro-Regular'; font-size:250.3696px;">6mm</text>
</svg>
