<?xml version="1.0" encoding="UTF-8" standalone="no"?>
<!-- Generator: Adobe Illustrator 21.0.0, SVG Export Plug-In . SVG Version: 6.00 Build 0)  -->

<svg
   xmlns:dc="http://purl.org/dc/elements/1.1/"
   xmlns:cc="http://creativecommons.org/ns#"
   xmlns:rdf="http://www.w3.org/1999/02/22-rdf-syntax-ns#"
   xmlns:svg="http://www.w3.org/2000/svg"
   xmlns="http://www.w3.org/2000/svg"
   xmlns:sodipodi="http://sodipodi.sourceforge.net/DTD/sodipodi-0.dtd"
   xmlns:inkscape="http://www.inkscape.org/namespaces/inkscape"
   version="1.1"
   x="0px"
   y="0px"
   viewBox="0 0 1729.1 1295.4"
   style="enable-background:new 0 0 1729.1 1295.4;"
   xml:space="preserve"
   id="svg232"
   sodipodi:docname="Lampe LED plexiglass.svg"
   inkscape:version="0.92.3 (2405546, 2018-03-11)"><metadata
   id="metadata238"><rdf:RDF><cc:Work
       rdf:about=""><dc:format>image/svg+xml</dc:format><dc:type
         rdf:resource="http://purl.org/dc/dcmitype/StillImage" /></cc:Work></rdf:RDF></metadata><defs
   id="defs236">
	
	
	
	
	
	
	
	
	
	
	
	
	
	
	
</defs><sodipodi:namedview
   pagecolor="#ffffff"
   bordercolor="#666666"
   borderopacity="1"
   objecttolerance="10"
   gridtolerance="10"
   guidetolerance="10"
   inkscape:pageopacity="0"
   inkscape:pageshadow="2"
   inkscape:window-width="1920"
   inkscape:window-height="1017"
   id="namedview234"
   showgrid="false"
   inkscape:zoom="0.51529164"
   inkscape:cx="555.06501"
   inkscape:cy="1179.9157"
   inkscape:window-x="-8"
   inkscape:window-y="-8"
   inkscape:window-maximized="1"
   inkscape:current-layer="svg232" />
<style
   type="text/css"
   id="style2">
	.st0{fill:none;stroke:#000000;stroke-width:0.1;}
	.st1{fill:none;stroke:#000000;stroke-width:0.1;stroke-miterlimit:10;}
	.st2{opacity:0.73;fill:none;stroke:#000000;stroke-miterlimit:10;}
	.st3{fill:none;stroke:#000000;stroke-miterlimit:10;}
	.st4{fill:none;stroke:#000000;stroke-width:4;stroke-miterlimit:10;}
	.st5{font-family:'MyriadPro-Regular';}
	.st6{font-size:48.7685px;}
	.st7{font-size:33.9254px;}
</style>
<g
   id="Calque_1"
   style="fill:none;stroke:#000000;stroke-opacity:1;stroke-width:2.1;stroke-miterlimit:4;stroke-dasharray:none">
	<g
   transform="translate(22.5000185, 22.5000185) "
   id="g6"
   style="fill:none;stroke:#000000;stroke-opacity:1;stroke-width:2.1;stroke-miterlimit:4;stroke-dasharray:none">
		<polygon
   class="st0"
   points="82.8,109.3 98.3,109.3 98.3,117.8 113.9,117.8 113.9,109.3 125.3,109.3 125.3,117.8 136.6,117.8     136.6,109.3 147.9,109.3 147.9,117.8 159.3,117.8 159.3,109.3 170.6,109.3 170.6,117.8 182,117.8 182,109.3 193.3,109.3     193.3,117.8 204.6,117.8 204.6,109.3 216,109.3 216,117.8 227.3,117.8 227.3,109.3 238.7,109.3 238.7,117.8 250,117.8 250,109.3     261.3,109.3 261.3,117.8 272.7,117.8 272.7,109.3 284,109.3 284,117.8 295.4,117.8 295.4,109.3 306.7,109.3 306.7,117.8     318,117.8 318,109.3 329.4,109.3 329.4,117.8 340.7,117.8 340.7,109.3 352,109.3 352,117.8 367.6,117.8 367.6,109.3 383.2,109.3     383.2,120.6 374.7,120.6 374.7,132 383.2,132 383.2,143.3 374.7,143.3 374.7,154.6 383.2,154.6 383.2,166 367.6,166 367.6,157.5     352,157.5 352,166 340.7,166 340.7,157.5 329.4,157.5 329.4,166 318,166 318,157.5 306.7,157.5 306.7,166 295.4,166 295.4,157.5     284,157.5 284,166 272.7,166 272.7,157.5 261.3,157.5 261.3,166 250,166 250,157.5 238.7,157.5 238.7,166 227.3,166 227.3,157.5     216,157.5 216,166 204.6,166 204.6,157.5 193.3,157.5 193.3,166 182,166 182,157.5 170.6,157.5 170.6,166 159.3,166 159.3,157.5     147.9,157.5 147.9,166 136.6,166 136.6,157.5 125.3,157.5 125.3,166 113.9,166 113.9,157.5 98.3,157.5 98.3,166 82.8,166     82.8,154.6 91.3,154.6 91.3,143.3 82.8,143.3 82.8,132 91.3,132 91.3,120.6 82.8,120.6   "
   id="polygon4"
   style="fill:none;stroke:#000000;stroke-opacity:1;stroke-width:2.1;stroke-miterlimit:4;stroke-dasharray:none" />
	</g>
	<g
   transform="translate(773.6817384999999, 22.5000185) "
   id="g10"
   style="fill:none;stroke:#000000;stroke-opacity:1;stroke-width:2.1;stroke-miterlimit:4;stroke-dasharray:none">
		<polygon
   class="st0"
   points="-736.1,49.4 -729,49.4 -729,57.9 -713.5,57.9 -713.5,49.4 -702.1,49.4 -702.1,57.9 -686.5,57.9     -686.5,49.4 -679.4,49.4 -679.4,60.7 -670.9,60.7 -670.9,72.1 -679.4,72.1 -679.4,83.4 -670.9,83.4 -670.9,94.7 -679.4,94.7     -679.4,106.1 -686.5,106.1 -686.5,97.6 -702.1,97.6 -702.1,106.1 -713.5,106.1 -713.5,97.6 -729,97.6 -729,106.1 -736.1,106.1     -736.1,94.7 -744.6,94.7 -744.6,83.4 -736.1,83.4 -736.1,72.1 -744.6,72.1 -744.6,60.7 -736.1,60.7   "
   id="polygon8"
   style="fill:none;stroke:#000000;stroke-opacity:1;stroke-width:2.1;stroke-miterlimit:4;stroke-dasharray:none" />
	</g>
	<g
   id="g16"
   style="fill:none;stroke:#000000;stroke-opacity:1;stroke-width:2.1;stroke-miterlimit:4;stroke-dasharray:none">
		<g
   transform="translate(398.0908785, 22.5000185) "
   id="g14"
   style="fill:none;stroke:#000000;stroke-opacity:1;stroke-width:2.1;stroke-miterlimit:4;stroke-dasharray:none">
			<polygon
   class="st0"
   points="-292.8,49.4 -277.2,49.4 -277.2,57.9 -261.7,57.9 -261.7,49.4 -250.3,49.4 -250.3,57.9 -239,57.9      -239,49.4 -227.6,49.4 -227.6,57.9 -216.3,57.9 -216.3,49.4 -205,49.4 -205,57.9 -193.6,57.9 -193.6,49.4 -182.3,49.4      -182.3,57.9 -170.9,57.9 -170.9,49.4 -159.6,49.4 -159.6,57.9 -148.3,57.9 -148.3,49.4 -136.9,49.4 -136.9,57.9 -125.6,57.9      -125.6,49.4 -114.3,49.4 -114.3,57.9 -102.9,57.9 -102.9,49.4 -91.6,49.4 -91.6,57.9 -80.2,57.9 -80.2,49.4 -68.9,49.4      -68.9,57.9 -57.6,57.9 -57.6,49.4 -46.2,49.4 -46.2,57.9 -34.9,57.9 -34.9,49.4 -23.5,49.4 -23.5,57.9 -8,57.9 -8,49.4 7.6,49.4      7.6,60.7 -0.9,60.7 -0.9,72.1 7.6,72.1 7.6,83.4 -0.9,83.4 -0.9,94.7 7.6,94.7 7.6,106.1 -8,106.1 -8,97.6 -23.5,97.6      -23.5,106.1 -34.9,106.1 -34.9,97.6 -46.2,97.6 -46.2,106.1 -57.6,106.1 -57.6,97.6 -68.9,97.6 -68.9,106.1 -80.2,106.1      -80.2,97.6 -91.6,97.6 -91.6,106.1 -102.9,106.1 -102.9,97.6 -114.3,97.6 -114.3,106.1 -125.6,106.1 -125.6,97.6 -136.9,97.6      -136.9,106.1 -148.3,106.1 -148.3,97.6 -159.6,97.6 -159.6,106.1 -170.9,106.1 -170.9,97.6 -182.3,97.6 -182.3,106.1      -193.6,106.1 -193.6,97.6 -205,97.6 -205,106.1 -216.3,106.1 -216.3,97.6 -227.6,97.6 -227.6,106.1 -239,106.1 -239,97.6      -250.3,97.6 -250.3,106.1 -261.7,106.1 -261.7,97.6 -277.2,97.6 -277.2,106.1 -292.8,106.1 -292.8,94.7 -284.3,94.7 -284.3,83.4      -292.8,83.4 -292.8,72.1 -284.3,72.1 -284.3,60.7 -292.8,60.7    "
   id="polygon12"
   style="fill:none;stroke:#000000;stroke-opacity:1;stroke-width:2.1;stroke-miterlimit:4;stroke-dasharray:none" />
		</g>
	</g>
	<g
   id="g24"
   style="fill:none;stroke:#000000;stroke-opacity:1;stroke-width:2.1;stroke-miterlimit:4;stroke-dasharray:none">
		<g
   transform="translate(398.0908785, 93.3662185) "
   id="g20"
   style="fill:none;stroke:#000000;stroke-opacity:1;stroke-width:2.1;stroke-miterlimit:4;stroke-dasharray:none">
			<polygon
   class="st0"
   points="-360.5,110 -353.5,110 -353.5,101.5 -337.9,101.5 -337.9,110 -326.5,110 -326.5,101.5 -315.2,101.5      -315.2,110 -303.9,110 -303.9,101.5 -292.5,101.5 -292.5,110 -281.2,110 -281.2,101.5 -269.8,101.5 -269.8,110 -258.5,110      -258.5,101.5 -247.2,101.5 -247.2,110 -235.8,110 -235.8,101.5 -224.5,101.5 -224.5,110 -213.1,110 -213.1,101.5 -201.8,101.5      -201.8,110 -190.5,110 -190.5,101.5 -179.1,101.5 -179.1,110 -167.8,110 -167.8,101.5 -156.5,101.5 -156.5,110 -145.1,110      -145.1,101.5 -133.8,101.5 -133.8,110 -122.4,110 -122.4,101.5 -111.1,101.5 -111.1,110 -99.8,110 -99.8,101.5 -84.2,101.5      -84.2,110 -77.1,110 -77.1,117.1 -68.6,117.1 -68.6,132.7 -77.1,132.7 -77.1,144.1 -68.6,144.1 -68.6,159.7 -77.1,159.7      -77.1,166.7 -84.2,166.7 -84.2,175.2 -99.8,175.2 -99.8,166.7 -111.1,166.7 -111.1,175.2 -122.4,175.2 -122.4,166.7      -133.8,166.7 -133.8,175.2 -145.1,175.2 -145.1,166.7 -156.5,166.7 -156.5,175.2 -167.8,175.2 -167.8,166.7 -179.1,166.7      -179.1,175.2 -190.5,175.2 -190.5,166.7 -201.8,166.7 -201.8,175.2 -213.1,175.2 -213.1,166.7 -224.5,166.7 -224.5,175.2      -235.8,175.2 -235.8,166.7 -247.2,166.7 -247.2,175.2 -258.5,175.2 -258.5,166.7 -269.8,166.7 -269.8,175.2 -281.2,175.2      -281.2,166.7 -292.5,166.7 -292.5,175.2 -303.9,175.2 -303.9,166.7 -315.2,166.7 -315.2,175.2 -326.5,175.2 -326.5,166.7      -337.9,166.7 -337.9,175.2 -353.5,175.2 -353.5,166.7 -360.5,166.7 -360.5,159.7 -369,159.7 -369,144.1 -360.5,144.1      -360.5,132.7 -369,132.7 -369,117.1 -360.5,117.1    "
   id="polygon18"
   style="fill:none;stroke:#000000;stroke-opacity:1;stroke-width:2.1;stroke-miterlimit:4;stroke-dasharray:none" />
		</g>
		<rect
   x="65.9"
   y="227.8"
   class="st0"
   width="226.8"
   height="7.9"
   id="rect22"
   style="fill:none;stroke:#000000;stroke-opacity:1;stroke-width:2.1;stroke-miterlimit:4;stroke-dasharray:none" />
	</g>
	<g
   id="g32"
   style="fill:none;stroke:#000000;stroke-opacity:1;stroke-width:2.1;stroke-miterlimit:4;stroke-dasharray:none">
		<g
   transform="translate(773.6817384999999, 93.3662185) "
   id="g28"
   style="fill:none;stroke:#000000;stroke-opacity:1;stroke-width:2.1;stroke-miterlimit:4;stroke-dasharray:none">
			<polygon
   class="st0"
   points="-736.1,35.2 -729,35.2 -729,43.7 -713.5,43.7 -713.5,35.2 -702.1,35.2 -702.1,43.7 -686.5,43.7      -686.5,35.2 -679.4,35.2 -679.4,46.6 -670.9,46.6 -670.9,57.9 -679.4,57.9 -679.4,69.2 -670.9,69.2 -670.9,80.6 -679.4,80.6      -679.4,91.9 -686.5,91.9 -686.5,83.4 -702.1,83.4 -702.1,91.9 -713.5,91.9 -713.5,83.4 -729,83.4 -729,91.9 -736.1,91.9      -736.1,80.6 -744.6,80.6 -744.6,69.2 -736.1,69.2 -736.1,57.9 -744.6,57.9 -744.6,46.6 -736.1,46.6    "
   id="polygon26"
   style="fill:none;stroke:#000000;stroke-opacity:1;stroke-width:2.1;stroke-miterlimit:4;stroke-dasharray:none" />
		</g>
		<rect
   x="74.8"
   y="162.7"
   class="st0"
   width="8.5"
   height="14.1"
   id="rect30"
   style="fill:none;stroke:#000000;stroke-opacity:1;stroke-width:2.1;stroke-miterlimit:4;stroke-dasharray:none" />
	</g>
</g>
<g
   id="Calque_4"
   style="fill:none;stroke:#000000;stroke-opacity:1;stroke-width:2.1;stroke-miterlimit:4;stroke-dasharray:none">
	<g
   id="g155"
   style="fill:none;stroke:#000000;stroke-opacity:1;stroke-width:2.1;stroke-miterlimit:4;stroke-dasharray:none">
		<g
   id="g95"
   style="fill:none;stroke:#000000;stroke-opacity:1;stroke-width:2.1;stroke-miterlimit:4;stroke-dasharray:none">
			<g
   transform="translate(22.5000185, 93.3662185) "
   id="g91"
   style="fill:none;stroke:#000000;stroke-opacity:1;stroke-width:2.1;stroke-miterlimit:4;stroke-dasharray:none">
				<polyline
   class="st0"
   points="46.9,262.1 55.5,262.1 55.5,255 62.5,255 62.5,246.5     "
   id="polyline35"
   style="fill:none;stroke:#000000;stroke-opacity:1;stroke-width:2.1;stroke-miterlimit:4;stroke-dasharray:none" />
				<polyline
   class="st0"
   points="46.9,289 55.5,289 55.5,277.7 46.9,277.7     "
   id="polyline37"
   style="fill:none;stroke:#000000;stroke-opacity:1;stroke-width:2.1;stroke-miterlimit:4;stroke-dasharray:none" />
				<polyline
   class="st0"
   points="62.5,320.2 62.5,311.7 55.5,311.7 55.5,304.6 46.9,304.6     "
   id="polyline39"
   style="fill:none;stroke:#000000;stroke-opacity:1;stroke-width:2.1;stroke-miterlimit:4;stroke-dasharray:none" />
				<polyline
   class="st0"
   points="89.5,320.2 89.5,311.7 78.1,311.7 78.1,320.2     "
   id="polyline41"
   style="fill:none;stroke:#000000;stroke-opacity:1;stroke-width:2.1;stroke-miterlimit:4;stroke-dasharray:none" />
				<polyline
   class="st0"
   points="112.1,320.2 112.1,311.7 100.8,311.7 100.8,320.2     "
   id="polyline43"
   style="fill:none;stroke:#000000;stroke-opacity:1;stroke-width:2.1;stroke-miterlimit:4;stroke-dasharray:none" />
				<polyline
   class="st0"
   points="134.8,320.2 134.8,311.7 123.5,311.7 123.5,320.2     "
   id="polyline45"
   style="fill:none;stroke:#000000;stroke-opacity:1;stroke-width:2.1;stroke-miterlimit:4;stroke-dasharray:none" />
				<polyline
   class="st0"
   points="157.5,320.2 157.5,311.7 146.2,311.7 146.2,320.2     "
   id="polyline47"
   style="fill:none;stroke:#000000;stroke-opacity:1;stroke-width:2.1;stroke-miterlimit:4;stroke-dasharray:none" />
				<polyline
   class="st0"
   points="180.2,320.2 180.2,311.7 168.8,311.7 168.8,320.2     "
   id="polyline49"
   style="fill:none;stroke:#000000;stroke-opacity:1;stroke-width:2.1;stroke-miterlimit:4;stroke-dasharray:none" />
				<polyline
   class="st0"
   points="202.9,320.2 202.9,311.7 191.5,311.7 191.5,320.2     "
   id="polyline51"
   style="fill:none;stroke:#000000;stroke-opacity:1;stroke-width:2.1;stroke-miterlimit:4;stroke-dasharray:none" />
				<polyline
   class="st0"
   points="225.5,320.2 225.5,311.7 214.2,311.7 214.2,320.2     "
   id="polyline53"
   style="fill:none;stroke:#000000;stroke-opacity:1;stroke-width:2.1;stroke-miterlimit:4;stroke-dasharray:none" />
				<polyline
   class="st0"
   points="248.2,320.2 248.2,311.7 236.9,311.7 236.9,320.2     "
   id="polyline55"
   style="fill:none;stroke:#000000;stroke-opacity:1;stroke-width:2.1;stroke-miterlimit:4;stroke-dasharray:none" />
				<polyline
   class="st0"
   points="270.9,320.2 270.9,311.7 259.5,311.7 259.5,320.2     "
   id="polyline57"
   style="fill:none;stroke:#000000;stroke-opacity:1;stroke-width:2.1;stroke-miterlimit:4;stroke-dasharray:none" />
				<polyline
   class="st0"
   points="293.6,320.2 293.6,311.7 282.2,311.7 282.2,320.2     "
   id="polyline59"
   style="fill:none;stroke:#000000;stroke-opacity:1;stroke-width:2.1;stroke-miterlimit:4;stroke-dasharray:none" />
				<polyline
   class="st0"
   points="316.2,320.2 316.2,311.7 304.9,311.7 304.9,320.2     "
   id="polyline61"
   style="fill:none;stroke:#000000;stroke-opacity:1;stroke-width:2.1;stroke-miterlimit:4;stroke-dasharray:none" />
				<polyline
   class="st0"
   points="347.4,304.6 338.9,304.6 338.9,311.7 331.8,311.7 331.8,320.2     "
   id="polyline63"
   style="fill:none;stroke:#000000;stroke-opacity:1;stroke-width:2.1;stroke-miterlimit:4;stroke-dasharray:none" />
				<polyline
   class="st0"
   points="347.4,277.7 338.9,277.7 338.9,289 347.4,289     "
   id="polyline65"
   style="fill:none;stroke:#000000;stroke-opacity:1;stroke-width:2.1;stroke-miterlimit:4;stroke-dasharray:none" />
				<polyline
   class="st0"
   points="331.8,246.5 331.8,255 338.9,255 338.9,262.1 347.4,262.1     "
   id="polyline67"
   style="fill:none;stroke:#000000;stroke-opacity:1;stroke-width:2.1;stroke-miterlimit:4;stroke-dasharray:none" />
				<polyline
   class="st0"
   points="304.9,246.5 304.9,255 316.2,255 316.2,246.5     "
   id="polyline69"
   style="fill:none;stroke:#000000;stroke-opacity:1;stroke-width:2.1;stroke-miterlimit:4;stroke-dasharray:none" />
				<polyline
   class="st0"
   points="282.2,246.5 282.2,255 293.6,255 293.6,246.5     "
   id="polyline71"
   style="fill:none;stroke:#000000;stroke-opacity:1;stroke-width:2.1;stroke-miterlimit:4;stroke-dasharray:none" />
				<polyline
   class="st0"
   points="259.5,246.5 259.5,255 270.9,255 270.9,246.5     "
   id="polyline73"
   style="fill:none;stroke:#000000;stroke-opacity:1;stroke-width:2.1;stroke-miterlimit:4;stroke-dasharray:none" />
				<polyline
   class="st0"
   points="236.9,246.5 236.9,255 248.2,255 248.2,246.5     "
   id="polyline75"
   style="fill:none;stroke:#000000;stroke-opacity:1;stroke-width:2.1;stroke-miterlimit:4;stroke-dasharray:none" />
				<polyline
   class="st0"
   points="214.2,246.5 214.2,255 225.5,255 225.5,246.5     "
   id="polyline77"
   style="fill:none;stroke:#000000;stroke-opacity:1;stroke-width:2.1;stroke-miterlimit:4;stroke-dasharray:none" />
				<polyline
   class="st0"
   points="191.5,246.5 191.5,255 202.9,255 202.9,246.5     "
   id="polyline79"
   style="fill:none;stroke:#000000;stroke-opacity:1;stroke-width:2.1;stroke-miterlimit:4;stroke-dasharray:none" />
				<polyline
   class="st0"
   points="168.8,246.5 168.8,255 180.2,255 180.2,246.5     "
   id="polyline81"
   style="fill:none;stroke:#000000;stroke-opacity:1;stroke-width:2.1;stroke-miterlimit:4;stroke-dasharray:none" />
				<polyline
   class="st0"
   points="146.2,246.5 146.2,255 157.5,255 157.5,246.5     "
   id="polyline83"
   style="fill:none;stroke:#000000;stroke-opacity:1;stroke-width:2.1;stroke-miterlimit:4;stroke-dasharray:none" />
				<polyline
   class="st0"
   points="123.5,246.5 123.5,255 134.8,255 134.8,246.5     "
   id="polyline85"
   style="fill:none;stroke:#000000;stroke-opacity:1;stroke-width:2.1;stroke-miterlimit:4;stroke-dasharray:none" />
				<polyline
   class="st0"
   points="100.8,246.5 100.8,255 112.1,255 112.1,246.5     "
   id="polyline87"
   style="fill:none;stroke:#000000;stroke-opacity:1;stroke-width:2.1;stroke-miterlimit:4;stroke-dasharray:none" />
				<polyline
   class="st0"
   points="78.1,246.5 78.1,255 89.5,255 89.5,246.5     "
   id="polyline89"
   style="fill:none;stroke:#000000;stroke-opacity:1;stroke-width:2.1;stroke-miterlimit:4;stroke-dasharray:none" />
			</g>
			<rect
   x="26.2"
   y="278.2"
   class="st0"
   width="387"
   height="197"
   id="rect93"
   style="fill:none;stroke:#000000;stroke-opacity:1;stroke-width:2.1;stroke-miterlimit:4;stroke-dasharray:none" />
		</g>
		<line
   class="st0"
   x1="100.6"
   y1="339.9"
   x2="112"
   y2="339.9"
   id="line97"
   style="fill:none;stroke:#000000;stroke-opacity:1;stroke-width:2.1;stroke-miterlimit:4;stroke-dasharray:none" />
		<line
   class="st0"
   x1="123.3"
   y1="339.9"
   x2="134.6"
   y2="339.9"
   id="line99"
   style="fill:none;stroke:#000000;stroke-opacity:1;stroke-width:2.1;stroke-miterlimit:4;stroke-dasharray:none" />
		<line
   class="st0"
   x1="146"
   y1="339.9"
   x2="157.3"
   y2="339.9"
   id="line101"
   style="fill:none;stroke:#000000;stroke-opacity:1;stroke-width:2.1;stroke-miterlimit:4;stroke-dasharray:none" />
		<line
   class="st0"
   x1="168.7"
   y1="339.9"
   x2="180"
   y2="339.9"
   id="line103"
   style="fill:none;stroke:#000000;stroke-opacity:1;stroke-width:2.1;stroke-miterlimit:4;stroke-dasharray:none" />
		<line
   class="st0"
   x1="191.3"
   y1="339.9"
   x2="202.7"
   y2="339.9"
   id="line105"
   style="fill:none;stroke:#000000;stroke-opacity:1;stroke-width:2.1;stroke-miterlimit:4;stroke-dasharray:none" />
		<line
   class="st0"
   x1="214"
   y1="339.9"
   x2="225.4"
   y2="339.9"
   id="line107"
   style="fill:none;stroke:#000000;stroke-opacity:1;stroke-width:2.1;stroke-miterlimit:4;stroke-dasharray:none" />
		<line
   class="st0"
   x1="236.7"
   y1="339.9"
   x2="248"
   y2="339.9"
   id="line109"
   style="fill:none;stroke:#000000;stroke-opacity:1;stroke-width:2.1;stroke-miterlimit:4;stroke-dasharray:none" />
		<line
   class="st0"
   x1="259.4"
   y1="339.9"
   x2="270.7"
   y2="339.9"
   id="line111"
   style="fill:none;stroke:#000000;stroke-opacity:1;stroke-width:2.1;stroke-miterlimit:4;stroke-dasharray:none" />
		<line
   class="st0"
   x1="282"
   y1="339.9"
   x2="293.4"
   y2="339.9"
   id="line113"
   style="fill:none;stroke:#000000;stroke-opacity:1;stroke-width:2.1;stroke-miterlimit:4;stroke-dasharray:none" />
		<line
   class="st0"
   x1="304.7"
   y1="339.9"
   x2="316.1"
   y2="339.9"
   id="line115"
   style="fill:none;stroke:#000000;stroke-opacity:1;stroke-width:2.1;stroke-miterlimit:4;stroke-dasharray:none" />
		<line
   class="st0"
   x1="327.4"
   y1="339.9"
   x2="338.7"
   y2="339.9"
   id="line117"
   style="fill:none;stroke:#000000;stroke-opacity:1;stroke-width:2.1;stroke-miterlimit:4;stroke-dasharray:none" />
		<path
   class="st0"
   d="M354.3,339.9"
   id="path119"
   style="fill:none;stroke:#000000;stroke-opacity:1;stroke-width:2.1;stroke-miterlimit:4;stroke-dasharray:none" />
		<polyline
   class="st0"
   points="369.9,355.5 369.9,339.9 354.3,339.9   "
   id="polyline121"
   style="fill:none;stroke:#000000;stroke-opacity:1;stroke-width:2.1;stroke-miterlimit:4;stroke-dasharray:none" />
		<line
   class="st0"
   x1="369.9"
   y1="371.1"
   x2="369.9"
   y2="382.4"
   id="line123"
   style="fill:none;stroke:#000000;stroke-opacity:1;stroke-width:2.1;stroke-miterlimit:4;stroke-dasharray:none" />
		<polyline
   class="st0"
   points="369.9,398 369.9,413.6 354.3,413.6   "
   id="polyline125"
   style="fill:none;stroke:#000000;stroke-opacity:1;stroke-width:2.1;stroke-miterlimit:4;stroke-dasharray:none" />
		<line
   class="st0"
   x1="338.7"
   y1="413.6"
   x2="327.4"
   y2="413.6"
   id="line127"
   style="fill:none;stroke:#000000;stroke-opacity:1;stroke-width:2.1;stroke-miterlimit:4;stroke-dasharray:none" />
		<line
   class="st0"
   x1="316.1"
   y1="413.6"
   x2="304.7"
   y2="413.6"
   id="line129"
   style="fill:none;stroke:#000000;stroke-opacity:1;stroke-width:2.1;stroke-miterlimit:4;stroke-dasharray:none" />
		<line
   class="st0"
   x1="293.4"
   y1="413.6"
   x2="282"
   y2="413.6"
   id="line131"
   style="fill:none;stroke:#000000;stroke-opacity:1;stroke-width:2.1;stroke-miterlimit:4;stroke-dasharray:none" />
		<line
   class="st0"
   x1="270.7"
   y1="413.6"
   x2="259.4"
   y2="413.6"
   id="line133"
   style="fill:none;stroke:#000000;stroke-opacity:1;stroke-width:2.1;stroke-miterlimit:4;stroke-dasharray:none" />
		<line
   class="st0"
   x1="248"
   y1="413.6"
   x2="236.7"
   y2="413.6"
   id="line135"
   style="fill:none;stroke:#000000;stroke-opacity:1;stroke-width:2.1;stroke-miterlimit:4;stroke-dasharray:none" />
		<line
   class="st0"
   x1="225.4"
   y1="413.6"
   x2="214"
   y2="413.6"
   id="line137"
   style="fill:none;stroke:#000000;stroke-opacity:1;stroke-width:2.1;stroke-miterlimit:4;stroke-dasharray:none" />
		<line
   class="st0"
   x1="202.7"
   y1="413.6"
   x2="191.3"
   y2="413.6"
   id="line139"
   style="fill:none;stroke:#000000;stroke-opacity:1;stroke-width:2.1;stroke-miterlimit:4;stroke-dasharray:none" />
		<line
   class="st0"
   x1="180"
   y1="413.6"
   x2="168.7"
   y2="413.6"
   id="line141"
   style="fill:none;stroke:#000000;stroke-opacity:1;stroke-width:2.1;stroke-miterlimit:4;stroke-dasharray:none" />
		<line
   class="st0"
   x1="157.3"
   y1="413.6"
   x2="146"
   y2="413.6"
   id="line143"
   style="fill:none;stroke:#000000;stroke-opacity:1;stroke-width:2.1;stroke-miterlimit:4;stroke-dasharray:none" />
		<line
   class="st0"
   x1="134.6"
   y1="413.6"
   x2="123.3"
   y2="413.6"
   id="line145"
   style="fill:none;stroke:#000000;stroke-opacity:1;stroke-width:2.1;stroke-miterlimit:4;stroke-dasharray:none" />
		<line
   class="st0"
   x1="112"
   y1="413.6"
   x2="100.6"
   y2="413.6"
   id="line147"
   style="fill:none;stroke:#000000;stroke-opacity:1;stroke-width:2.1;stroke-miterlimit:4;stroke-dasharray:none" />
		<polyline
   class="st0"
   points="85,413.6 69.4,413.6 69.4,398   "
   id="polyline149"
   style="fill:none;stroke:#000000;stroke-opacity:1;stroke-width:2.1;stroke-miterlimit:4;stroke-dasharray:none" />
		<line
   class="st0"
   x1="69.4"
   y1="382.4"
   x2="69.4"
   y2="371.1"
   id="line151"
   style="fill:none;stroke:#000000;stroke-opacity:1;stroke-width:2.1;stroke-miterlimit:4;stroke-dasharray:none" />
		<polyline
   class="st0"
   points="69.4,355.5 69.4,339.9 85,339.9   "
   id="polyline153"
   style="fill:none;stroke:#000000;stroke-opacity:1;stroke-width:2.1;stroke-miterlimit:4;stroke-dasharray:none" />
	</g>
</g>
<g
   id="Calque_3">
</g>
<g
   id="g170"
   style="fill:none;stroke:#000000;stroke-opacity:1;stroke-width:2.1;stroke-miterlimit:4;stroke-dasharray:none">
		<g
   id="XMLID_1_"
   style="fill:none;stroke:#000000;stroke-opacity:1;stroke-width:2.1;stroke-miterlimit:4;stroke-dasharray:none">
			<g
   id="g159"
   style="fill:none;stroke:#000000;stroke-opacity:1;stroke-width:2.1;stroke-miterlimit:4;stroke-dasharray:none">
			</g>
			<g
   id="g163"
   style="fill:none;stroke:#000000;stroke-opacity:1;stroke-width:2.1;stroke-miterlimit:4;stroke-dasharray:none">
				<polyline
   style="fill:none;stroke:#000000;stroke-width:2.1;stroke-miterlimit:4;stroke-opacity:1;stroke-dasharray:none"
   id="polyline161"
   points="634.9,106.1 634.9,115.1 861.7,115.1 861.7,106.1     "
   class="st1" />
			</g>
		</g>
		<polyline
   style="fill:none;stroke:#000000;stroke-width:2.1;stroke-opacity:1;stroke-miterlimit:4;stroke-dasharray:none"
   id="polyline166"
   points="861.7,106.1 864.6,106.1 864.6,100.2 834.7,100.2 834.7,106.1 704.3,106.1   "
   class="st0" />
		<polyline
   style="fill:none;stroke:#000000;stroke-width:2.1;stroke-opacity:1;stroke-miterlimit:4;stroke-dasharray:none"
   id="polyline168"
   points="634.9,106.1 632.1,106.1 632.1,100.3 662,100.3 661.9,106.1 704.3,106.1   "
   class="st0" />
	</g><path
   style="opacity:0.73000004;fill:none;stroke:#000000;stroke-miterlimit:10"
   inkscape:connector-curvature="0"
   id="path172"
   d="m -79.6,-411 c -18.5,3.7 -33,9 -48.5,20.6 -13.5,10.1 -32.8,30.4 -23.6,47.6 13.7,25.5 34.2,-3.4 42.6,-15.9 9.6,-14.4 19.6,-31.8 38.8,-34.8 8.2,-1.3 30.5,-20.8 -9.3,-17.5 z"
   class="st2" /><path
   style="fill:none;stroke:#000000;stroke-miterlimit:10"
   inkscape:connector-curvature="0"
   id="path174"
   d="m -23.7,-368.1 c 1.1,5.7 6.5,7.4 11.3,11.9 9.6,8.9 15.6,17.1 20.5,29.1 9.8,24 8.4,46.4 2.4,70.9 19.1,-19.1 21.4,-58 16,-82.3 -3,-13.2 -8.9,-24.4 -20.4,-33 -7.5,-5.6 -31.8,-15 -29.8,3.4 z"
   class="st3" /><g
   id="g191">
		<g
   id="XMLID_5_">
			<g
   id="g182">
				<path
   inkscape:connector-curvature="0"
   id="path176"
   d="m 44.4,-300.3 c 0,45.5 -43.8,70.7 -56.6,107.2 -0.7,1.8 -0.7,3.7 -0.5,5.6 l -2.6,0.2 c -0.4,-3.2 -0.5,-6.3 0.7,-9.7 12.3,-34.8 54.4,-58.7 54.4,-102 0,-65.8 -50.3,-119 -112.3,-119 -62,0 -112.3,53.3 -112.3,119 0,43.3 42.1,67.3 54.4,102 1.1,3 1,6.4 0.4,9.9 l -2.3,-0.3 c 0.2,-1.9 0.2,-3.8 -0.5,-5.6 -12.8,-36.5 -56.6,-61.7 -56.6,-107.2 0,-69.1 52.3,-125.1 116.9,-125.1 64.6,0 116.9,55.9 116.9,125 z" />
				<path
   inkscape:connector-curvature="0"
   id="path178"
   d="m -12.7,-187.4 c 0.8,6.1 4.9,12.5 4.9,19.2 0,20 -8.1,37.9 -21.1,50.4 5.3,3.2 8.7,8.3 8.7,14 0,5.9 -3.6,11.1 -9.1,14.3 4.2,2.3 6.8,5.7 6.8,9.5 0,3.9 -2.8,7.4 -7.3,9.7 l -0.3,-0.4 c 2.8,-2.1 5.7,-4.3 5.7,-8 0,-5.3 -5.4,-7.4 -7.5,-11.5 5.6,-0.8 8.9,-8.6 8.7,-13.1 -0.3,-5.3 -3.4,-9.1 -8.3,-11.6 -0.1,0 -0.1,0.1 -0.1,0.1 3.2,6.9 -4.7,14.5 -11.6,16.9 -9,3.2 -18.9,4.9 -28.2,6.9 8.3,2 17.8,0.5 25.6,4.5 3.5,1.8 7.5,5.5 5.6,9.6 -2,4.2 -8.2,3.2 -11.6,5.2 2.5,0.3 7.2,0.1 8.7,2.5 2.1,3.4 -2.5,6.3 -5.3,7.4 -6.9,2.6 -16,3.1 -23.3,2.4 4.8,2.3 10.6,2.4 11.2,6.7 h -44.6 c -10.7,0 -19.4,-5 -19.4,-11.1 0,-2.8 1.9,-5.4 4.9,-7.4 -3.7,-2.3 -6,-5.5 -6,-9 0,-3.8 2.7,-7.1 6.8,-9.5 -5.5,-3.1 -9.1,-8.4 -9.1,-14.3 0,-6.6 4.4,-12.3 10.9,-15.2 -12.3,-12.4 -20,-29.8 -20,-49.2 0,-6.7 4.1,-13.1 4.9,-19.2 l 2.3,0.3 c -0.7,5 -2.3,10.2 -2.3,15.1 0,35.8 25.4,63.4 59.8,63.4 34.3,0 58.6,-30.7 58.6,-66.5 0,-4.5 -1,-8.3 -1.4,-12.1 z" />
				<path
   inkscape:connector-curvature="0"
   id="path180"
   d="m -29.9,-70.4 c 2.4,1.9 3.9,4.2 3.9,6.7 0,5.6 -7.3,10.2 -16.7,11 0.2,-0.3 0.5,-0.4 1.9,-1 1.4,-0.7 3,-0.9 4.5,-1.6 2.9,-1.3 6.3,-2.9 7.1,-6.1 0.9,-3.4 -1.6,-4.9 -3.4,-7.4 0.7,-0.7 1.5,-1.3 2.3,-1.9 z" />
			</g>
			<g
   id="g188">
				<path
   style="fill:none;stroke:#000000;stroke-miterlimit:10"
   inkscape:connector-curvature="0"
   id="path184"
   d="m -15.3,-187.3 c -0.4,-3.2 -0.5,-6.3 0.7,-9.7 12.3,-34.8 54.4,-58.7 54.4,-102 0,-65.8 -50.3,-119 -112.3,-119 -62,0 -112.3,53.3 -112.3,119 0,43.3 42.1,67.3 54.4,102 1.1,3 1,6.4 0.4,9.9 -0.7,5 -2.3,10.2 -2.3,15.1 0,35.8 25.4,63.4 59.8,63.4 34.3,0 58.6,-30.7 58.6,-66.5 0,-4.5 -0.9,-8.4 -1.4,-12.2 z"
   class="st3" />
				<path
   style="fill:none;stroke:#000000;stroke-miterlimit:10"
   inkscape:connector-curvature="0"
   id="path186"
   d="m -12.7,-187.4 c -0.2,-1.9 -0.2,-3.8 0.5,-5.6 12.8,-36.5 56.6,-61.7 56.6,-107.2 0,-69.1 -52.3,-125.1 -116.9,-125.1 -64.6,0 -116.9,56 -116.9,125.1 0,45.5 43.8,70.7 56.6,107.2 0.6,1.8 0.7,3.7 0.5,5.6 -0.8,6.1 -4.9,12.5 -4.9,19.2 0,19.3 7.7,36.8 20,49.2 -6.5,3 -10.9,8.7 -10.9,15.2 0,5.9 3.6,11.2 9.1,14.3 -4.2,2.3 -6.8,5.7 -6.8,9.5 0,3.5 2.3,6.7 6,9 -3,2 -4.9,4.5 -4.9,7.4 0,6.1 8.7,11.1 19.4,11.1 h 44.6 c -0.6,-4.3 -6.4,-4.4 -11.2,-6.7 7.3,0.7 16.4,0.2 23.3,-2.4 2.8,-1.1 7.3,-4 5.3,-7.4 -1.5,-2.4 -6.1,-2.2 -8.7,-2.5 3.4,-2 9.6,-1 11.6,-5.2 1.9,-4.1 -2.1,-7.8 -5.6,-9.6 -7.8,-4 -17.3,-2.5 -25.6,-4.5 9.4,-2 19.2,-3.8 28.2,-6.9 6.9,-2.4 14.8,-10 11.6,-16.9 0,0 0.1,-0.1 0.1,-0.1 4.9,2.5 8,6.3 8.3,11.6 0.2,4.5 -3,12.3 -8.7,13.1 2.1,4.1 7.5,6.2 7.5,11.5 0,3.7 -2.9,5.8 -5.7,8 -0.8,0.6 -1.6,1.2 -2.3,1.9 1.7,2.5 4.3,4 3.4,7.4 -0.8,3.2 -4.2,4.7 -7.1,6.1 -1.5,0.7 -3.1,0.9 -4.5,1.6 -1.4,0.6 -1.7,0.7 -1.9,1 9.4,-0.8 16.7,-5.4 16.7,-11 0,-2.5 -1.5,-4.8 -3.9,-6.7 4.5,-2.3 7.3,-5.8 7.3,-9.7 0,-3.8 -2.6,-7.1 -6.8,-9.5 5.5,-3.2 9.1,-8.4 9.1,-14.3 0,-5.8 -3.4,-10.9 -8.7,-14 13,-12.5 21.1,-30.4 21.1,-50.4 0.1,-6.9 -4.1,-13.3 -4.8,-19.3 z"
   class="st3" />
			</g>
		</g>
	</g><g
   id="XMLID_4_"
   style="fill:none;fill-opacity:0.22047059;stroke:#000000;stroke-opacity:1;stroke-width:2;stroke-miterlimit:4;stroke-dasharray:none">
		<g
   id="g193"
   style="fill:none;fill-opacity:0.22047059;stroke:#000000;stroke-opacity:1;stroke-width:2;stroke-miterlimit:4;stroke-dasharray:none">
		</g>
		<g
   id="g197"
   style="fill:none;fill-opacity:0.22047059;stroke:#000000;stroke-opacity:1;stroke-width:2;stroke-miterlimit:4;stroke-dasharray:none">
			<polyline
   style="fill:none;stroke:#000000;stroke-width:2;stroke-miterlimit:4;fill-opacity:0.22047059;stroke-opacity:1;stroke-dasharray:none"
   id="polyline195"
   points="-185.9,-54.3 -185.9,-45.3 40.9,-45.3 40.9,-54.3    "
   class="st1" />
		</g>
	</g><path
   inkscape:connector-curvature="0"
   id="path200"
   d="m -127.8,-230.1 -1.7,-1.4 c 1.1,-1.1 2.5,-1.3 3.9,-1.6 0.7,-0.1 1.5,-0.2 2.3,-0.5 3.5,-1.1 7.2,-3.6 10.5,-5.8 0.7,-0.5 1.3,-0.9 1.9,-1.3 2.8,-1.8 5.3,-3.9 7.5,-6.1 -1.2,-1.6 -2.1,-3.5 -2.7,-5.5 -1.6,-5.3 -0.6,-10.5 2.6,-13.8 1.8,-1.9 5.1,-3.7 8,-3.2 1.2,0.2 2.8,0.9 3.8,3.1 1.4,3.3 -3.2,12 -4.2,13.6 -1.2,2 -2.7,3.9 -4.5,5.8 1.6,1.8 3.6,3 5.7,3.6 5.8,1.6 11,-0.5 14.4,-2.6 1.7,-1 3.4,-2.3 4.8,-3.7 -1.5,-2.2 -2.6,-4.8 -2.9,-7.7 -0.1,-0.5 -1.6,-12.8 4.6,-16 2.4,-1.2 4.1,-0.7 5,-0.1 3.4,2.2 3.1,8.9 2.8,11.3 -0.6,4.3 -3,8.8 -6.5,12.5 1.9,2.2 4.5,3.7 7.5,4.4 4.3,0.9 8.5,-0.2 11.8,-3.1 -2.7,-4.3 -3.2,-9.5 -1.3,-15 0.1,-0.3 2.7,-7.8 6.8,-8.2 1.6,-0.2 3.1,0.8 4.2,2.7 3.5,5.8 -3.7,16.5 -5.2,18.6 -0.5,0.7 -1.1,1.4 -1.7,2 2.9,3.6 7.6,6 13.4,6.8 3.5,0.5 14.9,1.7 20.3,-1.6 0.3,-0.3 0.7,-0.6 1.1,-0.8 l 7.8,-3.8 -6.5,5.5 c -0.3,0.2 -0.6,0.5 -0.9,0.7 0,0 0,0 0,0 v 0 c -5.8,3.7 -17.2,2.7 -22.1,2 -6.3,-0.8 -11.4,-3.4 -14.7,-7.3 -3.8,3.2 -8.7,4.5 -13.7,3.4 -3.4,-0.7 -6.3,-2.5 -8.5,-4.9 -1.5,1.4 -3.2,2.7 -5,3.8 -5.3,3.2 -11.1,4.2 -16.2,2.8 -2.5,-0.7 -4.7,-2.1 -6.6,-4.1 -2.2,2.2 -4.8,4.2 -7.6,6.1 -0.6,0.4 -1.2,0.8 -1.9,1.3 -3.4,2.3 -7.2,4.9 -11.1,6.1 -1,0.3 -1.8,0.4 -2.6,0.6 -1.4,0.7 -2.1,0.9 -2.6,1.4 z m 31.2,-37 c -1.6,0 -3.8,1 -5.3,2.5 -2.7,2.8 -3.5,7.2 -2.1,11.8 0.5,1.6 1.2,3.1 2.1,4.4 1.5,-1.7 2.9,-3.4 3.9,-5.1 1.8,-3 4.9,-9.9 4.1,-11.8 -0.4,-1 -1.1,-1.6 -2.1,-1.8 -0.2,0 -0.4,0 -0.6,0 z m 49,-1.8 c -0.1,0 -0.1,0 0,0 -1.7,0.2 -3.9,3.6 -4.9,6.7 -1.6,4.7 -1.3,9 0.8,12.7 0.4,-0.4 0.7,-0.9 1,-1.3 3,-4.2 7.5,-12.5 5.1,-16.4 -0.6,-0.8 -1.3,-1.7 -2,-1.7 z m -23.6,-2.7 c -0.4,0 -1,0.1 -1.7,0.5 -3.6,1.8 -4,9.4 -3.4,13.8 0.3,2.3 1.1,4.5 2.3,6.3 3,-3.4 5,-7.3 5.6,-11 0.5,-3.1 0.1,-8.1 -1.8,-9.3 -0.2,-0.1 -0.5,-0.3 -1,-0.3 z" /><polyline
   style="fill:none;stroke:#000000;stroke-width:4;stroke-miterlimit:10"
   id="polyline202"
   points="-22.1,-247.6 -55.8,-197.4 -55.8,-112  "
   class="st4" /><polyline
   style="fill:none;stroke:#000000;stroke-width:4;stroke-miterlimit:10"
   id="polyline204"
   points="-122.8,-246.3 -89.1,-196.1 -89.1,-111.6  "
   class="st4" /><polyline
   style="fill:none;stroke:#000000;stroke-width:2;fill-opacity:0.22047059;stroke-opacity:1;stroke-miterlimit:4;stroke-dasharray:none"
   id="polyline206"
   points="40.9,-54.3 46.6,-54.3 46.6,-60.1 13.9,-60.1 13.9,-54.3 -34.4,-54.3  "
   class="st0" /><path
   style="fill:none;stroke:#000000;stroke-width:2;fill-opacity:0.22047059;stroke-opacity:1;stroke-miterlimit:4;stroke-dasharray:none"
   inkscape:connector-curvature="0"
   id="path208"
   d="m -185.8,-54.3 h -5.7 v -5.8 h 32.7 v 5.8 h 42.4 c -4.3,-2 -8.2,-5.7 -8.2,-9.1 0,-2.8 1.9,-5.4 4.9,-7.4 -3.7,-2.3 -6,-5.5 -6,-9 0,-3.8 2.6,-7.1 6.8,-9.5 -5.5,-3.1 -9.1,-8.4 -9.1,-14.3 0,-6.6 4.4,-12.3 10.9,-15.2 -12.3,-12.4 -20,-29.8 -20,-49.2 0,-8.7 7.1,-17 4.4,-24.8 -12.8,-36.5 -56.6,-61.7 -56.6,-107.2 0,-69.1 52.3,-125.1 116.9,-125.1 64.6,0 116.9,56 116.9,125.1 0,45.5 -43.8,70.7 -56.6,107.2 -2.7,7.7 4.4,16 4.4,24.8 0,20 -8.2,37.9 -21.2,50.4 5.2,3.2 8.7,8.3 8.7,14 0,5.9 -3.6,11.1 -9.1,14.3 4.2,2.3 6.8,5.7 6.8,9.5 0,3.9 -2.8,7.4 -7.3,9.7 2.4,1.9 3.9,4.1 3.9,6.6 0,5.6 -6.5,7.9 -8.4,9.1"
   class="st0" /><text
   style="font-size:48.76850128px;font-family:MyriadPro-Regular"
   id="text210"
   class="st5 st6"
   x="39.845001"
   y="47.681">Support lampe LED</text>
<text
   style="font-size:48.76850128px;font-family:MyriadPro-Regular"
   id="text212"
   class="st5 st6"
   x="1118.2911"
   y="58.180401">Plaque plexi</text>
<text
   style="font-size:48.76850128px;font-family:MyriadPro-Regular"
   id="text214"
   class="st5 st6"
   x="617.29108"
   y="52.180199">fixation plaque plexi</text>
<g
   id="g227"
   style="fill:none;stroke:#000000;stroke-opacity:1;stroke-width:2.1;stroke-miterlimit:4;stroke-dasharray:none">
		<g
   id="g223"
   style="fill:none;stroke:#000000;stroke-opacity:1;stroke-width:2.1;stroke-miterlimit:4;stroke-dasharray:none">
			<g
   id="XMLID_2_"
   style="fill:none;stroke:#000000;stroke-opacity:1;stroke-width:2.1;stroke-miterlimit:4;stroke-dasharray:none">
				<g
   id="g216"
   style="fill:none;stroke:#000000;stroke-opacity:1;stroke-width:2.1;stroke-miterlimit:4;stroke-dasharray:none">
				</g>
				<g
   id="g220"
   style="fill:none;stroke:#000000;stroke-opacity:1;stroke-width:2.1;stroke-miterlimit:4;stroke-dasharray:none">
					<polyline
   style="fill:none;stroke:#000000;stroke-width:2.1;stroke-miterlimit:4;stroke-opacity:1;stroke-dasharray:none"
   id="polyline218"
   points="1121.1,515.2 1121.1,524.2 1347.9,524.2 1347.9,515.2      "
   class="st1" />
				</g>
			</g>
		</g>
		<polyline
   style="fill:none;stroke:#000000;stroke-width:2.1;stroke-miterlimit:4;stroke-opacity:1;stroke-dasharray:none"
   id="polyline225"
   points="1347.8,515.2 1350.7,515.2 1350.7,509.3 1350.8,155.6 1118.3,155.6 1118.3,509.3 1118.3,515.2     1121.2,515.2   "
   class="st1" />
	</g><text
   style="font-size:33.92539978px;font-family:MyriadPro-Regular"
   id="text229"
   class="st5 st7"
   x="1395.582"
   y="58.180401">Taille max : 82 * 130</text>

</svg>