  0
SECTION
  2
HEADER
  9
$ACADVER
  1
AC1024
  9
$ACADMAINTVER
 70
     6
  9
$DWGCODEPAGE
  3
ANSI_1252
  9
$INSBASE
 10
0.0
 20
0.0
 30
0.0
  9
$EXTMIN
 10
1.000000000000000E+20
 20
1.000000000000000E+20
 30
1.000000000000000E+20
  9
$EXTMAX
 10
-1.000000000000000E+20
 20
-1.000000000000000E+20
 30
-1.000000000000000E+20
  9
$LIMMIN
 10
0.0
 20
0.0
  9
$LIMMAX
 10
12.0
 20
9.0
  9
$ORTHOMODE
 70
     0
  9
$REGENMODE
 70
     1
  9
$FILLMODE
 70
     1
  9
$QTEXTMODE
 70
     0
  9
$MIRRTEXT
 70
     1
  9
$LTSCALE
 40
1.0
  9
$ATTMODE
 70
     1
  9
$TEXTSIZE
 40
0.2
  9
$TRACEWID
 40
0.05
  9
$TEXTSTYLE
  7
Standard
  9
$CLAYER
  8
0
  9
$CELTYPE
  6
ByLayer
  9
$CECOLOR
 62
   256
  9
$CELTSCALE
 40
1.0
  9
$DISPSILH
 70
     0
  9
$DIMSCALE
 40
1.0
  9
$DIMASZ
 40
0.18
  9
$DIMEXO
 40
0.0625
  9
$DIMDLI
 40
0.38
  9
$DIMRND
 40
0.0
  9
$DIMDLE
 40
0.0
  9
$DIMEXE
 40
0.18
  9
$DIMTP
 40
0.0
  9
$DIMTM
 40
0.0
  9
$DIMTXT
 40
0.18
  9
$DIMCEN
 40
0.09
  9
$DIMTSZ
 40
0.0
  9
$DIMTOL
 70
     0
  9
$DIMLIM
 70
     0
  9
$DIMTIH
 70
     1
  9
$DIMTOH
 70
     1
  9
$DIMSE1
 70
     0
  9
$DIMSE2
 70
     0
  9
$DIMTAD
 70
     0
  9
$DIMZIN
 70
     0
  9
$DIMBLK
  1

  9
$DIMASO
 70
     1
  9
$DIMSHO
 70
     1
  9
$DIMPOST
  1

  9
$DIMAPOST
  1

  9
$DIMALT
 70
     0
  9
$DIMALTD
 70
     2
  9
$DIMALTF
 40
25.4
  9
$DIMLFAC
 40
1.0
  9
$DIMTOFL
 70
     0
  9
$DIMTVP
 40
0.0
  9
$DIMTIX
 70
     0
  9
$DIMSOXD
 70
     0
  9
$DIMSAH
 70
     0
  9
$DIMBLK1
  1

  9
$DIMBLK2
  1

  9
$DIMSTYLE
  2
Standard
  9
$DIMCLRD
 70
     0
  9
$DIMCLRE
 70
     0
  9
$DIMCLRT
 70
     0
  9
$DIMTFAC
 40
1.0
  9
$DIMGAP
 40
0.09
  9
$DIMJUST
 70
     0
  9
$DIMSD1
 70
     0
  9
$DIMSD2
 70
     0
  9
$DIMTOLJ
 70
     1
  9
$DIMTZIN
 70
     0
  9
$DIMALTZ
 70
     0
  9
$DIMALTTZ
 70
     0
  9
$DIMUPT
 70
     0
  9
$DIMDEC
 70
     4
  9
$DIMTDEC
 70
     4
  9
$DIMALTU
 70
     2
  9
$DIMALTTD
 70
     2
  9
$DIMTXSTY
  7
Standard
  9
$DIMAUNIT
 70
     0
  9
$DIMADEC
 70
     0
  9
$DIMALTRND
 40
0.0
  9
$DIMAZIN
 70
     0
  9
$DIMDSEP
 70
    46
  9
$DIMATFIT
 70
     3
  9
$DIMFRAC
 70
     0
  9
$DIMLDRBLK
  1

  9
$DIMLUNIT
 70
     2
  9
$DIMLWD
 70
    -2
  9
$DIMLWE
 70
    -2
  9
$DIMTMOVE
 70
     0
  9
$DIMFXL
 40
1.0
  9
$DIMFXLON
 70
     0
  9
$DIMJOGANG
 40
0.7853981633974483
  9
$DIMTFILL
 70
     0
  9
$DIMTFILLCLR
 70
     0
  9
$DIMARCSYM
 70
     0
  9
$DIMLTYPE
  6

  9
$DIMLTEX1
  6

  9
$DIMLTEX2
  6

  9
$DIMTXTDIRECTION
 70
     0
  9
$LUNITS
 70
     2
  9
$LUPREC
 70
     4
  9
$SKETCHINC
 40
0.1
  9
$FILLETRAD
 40
0.5
  9
$AUNITS
 70
     0
  9
$AUPREC
 70
     0
  9
$MENU
  1
.
  9
$ELEVATION
 40
0.0
  9
$PELEVATION
 40
0.0
  9
$THICKNESS
 40
0.0
  9
$LIMCHECK
 70
     0
  9
$CHAMFERA
 40
0.5
  9
$CHAMFERB
 40
0.5
  9
$CHAMFERC
 40
1.0
  9
$CHAMFERD
 40
0.0
  9
$SKPOLY
 70
     0
  9
$TDCREATE
 40
2458488.815356227
  9
$TDUCREATE
 40
2458488.77368956
  9
$TDUPDATE
 40
2458488.815356343
  9
$TDUUPDATE
 40
2458488.773689676
  9
$TDINDWG
 40
0.0000000116
  9
$TDUSRTIMER
 40
0.0000000116
  9
$USRTIMER
 70
     1
  9
$ANGBASE
 50
0.0
  9
$ANGDIR
 70
     0
  9
$PDMODE
 70
     0
  9
$PDSIZE
 40
0.0
  9
$PLINEWID
 40
0.0
  9
$SPLFRAME
 70
     0
  9
$SPLINETYPE
 70
     6
  9
$SPLINESEGS
 70
     8
  9
$HANDSEED
  5
194
  9
$SURFTAB1
 70
     6
  9
$SURFTAB2
 70
     6
  9
$SURFTYPE
 70
     6
  9
$SURFU
 70
     6
  9
$SURFV
 70
     6
  9
$UCSBASE
  2

  9
$UCSNAME
  2

  9
$UCSORG
 10
0.0
 20
0.0
 30
0.0
  9
$UCSXDIR
 10
1.0
 20
0.0
 30
0.0
  9
$UCSYDIR
 10
0.0
 20
1.0
 30
0.0
  9
$UCSORTHOREF
  2

  9
$UCSORTHOVIEW
 70
     0
  9
$UCSORGTOP
 10
0.0
 20
0.0
 30
0.0
  9
$UCSORGBOTTOM
 10
0.0
 20
0.0
 30
0.0
  9
$UCSORGLEFT
 10
0.0
 20
0.0
 30
0.0
  9
$UCSORGRIGHT
 10
0.0
 20
0.0
 30
0.0
  9
$UCSORGFRONT
 10
0.0
 20
0.0
 30
0.0
  9
$UCSORGBACK
 10
0.0
 20
0.0
 30
0.0
  9
$PUCSBASE
  2

  9
$PUCSNAME
  2

  9
$PUCSORG
 10
0.0
 20
0.0
 30
0.0
  9
$PUCSXDIR
 10
1.0
 20
0.0
 30
0.0
  9
$PUCSYDIR
 10
0.0
 20
1.0
 30
0.0
  9
$PUCSORTHOREF
  2

  9
$PUCSORTHOVIEW
 70
     0
  9
$PUCSORGTOP
 10
0.0
 20
0.0
 30
0.0
  9
$PUCSORGBOTTOM
 10
0.0
 20
0.0
 30
0.0
  9
$PUCSORGLEFT
 10
0.0
 20
0.0
 30
0.0
  9
$PUCSORGRIGHT
 10
0.0
 20
0.0
 30
0.0
  9
$PUCSORGFRONT
 10
0.0
 20
0.0
 30
0.0
  9
$PUCSORGBACK
 10
0.0
 20
0.0
 30
0.0
  9
$USERI1
 70
     0
  9
$USERI2
 70
     0
  9
$USERI3
 70
     0
  9
$USERI4
 70
     0
  9
$USERI5
 70
     0
  9
$USERR1
 40
0.0
  9
$USERR2
 40
0.0
  9
$USERR3
 40
0.0
  9
$USERR4
 40
0.0
  9
$USERR5
 40
0.0
  9
$WORLDVIEW
 70
     1
  9
$SHADEDGE
 70
     3
  9
$SHADEDIF
 70
    70
  9
$TILEMODE
 70
     1
  9
$MAXACTVP
 70
    64
  9
$PINSBASE
 10
0.0
 20
0.0
 30
0.0
  9
$PLIMCHECK
 70
     0
  9
$PEXTMIN
 10
1.000000000000000E+20
 20
1.000000000000000E+20
 30
1.000000000000000E+20
  9
$PEXTMAX
 10
-1.000000000000000E+20
 20
-1.000000000000000E+20
 30
-1.000000000000000E+20
  9
$PLIMMIN
 10
0.0
 20
0.0
  9
$PLIMMAX
 10
12.0
 20
9.0
  9
$UNITMODE
 70
     0
  9
$VISRETAIN
 70
     1
  9
$PLINEGEN
 70
     0
  9
$PSLTSCALE
 70
     1
  9
$TREEDEPTH
 70
  3020
  9
$CMLSTYLE
  2
Standard
  9
$CMLJUST
 70
     0
  9
$CMLSCALE
 40
1.0
  9
$PROXYGRAPHICS
 70
     1
  9
$MEASUREMENT
 70
     0
  9
$CELWEIGHT
370
    -1
  9
$ENDCAPS
280
     0
  9
$JOINSTYLE
280
     0
  9
$LWDISPLAY
290
     1
  9
$INSUNITS
 70
     1
  9
$HYPERLINKBASE
  1

  9
$STYLESHEET
  1

  9
$XEDIT
290
     1
  9
$CEPSNTYPE
380
     0
  9
$PSTYLEMODE
290
     1
  9
$FINGERPRINTGUID
  2
{D14E4EF7-F6CC-4BA0-B3A6-39FA179EB849}
  9
$VERSIONGUID
  2
{FAEB1C32-E019-11D5-929B-00C0DF256EC4}
  9
$EXTNAMES
290
     1
  9
$PSVPSCALE
 40
0.0
  9
$OLESTARTUP
290
     0
  9
$SORTENTS
280
   127
  9
$INDEXCTL
280
     0
  9
$HIDETEXT
280
     1
  9
$XCLIPFRAME
280
     2
  9
$HALOGAP
280
     0
  9
$OBSCOLOR
 70
   257
  9
$OBSLTYPE
280
     0
  9
$INTERSECTIONDISPLAY
280
     0
  9
$INTERSECTIONCOLOR
 70
   257
  9
$DIMASSOC
280
     2
  9
$PROJECTNAME
  1

  9
$CAMERADISPLAY
290
     0
  9
$LENSLENGTH
 40
50.0
  9
$CAMERAHEIGHT
 40
0.0
  9
$STEPSPERSEC
 40
2.0
  9
$STEPSIZE
 40
6.0
  9
$3DDWFPREC
 40
2.0
  9
$PSOLWIDTH
 40
0.25
  9
$PSOLHEIGHT
 40
4.0
  9
$LOFTANG1
 40
1.570796326794897
  9
$LOFTANG2
 40
1.570796326794897
  9
$LOFTMAG1
 40
0.0
  9
$LOFTMAG2
 40
0.0
  9
$LOFTPARAM
 70
     7
  9
$LOFTNORMALS
280
     1
  9
$LATITUDE
 40
37.795
  9
$LONGITUDE
 40
-122.394
  9
$NORTHDIRECTION
 40
0.0
  9
$TIMEZONE
 70
 -8000
  9
$LIGHTGLYPHDISPLAY
280
     1
  9
$TILEMODELIGHTSYNCH
280
     1
  9
$CMATERIAL
347
3C
  9
$SOLIDHIST
280
     1
  9
$SHOWHIST
280
     1
  9
$DWFFRAME
280
     2
  9
$DGNFRAME
280
     2
  9
$REALWORLDSCALE
290
     1
  9
$INTERFERECOLOR
 62
   256
  9
$CSHADOW
280
     0
  9
$SHADOWPLANELOCATION
 40
0.0
  0
ENDSEC
  0
SECTION
  2
CLASSES
  0
CLASS
  1
ACDBDICTIONARYWDFLT
  2
AcDbDictionaryWithDefault
  3
ObjectDBX Classes
 90
        0
 91
        4
280
     0
281
     0
  0
CLASS
  1
VISUALSTYLE
  2
AcDbVisualStyle
  3
ObjectDBX Classes
 90
     4095
 91
        4
280
     0
281
     0
  0
CLASS
  1
MATERIAL
  2
AcDbMaterial
  3
ObjectDBX Classes
 90
     1153
 91
        4
280
     0
281
     0
  0
CLASS
  1
SUN
  2
AcDbSun
  3
SCENEOE
 90
     1024
 91
        4
280
     0
281
     0
  0
ENDSEC
  0
SECTION
  2
TABLES
  0
TABLE
  2
VPORT
  5
8
330
0
100
AcDbSymbolTable
 70
     1
  0
VPORT
  5
29
330
8
100
AcDbSymbolTableRecord
100
AcDbViewportTableRecord
  2
*Active
 70
     0
 10
0.0
 20
0.0
 11
1.0
 21
1.0
 12
0.0
 22
0.0
 13
0.0
 23
0.0
 14
0.5
 24
0.5
 15
0.5
 25
0.5
 16
0.0
 26
0.0
 36
1.0
 17
304.9993193681946
 27
-228.4994582762087
 37
0.0
 40
899.9999997750004
 41
0.6666666666666663
 42
50.0
 43
0.0
 44
0.0
 50
0.0
 51
0.0
 71
     0
 72
   100
 73
     1
 74
     3
 75
     0
 76
     0
 77
     0
 78
     0
281
     0
 65
     1
110
0.0
120
0.0
130
0.0
111
1.0
121
0.0
131
0.0
112
0.0
122
1.0
132
0.0
 79
     0
146
0.0
 60
     3
 61
     5
292
     1
282
     1
141
0.0
142
0.0
 63
   250
361
3F
  0
ENDTAB
  0
TABLE
  2
LTYPE
  5
5
330
0
100
AcDbSymbolTable
 70
     1
  0
LTYPE
  5
14
330
5
100
AcDbSymbolTableRecord
100
AcDbLinetypeTableRecord
  2
ByBlock
 70
     0
  3

 72
    65
 73
     0
 40
0.0
  0
LTYPE
  5
15
330
5
100
AcDbSymbolTableRecord
100
AcDbLinetypeTableRecord
  2
ByLayer
 70
     0
  3

 72
    65
 73
     0
 40
0.0
  0
LTYPE
  5
16
330
5
100
AcDbSymbolTableRecord
100
AcDbLinetypeTableRecord
  2
Continuous
 70
     0
  3
Solid line
 72
    65
 73
     0
 40
0.0
  0
ENDTAB
  0
TABLE
  2
LAYER
  5
2
330
0
100
AcDbSymbolTable
 70
     2
  0
LAYER
  5
10
330
2
100
AcDbSymbolTableRecord
100
AcDbLayerTableRecord
  2
0
 70
     0
 62
     7
  6
Continuous
370
    -3
390
F
347
3E
  0
LAYER
  5
40
330
2
100
AcDbSymbolTableRecord
100
AcDbLayerTableRecord
  2
Calque 1
 70
     0
 62
     7
  6
Continuous
370
    -3
390
F
347
3E
  0
ENDTAB
  0
TABLE
  2
STYLE
  5
3
330
0
100
AcDbSymbolTable
 70
     1
  0
STYLE
  5
11
330
3
100
AcDbSymbolTableRecord
100
AcDbTextStyleTableRecord
  2
Standard
 70
     0
 40
0.0
 41
1.0
 50
0.0
 71
     0
 42
0.2
  3
txt
  4

  0
ENDTAB
  0
TABLE
  2
VIEW
  5
6
330
0
100
AcDbSymbolTable
 70
     0
  0
ENDTAB
  0
TABLE
  2
UCS
  5
7
330
0
100
AcDbSymbolTable
 70
     0
  0
ENDTAB
  0
TABLE
  2
APPID
  5
9
330
0
100
AcDbSymbolTable
 70
     1
  0
APPID
  5
12
330
9
100
AcDbSymbolTableRecord
100
AcDbRegAppTableRecord
  2
ACAD
 70
     0
  0
ENDTAB
  0
TABLE
  2
DIMSTYLE
  5
A
330
0
100
AcDbSymbolTable
 70
     1
100
AcDbDimStyleTable
  0
DIMSTYLE
105
27
330
A
100
AcDbSymbolTableRecord
100
AcDbDimStyleTableRecord
  2
Standard
 70
     0
178
     0
340
11
  0
ENDTAB
  0
TABLE
  2
BLOCK_RECORD
  5
1
330
0
100
AcDbSymbolTable
 70
     1
  0
BLOCK_RECORD
  5
1F
330
1
100
AcDbSymbolTableRecord
100
AcDbBlockTableRecord
  2
*Model_Space
340
22
 70
     0
280
     1
281
     0
  0
BLOCK_RECORD
  5
1B
330
1
100
AcDbSymbolTableRecord
100
AcDbBlockTableRecord
  2
*Paper_Space
340
1E
 70
     0
280
     1
281
     0
  0
BLOCK_RECORD
  5
23
330
1
100
AcDbSymbolTableRecord
100
AcDbBlockTableRecord
  2
*Paper_Space0
340
26
 70
     0
280
     1
281
     0
  0
ENDTAB
  0
ENDSEC
  0
SECTION
  2
BLOCKS
  0
BLOCK
  5
20
330
1F
100
AcDbEntity
  8
0
100
AcDbBlockBegin
  2
*Model_Space
 70
     0
 10
0.0
 20
0.0
 30
0.0
  3
*Model_Space
  1

  0
ENDBLK
  5
21
330
1F
100
AcDbEntity
  8
0
100
AcDbBlockEnd
  0
BLOCK
  5
1C
330
1B
100
AcDbEntity
 67
     1
  8
0
100
AcDbBlockBegin
  2
*Paper_Space
 70
     0
 10
0.0
 20
0.0
 30
0.0
  3
*Paper_Space
  1

  0
ENDBLK
  5
1D
330
1B
100
AcDbEntity
 67
     1
  8
0
100
AcDbBlockEnd
  0
BLOCK
  5
24
330
23
100
AcDbEntity
  8
0
100
AcDbBlockBegin
  2
*Paper_Space0
 70
     0
 10
0.0
 20
0.0
 30
0.0
  3
*Paper_Space0
  1

  0
ENDBLK
  5
25
330
23
100
AcDbEntity
  8
0
100
AcDbBlockEnd
  0
ENDSEC
  0
SECTION
  2
ENTITIES
  0
POLYLINE
  5
41
330
1F
100
AcDbEntity
  8
Calque 1
 62
     7
420
 16777215
370
    25
100
AcDb2dPolyline
 66
     1
 10
0.0
 20
0.0
 30
0.0
  0
VERTEX
  5
42
330
41
100
AcDbEntity
  8
Calque 1
 62
     7
420
 16777215
370
    25
100
AcDbVertex
100
AcDb2dVertex
 10
164.0048725820846
 20
-88.61245310110931
 30
0.0
  0
VERTEX
  5
43
330
41
100
AcDbEntity
  8
Calque 1
 62
     7
420
 16777215
370
    25
100
AcDbVertex
100
AcDb2dVertex
 10
170.6723811931564
 20
-88.47133337729475
 30
0.0
  0
VERTEX
  5
44
330
41
100
AcDbEntity
  8
Calque 1
 62
     7
420
 16777215
370
    25
100
AcDbVertex
100
AcDb2dVertex
 10
177.2693084104742
 20
-88.01270504082088
 30
0.0
  0
VERTEX
  5
45
330
41
100
AcDbEntity
  8
Calque 1
 62
     7
420
 16777215
370
    25
100
AcDbVertex
100
AcDb2dVertex
 10
183.8662786914855
 20
-87.30714948544171
 30
0.0
  0
VERTEX
  5
46
330
41
100
AcDbEntity
  8
Calque 1
 62
     7
420
 16777215
370
    25
100
AcDbVertex
100
AcDb2dVertex
 10
190.4279367437731
 20
-86.2840853174032
 30
0.0
  0
VERTEX
  5
47
330
41
100
AcDbEntity
  8
Calque 1
 62
     7
420
 16777215
370
    25
100
AcDbVertex
100
AcDb2dVertex
 10
196.9190564660001
 20
-84.94355560039892
 30
0.0
  0
VERTEX
  5
48
330
41
100
AcDbEntity
  8
Calque 1
 62
     7
420
 16777215
370
    25
100
AcDbVertex
100
AcDb2dVertex
 10
203.3748639595034
 20
-83.3560556007958
 30
0.0
  0
VERTEX
  5
49
330
41
100
AcDbEntity
  8
Calque 1
 62
     7
420
 16777215
370
    25
100
AcDbVertex
100
AcDb2dVertex
 10
209.7248639579159
 20
-81.48631615356358
 30
0.0
  0
VERTEX
  5
4A
330
41
100
AcDbEntity
  8
Calque 1
 62
     7
420
 16777215
370
    25
100
AcDbVertex
100
AcDb2dVertex
 10
216.0043256262679
 20
-79.29911115736559
 30
0.0
  0
VERTEX
  5
4B
330
41
100
AcDbEntity
  8
Calque 1
 62
     7
420
 16777215
370
    25
100
AcDbVertex
100
AcDb2dVertex
 10
222.1779367358356
 20
-76.86493587856876
 30
0.0
  0
VERTEX
  5
4C
330
41
100
AcDbEntity
  8
Calque 1
 62
     7
420
 16777215
370
    25
100
AcDbVertex
100
AcDb2dVertex
 10
228.245697286619
 20
-74.18383338086663
 30
0.0
  0
VERTEX
  5
4D
330
41
100
AcDbEntity
  8
Calque 1
 62
     7
420
 16777215
370
    25
100
AcDbVertex
100
AcDb2dVertex
 10
234.1723811772814
 20
-71.18522227050518
 30
0.0
  0
VERTEX
  5
4E
330
41
100
AcDbEntity
  8
Calque 1
 62
     7
420
 16777215
370
    25
100
AcDbVertex
100
AcDb2dVertex
 10
239.9932145091595
 20
-67.97495310626869
 30
0.0
  0
VERTEX
  5
4F
330
41
100
AcDbEntity
  8
Calque 1
 62
     7
420
 16777215
370
    25
100
AcDbVertex
100
AcDb2dVertex
 10
245.6376589521929
 20
-64.4824444944031
 30
0.0
  0
VERTEX
  5
50
330
41
100
AcDbEntity
  8
Calque 1
 62
     7
420
 16777215
370
    25
100
AcDbVertex
100
AcDb2dVertex
 10
251.1057145063814
 20
-60.74300866363222
 30
0.0
  0
VERTEX
  5
51
330
41
100
AcDbEntity
  8
Calque 1
 62
     7
420
 16777215
370
    25
100
AcDbVertex
100
AcDb2dVertex
 10
256.4326503367554
 20
-56.7566025502625
 30
0.0
  0
VERTEX
  5
52
330
41
100
AcDbEntity
  8
Calque 1
 62
     7
420
 16777215
370
    25
100
AcDbVertex
100
AcDb2dVertex
 10
261.5479281132544
 20
-52.55853838301775
 30
0.0
  0
VERTEX
  5
53
330
41
100
AcDbEntity
  8
Calque 1
 62
     7
420
 16777215
370
    25
100
AcDbVertex
100
AcDb2dVertex
 10
266.5220861659388
 20
-48.14881616189795
 30
0.0
  0
VERTEX
  5
54
330
41
100
AcDbEntity
  8
Calque 1
 62
     7
420
 16777215
370
    25
100
AcDbVertex
100
AcDb2dVertex
 10
271.2493169997179
 20
-43.49216672187288
 30
0.0
  0
VERTEX
  5
55
330
41
100
AcDbEntity
  8
Calque 1
 62
     7
420
 16777215
370
    25
100
AcDbVertex
100
AcDb2dVertex
 10
275.8001589446523
 20
-38.65908532930945
 30
0.0
  0
VERTEX
  5
56
330
41
100
AcDbEntity
  8
Calque 1
 62
     7
420
 16777215
370
    25
100
AcDbVertex
100
AcDb2dVertex
 10
280.1040306069877
 20
-33.61438894656455
 30
0.0
  0
VERTEX
  5
57
330
41
100
AcDbEntity
  8
Calque 1
 62
     7
420
 16777215
370
    25
100
AcDbVertex
100
AcDb2dVertex
 10
284.1962872791418
 20
-28.39326061128129
 30
0.0
  0
VERTEX
  5
58
330
41
100
AcDbEntity
  8
Calque 1
 62
     7
420
 16777215
370
    25
100
AcDbVertex
100
AcDb2dVertex
 10
288.0415306050033
 20
-22.9957864508468
 30
0.0
  0
VERTEX
  5
59
330
41
100
AcDbEntity
  8
Calque 1
 62
     7
420
 16777215
370
    25
100
AcDbVertex
100
AcDb2dVertex
 10
291.6398897756533
 20
-17.42188033787396
 30
0.0
  0
VERTEX
  5
5A
330
41
100
AcDbEntity
  8
Calque 1
 62
     7
420
 16777215
370
    25
100
AcDbVertex
100
AcDb2dVertex
 10
295.0265478287345
 20
-11.70689756478014
 30
0.0
  0
VERTEX
  5
5B
330
41
100
AcDbEntity
  8
Calque 1
 62
     7
420
 16777215
370
    25
100
AcDbVertex
100
AcDb2dVertex
 10
298.1310094978803
 20
-5.815482839147954
 30
0.0
  0
VERTEX
  5
5C
330
41
100
AcDbEntity
  8
Calque 1
 62
     7
420
 16777215
370
    25
100
AcDbVertex
100
AcDb2dVertex
 10
300.953231719397
 20
0.1817393815749629
 30
0.0
  0
VERTEX
  5
5D
330
41
100
AcDbEntity
  8
Calque 1
 62
     7
420
 16777215
370
    25
100
AcDbVertex
100
AcDb2dVertex
 10
303.5284836583148
 20
6.284769097388615
 30
0.0
  0
VERTEX
  5
5E
330
41
100
AcDbEntity
  8
Calque 1
 62
     7
420
 16777215
370
    25
100
AcDbVertex
100
AcDb2dVertex
 10
305.8215392132971
 20
12.52896160071038
 30
0.0
  0
VERTEX
  5
5F
330
41
100
AcDbEntity
  8
Calque 1
 62
     7
420
 16777215
370
    25
100
AcDbVertex
100
AcDb2dVertex
 10
307.8676675493741
 20
18.84369243409263
 30
0.0
  0
VERTEX
  5
60
330
41
100
AcDbEntity
  8
Calque 1
 62
     7
420
 16777215
370
    25
100
AcDbVertex
100
AcDb2dVertex
 10
309.5962872727918
 20
25.22896159753538
 30
0.0
  0
VERTEX
  5
61
330
41
100
AcDbEntity
  8
Calque 1
 62
     7
420
 16777215
370
    25
100
AcDbVertex
100
AcDb2dVertex
 10
311.0426675485804
 20
31.72008131976243
 30
0.0
  0
VERTEX
  5
62
330
41
100
AcDbEntity
  8
Calque 1
 62
     7
420
 16777215
370
    25
100
AcDbVertex
100
AcDb2dVertex
 10
312.2421206054636
 20
38.24647020701972
 30
0.0
  0
VERTEX
  5
63
330
41
100
AcDbEntity
  8
Calque 1
 62
     7
420
 16777215
370
    25
100
AcDbVertex
100
AcDb2dVertex
 10
313.0887528209638
 20
44.80812825930726
 30
0.0
  0
VERTEX
  5
64
330
41
100
AcDbEntity
  8
Calque 1
 62
     7
420
 16777215
370
    25
100
AcDbVertex
100
AcDb2dVertex
 10
313.6885008812522
 20
51.44032464165529
 30
0.0
  0
VERTEX
  5
65
330
41
100
AcDbEntity
  8
Calque 1
 62
     7
420
 16777215
370
    25
100
AcDbVertex
100
AcDb2dVertex
 10
313.9706972651878
 20
58.07256408769688
 30
0.0
  0
VERTEX
  5
66
330
41
100
AcDbEntity
  8
Calque 1
 62
     7
420
 16777215
370
    25
100
AcDbVertex
100
AcDb2dVertex
 10
313.9706972651878
 20
64.70480353373847
 30
0.0
  0
VERTEX
  5
67
330
41
100
AcDbEntity
  8
Calque 1
 62
     7
420
 16777215
370
    25
100
AcDbVertex
100
AcDb2dVertex
 10
313.6885008812522
 20
71.3369999160865
 30
0.0
  0
VERTEX
  5
68
330
41
100
AcDbEntity
  8
Calque 1
 62
     7
420
 16777215
370
    25
100
AcDbVertex
100
AcDb2dVertex
 10
313.0887528209638
 20
77.93397019709785
 30
0.0
  0
VERTEX
  5
69
330
41
100
AcDbEntity
  8
Calque 1
 62
     7
420
 16777215
370
    25
100
AcDbVertex
100
AcDb2dVertex
 10
312.2421206054636
 20
84.53089741441563
 30
0.0
  0
VERTEX
  5
6A
330
41
100
AcDbEntity
  8
Calque 1
 62
     7
420
 16777215
370
    25
100
AcDbVertex
100
AcDb2dVertex
 10
311.0426675485804
 20
91.05728630167292
 30
0.0
  0
VERTEX
  5
6B
330
41
100
AcDbEntity
  8
Calque 1
 62
     7
420
 16777215
370
    25
100
AcDbVertex
100
AcDb2dVertex
 10
309.5962872727918
 20
97.51313685886973
 30
0.0
  0
VERTEX
  5
6C
330
41
100
AcDbEntity
  8
Calque 1
 62
     7
420
 16777215
370
    25
100
AcDbVertex
100
AcDb2dVertex
 10
307.8676675493741
 20
103.9336751873427
 30
0.0
  0
VERTEX
  5
6D
330
41
100
AcDbEntity
  8
Calque 1
 62
     7
420
 16777215
370
    25
100
AcDbVertex
100
AcDb2dVertex
 10
305.8215392132971
 20
110.248406020725
 30
0.0
  0
VERTEX
  5
6E
330
41
100
AcDbEntity
  8
Calque 1
 62
     7
420
 16777215
370
    25
100
AcDbVertex
100
AcDb2dVertex
 10
303.5284836583148
 20
116.4925554603532
 30
0.0
  0
VERTEX
  5
6F
330
41
100
AcDbEntity
  8
Calque 1
 62
     7
420
 16777215
370
    25
100
AcDbVertex
100
AcDb2dVertex
 10
300.953231719397
 20
122.5956282398604
 30
0.0
  0
VERTEX
  5
70
330
41
100
AcDbEntity
  8
Calque 1
 62
     7
420
 16777215
370
    25
100
AcDbVertex
100
AcDb2dVertex
 10
298.1310094978803
 20
128.5928504605833
 30
0.0
  0
VERTEX
  5
71
330
41
100
AcDbEntity
  8
Calque 1
 62
     7
420
 16777215
370
    25
100
AcDbVertex
100
AcDb2dVertex
 10
295.0265478287345
 20
134.4489529574917
 30
0.0
  0
VERTEX
  5
72
330
41
100
AcDbEntity
  8
Calque 1
 62
     7
420
 16777215
370
    25
100
AcDbVertex
100
AcDb2dVertex
 10
291.6398897756533
 20
140.1992479593093
 30
0.0
  0
VERTEX
  5
73
330
41
100
AcDbEntity
  8
Calque 1
 62
     7
420
 16777215
370
    25
100
AcDbVertex
100
AcDb2dVertex
 10
288.0415306050033
 20
145.7378418435583
 30
0.0
  0
VERTEX
  5
74
330
41
100
AcDbEntity
  8
Calque 1
 62
     7
420
 16777215
370
    25
100
AcDbVertex
100
AcDb2dVertex
 10
284.1962872791418
 20
151.1706282327166
 30
0.0
  0
VERTEX
  5
75
330
41
100
AcDbEntity
  8
Calque 1
 62
     7
420
 16777215
370
    25
100
AcDbVertex
100
AcDb2dVertex
 10
280.1040306069877
 20
156.3917135043063
 30
0.0
  0
VERTEX
  5
76
330
41
100
AcDbEntity
  8
Calque 1
 62
     7
420
 16777215
370
    25
100
AcDbVertex
100
AcDb2dVertex
 10
275.8001589446523
 20
161.4364529507448
 30
0.0
  0
VERTEX
  5
77
330
41
100
AcDbEntity
  8
Calque 1
 62
     7
420
 16777215
370
    25
100
AcDbVertex
100
AcDb2dVertex
 10
271.2493169997179
 20
166.2694912796147
 30
0.0
  0
VERTEX
  5
78
330
41
100
AcDbEntity
  8
Calque 1
 62
     7
420
 16777215
370
    25
100
AcDbVertex
100
AcDb2dVertex
 10
266.5220861659388
 20
170.9261407196397
 30
0.0
  0
VERTEX
  5
79
330
41
100
AcDbEntity
  8
Calque 1
 62
     7
420
 16777215
370
    25
100
AcDbVertex
100
AcDb2dVertex
 10
261.5479281132544
 20
175.3358629407595
 30
0.0
  0
VERTEX
  5
7A
330
41
100
AcDbEntity
  8
Calque 1
 62
     7
420
 16777215
370
    25
100
AcDbVertex
100
AcDb2dVertex
 10
256.4326503367554
 20
179.5339701716979
 30
0.0
  0
VERTEX
  5
7B
330
41
100
AcDbEntity
  8
Calque 1
 62
     7
420
 16777215
370
    25
100
AcDbVertex
100
AcDb2dVertex
 10
251.1057145063814
 20
183.5202901576804
 30
0.0
  0
VERTEX
  5
7C
330
41
100
AcDbEntity
  8
Calque 1
 62
     7
420
 16777215
370
    25
100
AcDbVertex
100
AcDb2dVertex
 10
245.6376589521929
 20
187.2597690521449
 30
0.0
  0
VERTEX
  5
7D
330
41
100
AcDbEntity
  8
Calque 1
 62
     7
420
 16777215
370
    25
100
AcDbVertex
100
AcDb2dVertex
 10
239.9932145091595
 20
190.7170084989802
 30
0.0
  0
VERTEX
  5
7E
330
41
100
AcDbEntity
  8
Calque 1
 62
     7
420
 16777215
370
    25
100
AcDbVertex
100
AcDb2dVertex
 10
234.1723811772814
 20
193.962546828247
 30
0.0
  0
VERTEX
  5
7F
330
41
100
AcDbEntity
  8
Calque 1
 62
     7
420
 16777215
370
    25
100
AcDbVertex
100
AcDb2dVertex
 10
228.245697286619
 20
196.9258457098846
 30
0.0
  0
VERTEX
  5
80
330
41
100
AcDbEntity
  8
Calque 1
 62
     7
420
 16777215
370
    25
100
AcDbVertex
100
AcDb2dVertex
 10
222.1779367358356
 20
199.6423035000041
 30
0.0
  0
VERTEX
  5
81
330
41
100
AcDbEntity
  8
Calque 1
 62
     7
420
 16777215
370
    25
100
AcDbVertex
100
AcDb2dVertex
 10
216.0043256262679
 20
202.0764357151074
 30
0.0
  0
VERTEX
  5
82
330
41
100
AcDbEntity
  8
Calque 1
 62
     7
420
 16777215
370
    25
100
AcDbVertex
100
AcDb2dVertex
 10
209.7248639579159
 20
204.2636407113054
 30
0.0
  0
VERTEX
  5
83
330
41
100
AcDbEntity
  8
Calque 1
 62
     7
420
 16777215
370
    25
100
AcDbVertex
100
AcDb2dVertex
 10
203.3748639595034
 20
206.1333801585376
 30
0.0
  0
VERTEX
  5
84
330
41
100
AcDbEntity
  8
Calque 1
 62
     7
420
 16777215
370
    25
100
AcDbVertex
100
AcDb2dVertex
 10
196.9190564660001
 20
207.7208801581407
 30
0.0
  0
VERTEX
  5
85
330
41
100
AcDbEntity
  8
Calque 1
 62
     7
420
 16777215
370
    25
100
AcDbVertex
100
AcDb2dVertex
 10
190.4279367437731
 20
209.0261407101147
 30
0.0
  0
VERTEX
  5
86
330
41
100
AcDbEntity
  8
Calque 1
 62
     7
420
 16777215
370
    25
100
AcDbVertex
100
AcDb2dVertex
 10
183.8662786914855
 20
210.0492479418468
 30
0.0
  0
VERTEX
  5
87
330
41
100
AcDbEntity
  8
Calque 1
 62
     7
420
 16777215
370
    25
100
AcDbVertex
100
AcDb2dVertex
 10
177.2693084104742
 20
210.7900295985627
 30
0.0
  0
VERTEX
  5
88
330
41
100
AcDbEntity
  8
Calque 1
 62
     7
420
 16777215
370
    25
100
AcDbVertex
100
AcDb2dVertex
 10
170.6723811931564
 20
211.2486579350365
 30
0.0
  0
VERTEX
  5
89
330
41
100
AcDbEntity
  8
Calque 1
 62
     7
420
 16777215
370
    25
100
AcDbVertex
100
AcDb2dVertex
 10
164.0048725820846
 20
211.3897345951575
 30
0.0
  0
VERTEX
  5
8A
330
41
100
AcDbEntity
  8
Calque 1
 62
     7
420
 16777215
370
    25
100
AcDbVertex
100
AcDb2dVertex
 10
157.3726761997366
 20
211.2486579350365
 30
0.0
  0
VERTEX
  5
8B
330
41
100
AcDbEntity
  8
Calque 1
 62
     7
420
 16777215
370
    25
100
AcDbVertex
100
AcDb2dVertex
 10
150.7757059187252
 20
210.7900295985627
 30
0.0
  0
VERTEX
  5
8C
330
41
100
AcDbEntity
  8
Calque 1
 62
     7
420
 16777215
370
    25
100
AcDbVertex
100
AcDb2dVertex
 10
144.1787787014074
 20
210.0492479418468
 30
0.0
  0
VERTEX
  5
8D
330
41
100
AcDbEntity
  8
Calque 1
 62
     7
420
 16777215
370
    25
100
AcDbVertex
100
AcDb2dVertex
 10
137.6171206491199
 20
209.0261407101147
 30
0.0
  0
VERTEX
  5
8E
330
41
100
AcDbEntity
  8
Calque 1
 62
     7
420
 16777215
370
    25
100
AcDbVertex
100
AcDb2dVertex
 10
131.0907317618626
 20
207.7208801581407
 30
0.0
  0
VERTEX
  5
8F
330
41
100
AcDbEntity
  8
Calque 1
 62
     7
420
 16777215
370
    25
100
AcDbVertex
100
AcDb2dVertex
 10
124.670150369696
 20
206.1333801585376
 30
0.0
  0
VERTEX
  5
90
330
41
100
AcDbEntity
  8
Calque 1
 62
     7
420
 16777215
370
    25
100
AcDbVertex
100
AcDb2dVertex
 10
118.2848812062533
 20
204.2636407113054
 30
0.0
  0
VERTEX
  5
91
330
41
100
AcDbEntity
  8
Calque 1
 62
     7
420
 16777215
370
    25
100
AcDbVertex
100
AcDb2dVertex
 10
112.0407317666251
 20
202.0764357151074
 30
0.0
  0
VERTEX
  5
92
330
41
100
AcDbEntity
  8
Calque 1
 62
     7
420
 16777215
370
    25
100
AcDbVertex
100
AcDb2dVertex
 10
105.8671206570574
 20
199.6423035000041
 30
0.0
  0
VERTEX
  5
93
330
41
100
AcDbEntity
  8
Calque 1
 62
     7
420
 16777215
370
    25
100
AcDbVertex
100
AcDb2dVertex
 10
99.7993385744272
 20
196.9258457098846
 30
0.0
  0
VERTEX
  5
94
330
41
100
AcDbEntity
  8
Calque 1
 62
     7
420
 16777215
370
    25
100
AcDbVertex
100
AcDb2dVertex
 10
93.87267621561155
 20
193.962546828247
 30
0.0
  0
VERTEX
  5
95
330
41
100
AcDbEntity
  8
Calque 1
 62
     7
420
 16777215
370
    25
100
AcDbVertex
100
AcDb2dVertex
 10
88.05184288373343
 20
190.7170084989802
 30
0.0
  0
VERTEX
  5
96
330
41
100
AcDbEntity
  8
Calque 1
 62
     7
420
 16777215
370
    25
100
AcDbVertex
100
AcDb2dVertex
 10
82.40739844070009
 20
187.2597690521449
 30
0.0
  0
VERTEX
  5
97
330
41
100
AcDbEntity
  8
Calque 1
 62
     7
420
 16777215
370
    25
100
AcDbVertex
100
AcDb2dVertex
 10
76.93934288651155
 20
183.5202901576804
 30
0.0
  0
VERTEX
  5
98
330
41
100
AcDbEntity
  8
Calque 1
 62
     7
420
 16777215
370
    25
100
AcDbVertex
100
AcDb2dVertex
 10
71.61238552429077
 20
179.5339701716979
 30
0.0
  0
VERTEX
  5
99
330
41
100
AcDbEntity
  8
Calque 1
 62
     7
420
 16777215
370
    25
100
AcDbVertex
100
AcDb2dVertex
 10
66.46183858276156
 20
175.3358629407595
 30
0.0
  0
VERTEX
  5
9A
330
41
100
AcDbEntity
  8
Calque 1
 62
     7
420
 16777215
370
    25
100
AcDbVertex
100
AcDb2dVertex
 10
61.5229496951074
 20
170.9261407196397
 30
0.0
  0
VERTEX
  5
9B
330
41
100
AcDbEntity
  8
Calque 1
 62
     7
420
 16777215
370
    25
100
AcDbVertex
100
AcDb2dVertex
 10
56.79571886132827
 20
166.2694912796147
 30
0.0
  0
VERTEX
  5
9C
330
41
100
AcDbEntity
  8
Calque 1
 62
     7
420
 16777215
370
    25
100
AcDbVertex
100
AcDb2dVertex
 10
52.24489844824071
 20
161.4364529507448
 30
0.0
  0
VERTEX
  5
9D
330
41
100
AcDbEntity
  8
Calque 1
 62
     7
420
 16777215
370
    25
100
AcDbVertex
100
AcDb2dVertex
 10
47.94100525405844
 20
156.3917135043063
 30
0.0
  0
VERTEX
  5
9E
330
41
100
AcDbEntity
  8
Calque 1
 62
     7
420
 16777215
370
    25
100
AcDbVertex
100
AcDb2dVertex
 10
43.84879164559798
 20
151.1706282327166
 30
0.0
  0
VERTEX
  5
9F
330
41
100
AcDbEntity
  8
Calque 1
 62
     7
420
 16777215
370
    25
100
AcDbVertex
100
AcDb2dVertex
 10
40.00350525604281
 20
145.7378418435583
 30
0.0
  0
VERTEX
  5
A0
330
41
100
AcDbEntity
  8
Calque 1
 62
     7
420
 16777215
370
    25
100
AcDbVertex
100
AcDb2dVertex
 10
36.36989845220946
 20
140.1992479593093
 30
0.0
  0
VERTEX
  5
A1
330
41
100
AcDbEntity
  8
Calque 1
 62
     7
420
 16777215
370
    25
100
AcDbVertex
100
AcDb2dVertex
 10
33.01850956415842
 20
134.4489529574917
 30
0.0
  0
VERTEX
  5
A2
330
41
100
AcDbEntity
  8
Calque 1
 62
     7
420
 16777215
370
    25
100
AcDbVertex
100
AcDb2dVertex
 10
29.91406942685944
 20
128.5928504605833
 30
0.0
  0
VERTEX
  5
A3
330
41
100
AcDbEntity
  8
Calque 1
 62
     7
420
 16777215
370
    25
100
AcDbVertex
100
AcDb2dVertex
 10
27.09184720534278
 20
122.5956282398604
 30
0.0
  0
VERTEX
  5
A4
330
41
100
AcDbEntity
  8
Calque 1
 62
     7
420
 16777215
370
    25
100
AcDbVertex
100
AcDb2dVertex
 10
24.51655220273139
 20
116.4925554603532
 30
0.0
  0
VERTEX
  5
A5
330
41
100
AcDbEntity
  8
Calque 1
 62
     7
420
 16777215
370
    25
100
AcDbVertex
100
AcDb2dVertex
 10
22.18822748271885
 20
110.248406020725
 30
0.0
  0
VERTEX
  5
A6
330
41
100
AcDbEntity
  8
Calque 1
 62
     7
420
 16777215
370
    25
100
AcDbVertex
100
AcDb2dVertex
 10
20.17738984351855
 20
103.9336751873427
 30
0.0
  0
VERTEX
  5
A7
330
41
100
AcDbEntity
  8
Calque 1
 62
     7
420
 16777215
370
    25
100
AcDbVertex
100
AcDb2dVertex
 10
18.44879165194766
 20
97.51313685886973
 30
0.0
  0
VERTEX
  5
A8
330
41
100
AcDbEntity
  8
Calque 1
 62
     7
420
 16777215
370
    25
100
AcDbVertex
100
AcDb2dVertex
 10
16.96712067928206
 20
91.05728630167292
 30
0.0
  0
VERTEX
  5
A9
330
41
100
AcDbEntity
  8
Calque 1
 62
     7
420
 16777215
370
    25
100
AcDbVertex
100
AcDb2dVertex
 10
15.80295831927579
 20
84.53089741441563
 30
0.0
  0
VERTEX
  5
AA
330
41
100
AcDbEntity
  8
Calque 1
 62
     7
420
 16777215
370
    25
100
AcDbVertex
100
AcDb2dVertex
 10
14.92101387505183
 20
77.93397019709785
 30
0.0
  0
VERTEX
  5
AB
330
41
100
AcDbEntity
  8
Calque 1
 62
     7
420
 16777215
370
    25
100
AcDbVertex
100
AcDb2dVertex
 10
14.35655651164043
 20
71.3369999160865
 30
0.0
  0
VERTEX
  5
AC
330
41
100
AcDbEntity
  8
Calque 1
 62
     7
420
 16777215
370
    25
100
AcDbVertex
100
AcDb2dVertex
 10
14.07433859585812
 20
64.70480353373847
 30
0.0
  0
VERTEX
  5
AD
330
41
100
AcDbEntity
  8
Calque 1
 62
     7
420
 16777215
370
    25
100
AcDbVertex
100
AcDb2dVertex
 10
14.07433859585812
 20
58.07256408769688
 30
0.0
  0
VERTEX
  5
AE
330
41
100
AcDbEntity
  8
Calque 1
 62
     7
420
 16777215
370
    25
100
AcDbVertex
100
AcDb2dVertex
 10
14.35655651164043
 20
51.44032464165529
 30
0.0
  0
VERTEX
  5
AF
330
41
100
AcDbEntity
  8
Calque 1
 62
     7
420
 16777215
370
    25
100
AcDbVertex
100
AcDb2dVertex
 10
14.92101387505183
 20
44.80812825930726
 30
0.0
  0
VERTEX
  5
B0
330
41
100
AcDbEntity
  8
Calque 1
 62
     7
420
 16777215
370
    25
100
AcDbVertex
100
AcDb2dVertex
 10
15.80295831927579
 20
38.24647020701972
 30
0.0
  0
VERTEX
  5
B1
330
41
100
AcDbEntity
  8
Calque 1
 62
     7
420
 16777215
370
    25
100
AcDbVertex
100
AcDb2dVertex
 10
16.96712067928206
 20
31.72008131976243
 30
0.0
  0
VERTEX
  5
B2
330
41
100
AcDbEntity
  8
Calque 1
 62
     7
420
 16777215
370
    25
100
AcDbVertex
100
AcDb2dVertex
 10
18.44879165194766
 20
25.22896159753538
 30
0.0
  0
VERTEX
  5
B3
330
41
100
AcDbEntity
  8
Calque 1
 62
     7
420
 16777215
370
    25
100
AcDbVertex
100
AcDb2dVertex
 10
20.17738984351855
 20
18.84369243409263
 30
0.0
  0
VERTEX
  5
B4
330
41
100
AcDbEntity
  8
Calque 1
 62
     7
420
 16777215
370
    25
100
AcDbVertex
100
AcDb2dVertex
 10
22.18822748271885
 20
12.52896160071038
 30
0.0
  0
VERTEX
  5
B5
330
41
100
AcDbEntity
  8
Calque 1
 62
     7
420
 16777215
370
    25
100
AcDbVertex
100
AcDb2dVertex
 10
24.51655220273139
 20
6.284769097388615
 30
0.0
  0
VERTEX
  5
B6
330
41
100
AcDbEntity
  8
Calque 1
 62
     7
420
 16777215
370
    25
100
AcDbVertex
100
AcDb2dVertex
 10
27.09184720534278
 20
0.1817393815749629
 30
0.0
  0
VERTEX
  5
B7
330
41
100
AcDbEntity
  8
Calque 1
 62
     7
420
 16777215
370
    25
100
AcDbVertex
100
AcDb2dVertex
 10
29.91406942685944
 20
-5.815482839147954
 30
0.0
  0
VERTEX
  5
B8
330
41
100
AcDbEntity
  8
Calque 1
 62
     7
420
 16777215
370
    25
100
AcDbVertex
100
AcDb2dVertex
 10
33.01850956415842
 20
-11.70689756478014
 30
0.0
  0
VERTEX
  5
B9
330
41
100
AcDbEntity
  8
Calque 1
 62
     7
420
 16777215
370
    25
100
AcDbVertex
100
AcDb2dVertex
 10
36.36989845220946
 20
-17.42188033787396
 30
0.0
  0
VERTEX
  5
BA
330
41
100
AcDbEntity
  8
Calque 1
 62
     7
420
 16777215
370
    25
100
AcDbVertex
100
AcDb2dVertex
 10
40.00350525604281
 20
-22.9957864508468
 30
0.0
  0
VERTEX
  5
BB
330
41
100
AcDbEntity
  8
Calque 1
 62
     7
420
 16777215
370
    25
100
AcDbVertex
100
AcDb2dVertex
 10
43.84879164559798
 20
-28.39326061128129
 30
0.0
  0
VERTEX
  5
BC
330
41
100
AcDbEntity
  8
Calque 1
 62
     7
420
 16777215
370
    25
100
AcDbVertex
100
AcDb2dVertex
 10
47.94100525405844
 20
-33.61438894656455
 30
0.0
  0
VERTEX
  5
BD
330
41
100
AcDbEntity
  8
Calque 1
 62
     7
420
 16777215
370
    25
100
AcDbVertex
100
AcDb2dVertex
 10
52.24489844824071
 20
-38.65908532930945
 30
0.0
  0
VERTEX
  5
BE
330
41
100
AcDbEntity
  8
Calque 1
 62
     7
420
 16777215
370
    25
100
AcDbVertex
100
AcDb2dVertex
 10
56.79571886132827
 20
-43.49216672187288
 30
0.0
  0
VERTEX
  5
BF
330
41
100
AcDbEntity
  8
Calque 1
 62
     7
420
 16777215
370
    25
100
AcDbVertex
100
AcDb2dVertex
 10
61.5229496951074
 20
-48.14881616189795
 30
0.0
  0
VERTEX
  5
C0
330
41
100
AcDbEntity
  8
Calque 1
 62
     7
420
 16777215
370
    25
100
AcDbVertex
100
AcDb2dVertex
 10
66.46183858276156
 20
-52.55853838301775
 30
0.0
  0
VERTEX
  5
C1
330
41
100
AcDbEntity
  8
Calque 1
 62
     7
420
 16777215
370
    25
100
AcDbVertex
100
AcDb2dVertex
 10
71.61238552429077
 20
-56.7566025502625
 30
0.0
  0
VERTEX
  5
C2
330
41
100
AcDbEntity
  8
Calque 1
 62
     7
420
 16777215
370
    25
100
AcDbVertex
100
AcDb2dVertex
 10
76.93934288651155
 20
-60.74300866363222
 30
0.0
  0
VERTEX
  5
C3
330
41
100
AcDbEntity
  8
Calque 1
 62
     7
420
 16777215
370
    25
100
AcDbVertex
100
AcDb2dVertex
 10
82.40739844070009
 20
-64.4824444944031
 30
0.0
  0
VERTEX
  5
C4
330
41
100
AcDbEntity
  8
Calque 1
 62
     7
420
 16777215
370
    25
100
AcDbVertex
100
AcDb2dVertex
 10
88.05184288373343
 20
-67.97495310626869
 30
0.0
  0
VERTEX
  5
C5
330
41
100
AcDbEntity
  8
Calque 1
 62
     7
420
 16777215
370
    25
100
AcDbVertex
100
AcDb2dVertex
 10
93.87267621561155
 20
-71.18522227050518
 30
0.0
  0
VERTEX
  5
C6
330
41
100
AcDbEntity
  8
Calque 1
 62
     7
420
 16777215
370
    25
100
AcDbVertex
100
AcDb2dVertex
 10
99.7993385744272
 20
-74.18383338086663
 30
0.0
  0
VERTEX
  5
C7
330
41
100
AcDbEntity
  8
Calque 1
 62
     7
420
 16777215
370
    25
100
AcDbVertex
100
AcDb2dVertex
 10
105.8671206570574
 20
-76.86493587856876
 30
0.0
  0
VERTEX
  5
C8
330
41
100
AcDbEntity
  8
Calque 1
 62
     7
420
 16777215
370
    25
100
AcDbVertex
100
AcDb2dVertex
 10
112.0407317666251
 20
-79.29911115736559
 30
0.0
  0
VERTEX
  5
C9
330
41
100
AcDbEntity
  8
Calque 1
 62
     7
420
 16777215
370
    25
100
AcDbVertex
100
AcDb2dVertex
 10
118.2848812062533
 20
-81.48631615356358
 30
0.0
  0
VERTEX
  5
CA
330
41
100
AcDbEntity
  8
Calque 1
 62
     7
420
 16777215
370
    25
100
AcDbVertex
100
AcDb2dVertex
 10
124.670150369696
 20
-83.3560556007958
 30
0.0
  0
VERTEX
  5
CB
330
41
100
AcDbEntity
  8
Calque 1
 62
     7
420
 16777215
370
    25
100
AcDbVertex
100
AcDb2dVertex
 10
131.0907317618626
 20
-84.94355560039892
 30
0.0
  0
VERTEX
  5
CC
330
41
100
AcDbEntity
  8
Calque 1
 62
     7
420
 16777215
370
    25
100
AcDbVertex
100
AcDb2dVertex
 10
137.6171206491199
 20
-86.2840853174032
 30
0.0
  0
VERTEX
  5
CD
330
41
100
AcDbEntity
  8
Calque 1
 62
     7
420
 16777215
370
    25
100
AcDbVertex
100
AcDb2dVertex
 10
144.1787787014074
 20
-87.30714948544171
 30
0.0
  0
VERTEX
  5
CE
330
41
100
AcDbEntity
  8
Calque 1
 62
     7
420
 16777215
370
    25
100
AcDbVertex
100
AcDb2dVertex
 10
150.7757059187252
 20
-88.01270504082088
 30
0.0
  0
VERTEX
  5
CF
330
41
100
AcDbEntity
  8
Calque 1
 62
     7
420
 16777215
370
    25
100
AcDbVertex
100
AcDb2dVertex
 10
157.3726761997366
 20
-88.47133337729475
 30
0.0
  0
VERTEX
  5
D0
330
41
100
AcDbEntity
  8
Calque 1
 62
     7
420
 16777215
370
    25
100
AcDbVertex
100
AcDb2dVertex
 10
164.0048725820846
 20
-88.61245310110931
 30
0.0
  0
SEQEND
  5
D1
330
41
100
AcDbEntity
  8
Calque 1
 62
     7
420
 16777215
370
    25
  0
POLYLINE
  5
D2
330
1F
100
AcDbEntity
  8
Calque 1
 62
     7
420
 16777215
370
    25
100
AcDb2dPolyline
 66
     1
 10
0.0
 20
0.0
 30
0.0
  0
VERTEX
  5
D3
330
D2
100
AcDbEntity
  8
Calque 1
 62
     7
420
 16777215
370
    25
100
AcDbVertex
100
AcDb2dVertex
 10
155.0090392510002
 20
91.37479491433226
 30
0.0
  0
VERTEX
  5
D4
330
D2
100
AcDbEntity
  8
Calque 1
 62
     7
420
 16777215
370
    25
100
AcDbVertex
100
AcDb2dVertex
 10
173.0359750781992
 20
91.37479491433226
 30
0.0
  0
SEQEND
  5
D5
330
D2
100
AcDbEntity
  8
Calque 1
 62
     7
420
 16777215
370
    25
  0
POLYLINE
  5
D6
330
1F
100
AcDbEntity
  8
Calque 1
 62
     7
420
 16777215
370
    25
100
AcDb2dPolyline
 66
     1
 10
0.0
 20
0.0
 30
0.0
  0
VERTEX
  5
D7
330
D6
100
AcDbEntity
  8
Calque 1
 62
     7
420
 16777215
370
    25
100
AcDbVertex
100
AcDb2dVertex
 10
155.0090392510002
 20
191.3872518256356
 30
0.0
  0
VERTEX
  5
D8
330
D6
100
AcDbEntity
  8
Calque 1
 62
     7
420
 16777215
370
    25
100
AcDbVertex
100
AcDb2dVertex
 10
155.0090392510002
 20
91.37479491433226
 30
0.0
  0
SEQEND
  5
D9
330
D6
100
AcDbEntity
  8
Calque 1
 62
     7
420
 16777215
370
    25
  0
POLYLINE
  5
DA
330
1F
100
AcDbEntity
  8
Calque 1
 62
     7
420
 16777215
370
    25
100
AcDb2dPolyline
 66
     1
 10
0.0
 20
0.0
 30
0.0
  0
VERTEX
  5
DB
330
DA
100
AcDbEntity
  8
Calque 1
 62
     7
420
 16777215
370
    25
100
AcDbVertex
100
AcDb2dVertex
 10
173.0359750781992
 20
191.3872518256356
 30
0.0
  0
VERTEX
  5
DC
330
DA
100
AcDbEntity
  8
Calque 1
 62
     7
420
 16777215
370
    25
100
AcDbVertex
100
AcDb2dVertex
 10
155.0090392510002
 20
191.3872518256356
 30
0.0
  0
SEQEND
  5
DD
330
DA
100
AcDbEntity
  8
Calque 1
 62
     7
420
 16777215
370
    25
  0
POLYLINE
  5
DE
330
1F
100
AcDbEntity
  8
Calque 1
 62
     7
420
 16777215
370
    25
100
AcDb2dPolyline
 66
     1
 10
0.0
 20
0.0
 30
0.0
  0
VERTEX
  5
DF
330
DE
100
AcDbEntity
  8
Calque 1
 62
     7
420
 16777215
370
    25
100
AcDbVertex
100
AcDb2dVertex
 10
173.0359750781992
 20
91.37479491433226
 30
0.0
  0
VERTEX
  5
E0
330
DE
100
AcDbEntity
  8
Calque 1
 62
     7
420
 16777215
370
    25
100
AcDbVertex
100
AcDb2dVertex
 10
173.0359750781992
 20
191.3872518256356
 30
0.0
  0
SEQEND
  5
E1
330
DE
100
AcDbEntity
  8
Calque 1
 62
     7
420
 16777215
370
    25
  0
POLYLINE
  5
E2
330
1F
100
AcDbEntity
  8
Calque 1
 62
     7
420
 16777215
370
    25
100
AcDb2dPolyline
 66
     1
 10
0.0
 20
0.0
 30
0.0
  0
VERTEX
  5
E3
330
E2
100
AcDbEntity
  8
Calque 1
 62
     7
420
 16777215
370
    25
100
AcDbVertex
100
AcDb2dVertex
 10
281.091825609996
 20
4.168102431251115
 30
0.0
  0
VERTEX
  5
E4
330
E2
100
AcDbEntity
  8
Calque 1
 62
     7
420
 16777215
370
    25
100
AcDbVertex
100
AcDb2dVertex
 10
194.4848811872033
 20
54.19200853311146
 30
0.0
  0
SEQEND
  5
E5
330
E2
100
AcDbEntity
  8
Calque 1
 62
     7
420
 16777215
370
    25
  0
POLYLINE
  5
E6
330
1F
100
AcDbEntity
  8
Calque 1
 62
     7
420
 16777215
370
    25
100
AcDb2dPolyline
 66
     1
 10
0.0
 20
0.0
 30
0.0
  0
VERTEX
  5
E7
330
E6
100
AcDbEntity
  8
Calque 1
 62
     7
420
 16777215
370
    25
100
AcDbVertex
100
AcDb2dVertex
 10
272.0959922789116
 20
-11.42465811715104
 30
0.0
  0
VERTEX
  5
E8
330
E6
100
AcDbEntity
  8
Calque 1
 62
     7
420
 16777215
370
    25
100
AcDbVertex
100
AcDb2dVertex
 10
281.091825609996
 20
4.168102431251115
 30
0.0
  0
SEQEND
  5
E9
330
E6
100
AcDbEntity
  8
Calque 1
 62
     7
420
 16777215
370
    25
  0
POLYLINE
  5
EA
330
1F
100
AcDbEntity
  8
Calque 1
 62
     7
420
 16777215
370
    25
100
AcDb2dPolyline
 66
     1
 10
0.0
 20
0.0
 30
0.0
  0
VERTEX
  5
EB
330
EA
100
AcDbEntity
  8
Calque 1
 62
     7
420
 16777215
370
    25
100
AcDbVertex
100
AcDb2dVertex
 10
185.4890478561189
 20
38.5992479847093
 30
0.0
  0
VERTEX
  5
EC
330
EA
100
AcDbEntity
  8
Calque 1
 62
     7
420
 16777215
370
    25
100
AcDbVertex
100
AcDb2dVertex
 10
272.0959922789116
 20
-11.42465811715104
 30
0.0
  0
SEQEND
  5
ED
330
EA
100
AcDbEntity
  8
Calque 1
 62
     7
420
 16777215
370
    25
  0
POLYLINE
  5
EE
330
1F
100
AcDbEntity
  8
Calque 1
 62
     7
420
 16777215
370
    25
100
AcDb2dPolyline
 66
     1
 10
0.0
 20
0.0
 30
0.0
  0
VERTEX
  5
EF
330
EE
100
AcDbEntity
  8
Calque 1
 62
     7
420
 16777215
370
    25
100
AcDbVertex
100
AcDb2dVertex
 10
194.4848811872033
 20
54.19200853311146
 30
0.0
  0
VERTEX
  5
F0
330
EE
100
AcDbEntity
  8
Calque 1
 62
     7
420
 16777215
370
    25
100
AcDbVertex
100
AcDb2dVertex
 10
185.4890478561189
 20
38.5992479847093
 30
0.0
  0
SEQEND
  5
F1
330
EE
100
AcDbEntity
  8
Calque 1
 62
     7
420
 16777215
370
    25
  0
POLYLINE
  5
F2
330
1F
100
AcDbEntity
  8
Calque 1
 62
     7
420
 16777215
370
    25
100
AcDb2dPolyline
 66
     1
 10
0.0
 20
0.0
 30
0.0
  0
VERTEX
  5
F3
330
F2
100
AcDbEntity
  8
Calque 1
 62
     7
420
 16777215
370
    25
100
AcDbVertex
100
AcDb2dVertex
 10
55.94906511398134
 20
-11.42465811715104
 30
0.0
  0
VERTEX
  5
F4
330
F2
100
AcDbEntity
  8
Calque 1
 62
     7
420
 16777215
370
    25
100
AcDbVertex
100
AcDb2dVertex
 10
142.556009536774
 20
38.5992479847093
 30
0.0
  0
SEQEND
  5
F5
330
F2
100
AcDbEntity
  8
Calque 1
 62
     7
420
 16777215
370
    25
  0
POLYLINE
  5
F6
330
1F
100
AcDbEntity
  8
Calque 1
 62
     7
420
 16777215
370
    25
100
AcDb2dPolyline
 66
     1
 10
0.0
 20
0.0
 30
0.0
  0
VERTEX
  5
F7
330
F6
100
AcDbEntity
  8
Calque 1
 62
     7
420
 16777215
370
    25
100
AcDbVertex
100
AcDb2dVertex
 10
46.95323178289696
 20
4.168102431251115
 30
0.0
  0
VERTEX
  5
F8
330
F6
100
AcDbEntity
  8
Calque 1
 62
     7
420
 16777215
370
    25
100
AcDbVertex
100
AcDb2dVertex
 10
55.94906511398134
 20
-11.42465811715104
 30
0.0
  0
SEQEND
  5
F9
330
F6
100
AcDbEntity
  8
Calque 1
 62
     7
420
 16777215
370
    25
  0
POLYLINE
  5
FA
330
1F
100
AcDbEntity
  8
Calque 1
 62
     7
420
 16777215
370
    25
100
AcDb2dPolyline
 66
     1
 10
0.0
 20
0.0
 30
0.0
  0
VERTEX
  5
FB
330
FA
100
AcDbEntity
  8
Calque 1
 62
     7
420
 16777215
370
    25
100
AcDbVertex
100
AcDb2dVertex
 10
133.5248639769659
 20
54.19200853311146
 30
0.0
  0
VERTEX
  5
FC
330
FA
100
AcDbEntity
  8
Calque 1
 62
     7
420
 16777215
370
    25
100
AcDbVertex
100
AcDb2dVertex
 10
46.95323178289696
 20
4.168102431251115
 30
0.0
  0
SEQEND
  5
FD
330
FA
100
AcDbEntity
  8
Calque 1
 62
     7
420
 16777215
370
    25
  0
POLYLINE
  5
FE
330
1F
100
AcDbEntity
  8
Calque 1
 62
     7
420
 16777215
370
    25
100
AcDb2dPolyline
 66
     1
 10
0.0
 20
0.0
 30
0.0
  0
VERTEX
  5
FF
330
FE
100
AcDbEntity
  8
Calque 1
 62
     7
420
 16777215
370
    25
100
AcDbVertex
100
AcDb2dVertex
 10
142.556009536774
 20
38.5992479847093
 30
0.0
  0
VERTEX
  5
100
330
FE
100
AcDbEntity
  8
Calque 1
 62
     7
420
 16777215
370
    25
100
AcDbVertex
100
AcDb2dVertex
 10
133.5248639769659
 20
54.19200853311146
 30
0.0
  0
SEQEND
  5
101
330
FE
100
AcDbEntity
  8
Calque 1
 62
     7
420
 16777215
370
    25
  0
POLYLINE
  5
102
330
1F
100
AcDbEntity
  8
Calque 1
 62
     7
420
 16777215
370
    25
100
AcDb2dPolyline
 66
     1
 10
0.0
 20
0.0
 30
0.0
  0
VERTEX
  5
103
330
102
100
AcDbEntity
  8
Calque 1
 62
     7
420
 16777215
370
    25
100
AcDbVertex
100
AcDb2dVertex
 10
355.5678251820855
 20
-187.7663951987489
 30
0.0
  0
VERTEX
  5
104
330
102
100
AcDbEntity
  8
Calque 1
 62
     7
420
 16777215
370
    25
100
AcDbVertex
100
AcDb2dVertex
 10
365.5857534089825
 20
-187.6301665708563
 30
0.0
  0
SEQEND
  5
105
330
102
100
AcDbEntity
  8
Calque 1
 62
     7
420
 16777215
370
    25
  0
POLYLINE
  5
106
330
1F
100
AcDbEntity
  8
Calque 1
 62
     7
420
 16777215
370
    25
100
AcDb2dPolyline
 66
     1
 10
0.0
 20
0.0
 30
0.0
  0
VERTEX
  5
107
330
106
100
AcDbEntity
  8
Calque 1
 62
     7
420
 16777215
370
    25
100
AcDbVertex
100
AcDb2dVertex
 10
375.0791852760872
 20
-151.5144101309265
 30
0.0
  0
VERTEX
  5
108
330
106
100
AcDbEntity
  8
Calque 1
 62
     7
420
 16777215
370
    25
100
AcDbVertex
100
AcDb2dVertex
 10
370.1298476618249
 20
212.4480679282263
 30
0.0
  0
SEQEND
  5
109
330
106
100
AcDbEntity
  8
Calque 1
 62
     7
420
 16777215
370
    25
  0
POLYLINE
  5
10A
330
1F
100
AcDbEntity
  8
Calque 1
 62
     7
420
 16777215
370
    25
100
AcDb2dPolyline
 66
     1
 10
0.0
 20
0.0
 30
0.0
  0
VERTEX
  5
10B
330
10A
100
AcDbEntity
  8
Calque 1
 62
     7
420
 16777215
370
    25
100
AcDbVertex
100
AcDb2dVertex
 10
365.0964798939953
 20
-151.6501597815587
 30
0.0
  0
VERTEX
  5
10C
330
10A
100
AcDbEntity
  8
Calque 1
 62
     7
420
 16777215
370
    25
100
AcDbVertex
100
AcDb2dVertex
 10
375.0791852760872
 20
-151.5144101309265
 30
0.0
  0
SEQEND
  5
10D
330
10A
100
AcDbEntity
  8
Calque 1
 62
     7
420
 16777215
370
    25
  0
POLYLINE
  5
10E
330
1F
100
AcDbEntity
  8
Calque 1
 62
     7
420
 16777215
370
    25
100
AcDb2dPolyline
 66
     1
 10
0.0
 20
0.0
 30
0.0
  0
VERTEX
  5
10F
330
10E
100
AcDbEntity
  8
Calque 1
 62
     7
420
 16777215
370
    25
100
AcDbVertex
100
AcDb2dVertex
 10
370.1298476618249
 20
212.4480679282263
 30
0.0
  0
VERTEX
  5
110
330
10E
100
AcDbEntity
  8
Calque 1
 62
     7
420
 16777215
370
    25
100
AcDbVertex
100
AcDb2dVertex
 10
340.1465086707441
 20
212.0403399990699
 30
0.0
  0
SEQEND
  5
111
330
10E
100
AcDbEntity
  8
Calque 1
 62
     7
420
 16777215
370
    25
  0
POLYLINE
  5
112
330
1F
100
AcDbEntity
  8
Calque 1
 62
     7
420
 16777215
370
    25
100
AcDb2dPolyline
 66
     1
 10
0.0
 20
0.0
 30
0.0
  0
VERTEX
  5
113
330
112
100
AcDbEntity
  8
Calque 1
 62
     7
420
 16777215
370
    25
100
AcDbVertex
100
AcDb2dVertex
 10
340.1465086707441
 20
212.0403399990699
 30
0.0
  0
VERTEX
  5
114
330
112
100
AcDbEntity
  8
Calque 1
 62
     7
420
 16777215
370
    25
100
AcDbVertex
100
AcDb2dVertex
 10
315.8658959782745
 20
-59.84798237852813
 30
0.0
  0
SEQEND
  5
115
330
112
100
AcDbEntity
  8
Calque 1
 62
     7
420
 16777215
370
    25
  0
POLYLINE
  5
116
330
1F
100
AcDbEntity
  8
Calque 1
 62
     7
420
 16777215
370
    25
100
AcDb2dPolyline
 66
     1
 10
0.0
 20
0.0
 30
0.0
  0
VERTEX
  5
117
330
116
100
AcDbEntity
  8
Calque 1
 62
     7
420
 16777215
370
    25
100
AcDbVertex
100
AcDb2dVertex
 10
315.8658959782745
 20
-59.84798237852813
 30
0.0
  0
VERTEX
  5
118
330
116
100
AcDbEntity
  8
Calque 1
 62
     7
420
 16777215
370
    25
100
AcDbVertex
100
AcDb2dVertex
 10
234.9194534603018
 20
-139.4137714039459
 30
0.0
  0
SEQEND
  5
119
330
116
100
AcDbEntity
  8
Calque 1
 62
     7
420
 16777215
370
    25
  0
POLYLINE
  5
11A
330
1F
100
AcDbEntity
  8
Calque 1
 62
     7
420
 16777215
370
    25
100
AcDb2dPolyline
 66
     1
 10
0.0
 20
0.0
 30
0.0
  0
VERTEX
  5
11B
330
11A
100
AcDbEntity
  8
Calque 1
 62
     7
420
 16777215
370
    25
100
AcDbVertex
100
AcDb2dVertex
 10
234.9194534603018
 20
-139.4137714039459
 30
0.0
  0
VERTEX
  5
11C
330
11A
100
AcDbEntity
  8
Calque 1
 62
     7
420
 16777215
370
    25
100
AcDbVertex
100
AcDb2dVertex
 10
235.5991602535301
 20
-189.3977870637293
 30
0.0
  0
SEQEND
  5
11D
330
11A
100
AcDbEntity
  8
Calque 1
 62
     7
420
 16777215
370
    25
  0
POLYLINE
  5
11E
330
1F
100
AcDbEntity
  8
Calque 1
 62
     7
420
 16777215
370
    25
100
AcDb2dPolyline
 66
     1
 10
0.0
 20
0.0
 30
0.0
  0
VERTEX
  5
11F
330
11E
100
AcDbEntity
  8
Calque 1
 62
     7
420
 16777215
370
    25
100
AcDbVertex
100
AcDb2dVertex
 10
235.5991602535301
 20
-189.3977870637293
 30
0.0
  0
VERTEX
  5
120
330
11E
100
AcDbEntity
  8
Calque 1
 62
     7
420
 16777215
370
    25
100
AcDbVertex
100
AcDb2dVertex
 10
255.5998799819439
 20
-189.1258076141112
 30
0.0
  0
SEQEND
  5
121
330
11E
100
AcDbEntity
  8
Calque 1
 62
     7
420
 16777215
370
    25
  0
POLYLINE
  5
122
330
1F
100
AcDbEntity
  8
Calque 1
 62
     7
420
 16777215
370
    25
100
AcDb2dPolyline
 66
     1
 10
0.0
 20
0.0
 30
0.0
  0
VERTEX
  5
123
330
122
100
AcDbEntity
  8
Calque 1
 62
     7
420
 16777215
370
    25
100
AcDbVertex
100
AcDb2dVertex
 10
255.5998799819439
 20
-189.1258076141112
 30
0.0
  0
VERTEX
  5
124
330
122
100
AcDbEntity
  8
Calque 1
 62
     7
420
 16777215
370
    25
100
AcDbVertex
100
AcDb2dVertex
 10
255.8449957166982
 20
-207.1510338535655
 30
0.0
  0
SEQEND
  5
125
330
122
100
AcDbEntity
  8
Calque 1
 62
     7
420
 16777215
370
    25
  0
POLYLINE
  5
126
330
1F
100
AcDbEntity
  8
Calque 1
 62
     7
420
 16777215
370
    25
100
AcDb2dPolyline
 66
     1
 10
0.0
 20
0.0
 30
0.0
  0
VERTEX
  5
127
330
126
100
AcDbEntity
  8
Calque 1
 62
     7
420
 16777215
370
    25
100
AcDbVertex
100
AcDb2dVertex
 10
355.8129409168395
 20
-205.7916214382033
 30
0.0
  0
VERTEX
  5
128
330
126
100
AcDbEntity
  8
Calque 1
 62
     7
420
 16777215
370
    25
100
AcDbVertex
100
AcDb2dVertex
 10
255.8449957166982
 20
-207.1510338535655
 30
0.0
  0
SEQEND
  5
129
330
126
100
AcDbEntity
  8
Calque 1
 62
     7
420
 16777215
370
    25
  0
POLYLINE
  5
12A
330
1F
100
AcDbEntity
  8
Calque 1
 62
     7
420
 16777215
370
    25
100
AcDb2dPolyline
 66
     1
 10
0.0
 20
0.0
 30
0.0
  0
VERTEX
  5
12B
330
12A
100
AcDbEntity
  8
Calque 1
 62
     7
420
 16777215
370
    25
100
AcDbVertex
100
AcDb2dVertex
 10
355.5678251820855
 20
-187.7663951987489
 30
0.0
  0
VERTEX
  5
12C
330
12A
100
AcDbEntity
  8
Calque 1
 62
     7
420
 16777215
370
    25
100
AcDbVertex
100
AcDb2dVertex
 10
355.8129409168395
 20
-205.7916214382033
 30
0.0
  0
SEQEND
  5
12D
330
12A
100
AcDbEntity
  8
Calque 1
 62
     7
420
 16777215
370
    25
  0
POLYLINE
  5
12E
330
1F
100
AcDbEntity
  8
Calque 1
 62
     7
420
 16777215
370
    25
100
AcDb2dPolyline
 66
     1
 10
0.0
 20
0.0
 30
0.0
  0
VERTEX
  5
12F
330
12E
100
AcDbEntity
  8
Calque 1
 62
     7
420
 16777215
370
    25
100
AcDbVertex
100
AcDb2dVertex
 10
365.5857534089825
 20
-187.6301665708563
 30
0.0
  0
VERTEX
  5
130
330
12E
100
AcDbEntity
  8
Calque 1
 62
     7
420
 16777215
370
    25
100
AcDbVertex
100
AcDb2dVertex
 10
365.0964798939953
 20
-151.6501597815587
 30
0.0
  0
SEQEND
  5
131
330
12E
100
AcDbEntity
  8
Calque 1
 62
     7
420
 16777215
370
    25
  0
POLYLINE
  5
132
330
1F
100
AcDbEntity
  8
Calque 1
 62
     7
420
 16777215
370
    25
100
AcDb2dPolyline
 66
     1
 10
0.0
 20
0.0
 30
0.0
  0
VERTEX
  5
133
330
132
100
AcDbEntity
  8
Calque 1
 62
     7
420
 16777215
370
    25
100
AcDbVertex
100
AcDb2dVertex
 10
409.8274560054188
 20
194.4211751647208
 30
0.0
  0
VERTEX
  5
134
330
132
100
AcDbEntity
  8
Calque 1
 62
     7
420
 16777215
370
    25
100
AcDbVertex
100
AcDb2dVertex
 10
399.8086015699895
 20
194.4211751647208
 30
0.0
  0
SEQEND
  5
135
330
132
100
AcDbEntity
  8
Calque 1
 62
     7
420
 16777215
370
    25
  0
POLYLINE
  5
136
330
1F
100
AcDbEntity
  8
Calque 1
 62
     7
420
 16777215
370
    25
100
AcDb2dPolyline
 66
     1
 10
0.0
 20
0.0
 30
0.0
  0
VERTEX
  5
137
330
136
100
AcDbEntity
  8
Calque 1
 62
     7
420
 16777215
370
    25
100
AcDbVertex
100
AcDb2dVertex
 10
389.8249732358968
 20
158.4378418403833
 30
0.0
  0
VERTEX
  5
138
330
136
100
AcDbEntity
  8
Calque 1
 62
     7
420
 16777215
370
    25
100
AcDbVertex
100
AcDb2dVertex
 10
389.8249732358968
 20
-205.5582864052062
 30
0.0
  0
SEQEND
  5
139
330
136
100
AcDbEntity
  8
Calque 1
 62
     7
420
 16777215
370
    25
  0
POLYLINE
  5
13A
330
1F
100
AcDbEntity
  8
Calque 1
 62
     7
420
 16777215
370
    25
100
AcDb2dPolyline
 66
     1
 10
0.0
 20
0.0
 30
0.0
  0
VERTEX
  5
13B
330
13A
100
AcDbEntity
  8
Calque 1
 62
     7
420
 16777215
370
    25
100
AcDbVertex
100
AcDb2dVertex
 10
399.8086015699895
 20
158.4378418403833
 30
0.0
  0
VERTEX
  5
13C
330
13A
100
AcDbEntity
  8
Calque 1
 62
     7
420
 16777215
370
    25
100
AcDbVertex
100
AcDb2dVertex
 10
389.8249732358968
 20
158.4378418403833
 30
0.0
  0
SEQEND
  5
13D
330
13A
100
AcDbEntity
  8
Calque 1
 62
     7
420
 16777215
370
    25
  0
POLYLINE
  5
13E
330
1F
100
AcDbEntity
  8
Calque 1
 62
     7
420
 16777215
370
    25
100
AcDb2dPolyline
 66
     1
 10
0.0
 20
0.0
 30
0.0
  0
VERTEX
  5
13F
330
13E
100
AcDbEntity
  8
Calque 1
 62
     7
420
 16777215
370
    25
100
AcDbVertex
100
AcDb2dVertex
 10
389.8249732358968
 20
-205.5582864052062
 30
0.0
  0
VERTEX
  5
140
330
13E
100
AcDbEntity
  8
Calque 1
 62
     7
420
 16777215
370
    25
100
AcDbVertex
100
AcDb2dVertex
 10
419.8110843395114
 20
-205.5582864052062
 30
0.0
  0
SEQEND
  5
141
330
13E
100
AcDbEntity
  8
Calque 1
 62
     7
420
 16777215
370
    25
  0
POLYLINE
  5
142
330
1F
100
AcDbEntity
  8
Calque 1
 62
     7
420
 16777215
370
    25
100
AcDb2dPolyline
 66
     1
 10
0.0
 20
0.0
 30
0.0
  0
VERTEX
  5
143
330
142
100
AcDbEntity
  8
Calque 1
 62
     7
420
 16777215
370
    25
100
AcDbVertex
100
AcDb2dVertex
 10
419.8110843395114
 20
-205.5582864052062
 30
0.0
  0
VERTEX
  5
144
330
142
100
AcDbEntity
  8
Calque 1
 62
     7
420
 16777215
370
    25
100
AcDbVertex
100
AcDb2dVertex
 10
447.7863793357728
 20
65.97475185698869
 30
0.0
  0
SEQEND
  5
145
330
142
100
AcDbEntity
  8
Calque 1
 62
     7
420
 16777215
370
    25
  0
POLYLINE
  5
146
330
1F
100
AcDbEntity
  8
Calque 1
 62
     7
420
 16777215
370
    25
100
AcDb2dPolyline
 66
     1
 10
0.0
 20
0.0
 30
0.0
  0
VERTEX
  5
147
330
146
100
AcDbEntity
  8
Calque 1
 62
     7
420
 16777215
370
    25
100
AcDbVertex
100
AcDb2dVertex
 10
447.7863793357728
 20
65.97475185698869
 30
0.0
  0
VERTEX
  5
148
330
146
100
AcDbEntity
  8
Calque 1
 62
     7
420
 16777215
370
    25
100
AcDbVertex
100
AcDb2dVertex
 10
529.807212648601
 20
144.4325382278907
 30
0.0
  0
SEQEND
  5
149
330
146
100
AcDbEntity
  8
Calque 1
 62
     7
420
 16777215
370
    25
  0
POLYLINE
  5
14A
330
1F
100
AcDbEntity
  8
Calque 1
 62
     7
420
 16777215
370
    25
100
AcDb2dPolyline
 66
     1
 10
0.0
 20
0.0
 30
0.0
  0
VERTEX
  5
14B
330
14A
100
AcDbEntity
  8
Calque 1
 62
     7
420
 16777215
370
    25
100
AcDbVertex
100
AcDb2dVertex
 10
529.807212648601
 20
144.4325382278907
 30
0.0
  0
VERTEX
  5
14C
330
14A
100
AcDbEntity
  8
Calque 1
 62
     7
420
 16777215
370
    25
100
AcDbVertex
100
AcDb2dVertex
 10
529.807212648601
 20
194.4211751647208
 30
0.0
  0
SEQEND
  5
14D
330
14A
100
AcDbEntity
  8
Calque 1
 62
     7
420
 16777215
370
    25
  0
POLYLINE
  5
14E
330
1F
100
AcDbEntity
  8
Calque 1
 62
     7
420
 16777215
370
    25
100
AcDb2dPolyline
 66
     1
 10
0.0
 20
0.0
 30
0.0
  0
VERTEX
  5
14F
330
14E
100
AcDbEntity
  8
Calque 1
 62
     7
420
 16777215
370
    25
100
AcDbVertex
100
AcDb2dVertex
 10
529.807212648601
 20
194.4211751647208
 30
0.0
  0
VERTEX
  5
150
330
14E
100
AcDbEntity
  8
Calque 1
 62
     7
420
 16777215
370
    25
100
AcDbVertex
100
AcDb2dVertex
 10
509.8046437516919
 20
194.4211751647208
 30
0.0
  0
SEQEND
  5
151
330
14E
100
AcDbEntity
  8
Calque 1
 62
     7
420
 16777215
370
    25
  0
POLYLINE
  5
152
330
1F
100
AcDbEntity
  8
Calque 1
 62
     7
420
 16777215
370
    25
100
AcDb2dPolyline
 66
     1
 10
0.0
 20
0.0
 30
0.0
  0
VERTEX
  5
153
330
152
100
AcDbEntity
  8
Calque 1
 62
     7
420
 16777215
370
    25
100
AcDbVertex
100
AcDb2dVertex
 10
509.8046437516919
 20
194.4211751647208
 30
0.0
  0
VERTEX
  5
154
330
152
100
AcDbEntity
  8
Calque 1
 62
     7
420
 16777215
370
    25
100
AcDbVertex
100
AcDb2dVertex
 10
509.8046437516919
 20
212.4480679282263
 30
0.0
  0
SEQEND
  5
155
330
152
100
AcDbEntity
  8
Calque 1
 62
     7
420
 16777215
370
    25
  0
POLYLINE
  5
156
330
1F
100
AcDbEntity
  8
Calque 1
 62
     7
420
 16777215
370
    25
100
AcDb2dPolyline
 66
     1
 10
0.0
 20
0.0
 30
0.0
  0
VERTEX
  5
157
330
156
100
AcDbEntity
  8
Calque 1
 62
     7
420
 16777215
370
    25
100
AcDbVertex
100
AcDb2dVertex
 10
409.8274560054188
 20
212.4480679282263
 30
0.0
  0
VERTEX
  5
158
330
156
100
AcDbEntity
  8
Calque 1
 62
     7
420
 16777215
370
    25
100
AcDbVertex
100
AcDb2dVertex
 10
509.8046437516919
 20
212.4480679282263
 30
0.0
  0
SEQEND
  5
159
330
156
100
AcDbEntity
  8
Calque 1
 62
     7
420
 16777215
370
    25
  0
POLYLINE
  5
15A
330
1F
100
AcDbEntity
  8
Calque 1
 62
     7
420
 16777215
370
    25
100
AcDb2dPolyline
 66
     1
 10
0.0
 20
0.0
 30
0.0
  0
VERTEX
  5
15B
330
15A
100
AcDbEntity
  8
Calque 1
 62
     7
420
 16777215
370
    25
100
AcDbVertex
100
AcDb2dVertex
 10
409.8274560054188
 20
194.4211751647208
 30
0.0
  0
VERTEX
  5
15C
330
15A
100
AcDbEntity
  8
Calque 1
 62
     7
420
 16777215
370
    25
100
AcDbVertex
100
AcDb2dVertex
 10
409.8274560054188
 20
212.4480679282263
 30
0.0
  0
SEQEND
  5
15D
330
15A
100
AcDbEntity
  8
Calque 1
 62
     7
420
 16777215
370
    25
  0
POLYLINE
  5
15E
330
1F
100
AcDbEntity
  8
Calque 1
 62
     7
420
 16777215
370
    25
100
AcDb2dPolyline
 66
     1
 10
0.0
 20
0.0
 30
0.0
  0
VERTEX
  5
15F
330
15E
100
AcDbEntity
  8
Calque 1
 62
     7
420
 16777215
370
    25
100
AcDbVertex
100
AcDb2dVertex
 10
399.8086015699895
 20
194.4211751647208
 30
0.0
  0
VERTEX
  5
160
330
15E
100
AcDbEntity
  8
Calque 1
 62
     7
420
 16777215
370
    25
100
AcDbVertex
100
AcDb2dVertex
 10
399.8086015699895
 20
158.4378418403833
 30
0.0
  0
SEQEND
  5
161
330
15E
100
AcDbEntity
  8
Calque 1
 62
     7
420
 16777215
370
    25
  0
POLYLINE
  5
162
330
1F
100
AcDbEntity
  8
Calque 1
 62
     7
420
 16777215
370
    25
100
AcDb2dPolyline
 66
     1
 10
0.0
 20
0.0
 30
0.0
  0
VERTEX
  5
163
330
162
100
AcDbEntity
  8
Calque 1
 62
     7
420
 16777215
370
    25
100
AcDbVertex
100
AcDb2dVertex
 10
558.4929198846187
 20
-187.5313936417008
 30
0.0
  0
VERTEX
  5
164
330
162
100
AcDbEntity
  8
Calque 1
 62
     7
420
 16777215
370
    25
100
AcDbVertex
100
AcDb2dVertex
 10
568.511774320048
 20
-187.5313936417008
 30
0.0
  0
SEQEND
  5
165
330
162
100
AcDbEntity
  8
Calque 1
 62
     7
420
 16777215
370
    25
  0
POLYLINE
  5
166
330
1F
100
AcDbEntity
  8
Calque 1
 62
     7
420
 16777215
370
    25
100
AcDb2dPolyline
 66
     1
 10
0.0
 20
0.0
 30
0.0
  0
VERTEX
  5
167
330
166
100
AcDbEntity
  8
Calque 1
 62
     7
420
 16777215
370
    25
100
AcDbVertex
100
AcDb2dVertex
 10
578.4954026541405
 20
-151.5480603173633
 30
0.0
  0
VERTEX
  5
168
330
166
100
AcDbEntity
  8
Calque 1
 62
     7
420
 16777215
370
    25
100
AcDbVertex
100
AcDb2dVertex
 10
578.4954026541405
 20
212.4480679282263
 30
0.0
  0
SEQEND
  5
169
330
166
100
AcDbEntity
  8
Calque 1
 62
     7
420
 16777215
370
    25
  0
POLYLINE
  5
16A
330
1F
100
AcDbEntity
  8
Calque 1
 62
     7
420
 16777215
370
    25
100
AcDb2dPolyline
 66
     1
 10
0.0
 20
0.0
 30
0.0
  0
VERTEX
  5
16B
330
16A
100
AcDbEntity
  8
Calque 1
 62
     7
420
 16777215
370
    25
100
AcDbVertex
100
AcDb2dVertex
 10
568.511774320048
 20
-151.5480603173633
 30
0.0
  0
VERTEX
  5
16C
330
16A
100
AcDbEntity
  8
Calque 1
 62
     7
420
 16777215
370
    25
100
AcDbVertex
100
AcDb2dVertex
 10
578.4954026541405
 20
-151.5480603173633
 30
0.0
  0
SEQEND
  5
16D
330
16A
100
AcDbEntity
  8
Calque 1
 62
     7
420
 16777215
370
    25
  0
POLYLINE
  5
16E
330
1F
100
AcDbEntity
  8
Calque 1
 62
     7
420
 16777215
370
    25
100
AcDb2dPolyline
 66
     1
 10
0.0
 20
0.0
 30
0.0
  0
VERTEX
  5
16F
330
16E
100
AcDbEntity
  8
Calque 1
 62
     7
420
 16777215
370
    25
100
AcDbVertex
100
AcDb2dVertex
 10
578.4954026541405
 20
212.4480679282263
 30
0.0
  0
VERTEX
  5
170
330
16E
100
AcDbEntity
  8
Calque 1
 62
     7
420
 16777215
370
    25
100
AcDbVertex
100
AcDb2dVertex
 10
548.509291550526
 20
212.4480679282263
 30
0.0
  0
SEQEND
  5
171
330
16E
100
AcDbEntity
  8
Calque 1
 62
     7
420
 16777215
370
    25
  0
POLYLINE
  5
172
330
1F
100
AcDbEntity
  8
Calque 1
 62
     7
420
 16777215
370
    25
100
AcDb2dPolyline
 66
     1
 10
0.0
 20
0.0
 30
0.0
  0
VERTEX
  5
173
330
172
100
AcDbEntity
  8
Calque 1
 62
     7
420
 16777215
370
    25
100
AcDbVertex
100
AcDb2dVertex
 10
548.509291550526
 20
212.4480679282263
 30
0.0
  0
VERTEX
  5
174
330
172
100
AcDbEntity
  8
Calque 1
 62
     7
420
 16777215
370
    25
100
AcDbVertex
100
AcDb2dVertex
 10
520.5339965542646
 20
-59.08497033396861
 30
0.0
  0
SEQEND
  5
175
330
172
100
AcDbEntity
  8
Calque 1
 62
     7
420
 16777215
370
    25
  0
POLYLINE
  5
176
330
1F
100
AcDbEntity
  8
Calque 1
 62
     7
420
 16777215
370
    25
100
AcDb2dPolyline
 66
     1
 10
0.0
 20
0.0
 30
0.0
  0
VERTEX
  5
177
330
176
100
AcDbEntity
  8
Calque 1
 62
     7
420
 16777215
370
    25
100
AcDbVertex
100
AcDb2dVertex
 10
520.5339965542646
 20
-59.08497033396861
 30
0.0
  0
VERTEX
  5
178
330
176
100
AcDbEntity
  8
Calque 1
 62
     7
420
 16777215
370
    25
100
AcDbVertex
100
AcDb2dVertex
 10
438.5131632414365
 20
-137.5427567048707
 30
0.0
  0
SEQEND
  5
179
330
176
100
AcDbEntity
  8
Calque 1
 62
     7
420
 16777215
370
    25
  0
POLYLINE
  5
17A
330
1F
100
AcDbEntity
  8
Calque 1
 62
     7
420
 16777215
370
    25
100
AcDb2dPolyline
 66
     1
 10
0.0
 20
0.0
 30
0.0
  0
VERTEX
  5
17B
330
17A
100
AcDbEntity
  8
Calque 1
 62
     7
420
 16777215
370
    25
100
AcDbVertex
100
AcDb2dVertex
 10
438.5131632414365
 20
-137.5427567048707
 30
0.0
  0
VERTEX
  5
17C
330
17A
100
AcDbEntity
  8
Calque 1
 62
     7
420
 16777215
370
    25
100
AcDbVertex
100
AcDb2dVertex
 10
438.5131632414365
 20
-187.5313936417008
 30
0.0
  0
SEQEND
  5
17D
330
17A
100
AcDbEntity
  8
Calque 1
 62
     7
420
 16777215
370
    25
  0
POLYLINE
  5
17E
330
1F
100
AcDbEntity
  8
Calque 1
 62
     7
420
 16777215
370
    25
100
AcDb2dPolyline
 66
     1
 10
0.0
 20
0.0
 30
0.0
  0
VERTEX
  5
17F
330
17E
100
AcDbEntity
  8
Calque 1
 62
     7
420
 16777215
370
    25
100
AcDbVertex
100
AcDb2dVertex
 10
438.5131632414365
 20
-187.5313936417008
 30
0.0
  0
VERTEX
  5
180
330
17E
100
AcDbEntity
  8
Calque 1
 62
     7
420
 16777215
370
    25
100
AcDbVertex
100
AcDb2dVertex
 10
458.5157321383456
 20
-187.5313936417008
 30
0.0
  0
SEQEND
  5
181
330
17E
100
AcDbEntity
  8
Calque 1
 62
     7
420
 16777215
370
    25
  0
POLYLINE
  5
182
330
1F
100
AcDbEntity
  8
Calque 1
 62
     7
420
 16777215
370
    25
100
AcDb2dPolyline
 66
     1
 10
0.0
 20
0.0
 30
0.0
  0
VERTEX
  5
183
330
182
100
AcDbEntity
  8
Calque 1
 62
     7
420
 16777215
370
    25
100
AcDbVertex
100
AcDb2dVertex
 10
458.5157321383456
 20
-187.5313936417008
 30
0.0
  0
VERTEX
  5
184
330
182
100
AcDbEntity
  8
Calque 1
 62
     7
420
 16777215
370
    25
100
AcDbVertex
100
AcDb2dVertex
 10
458.5157321383456
 20
-205.5582864052062
 30
0.0
  0
SEQEND
  5
185
330
182
100
AcDbEntity
  8
Calque 1
 62
     7
420
 16777215
370
    25
  0
POLYLINE
  5
186
330
1F
100
AcDbEntity
  8
Calque 1
 62
     7
420
 16777215
370
    25
100
AcDb2dPolyline
 66
     1
 10
0.0
 20
0.0
 30
0.0
  0
VERTEX
  5
187
330
186
100
AcDbEntity
  8
Calque 1
 62
     7
420
 16777215
370
    25
100
AcDbVertex
100
AcDb2dVertex
 10
558.4929198846187
 20
-205.5582864052062
 30
0.0
  0
VERTEX
  5
188
330
186
100
AcDbEntity
  8
Calque 1
 62
     7
420
 16777215
370
    25
100
AcDbVertex
100
AcDb2dVertex
 10
458.5157321383456
 20
-205.5582864052062
 30
0.0
  0
SEQEND
  5
189
330
186
100
AcDbEntity
  8
Calque 1
 62
     7
420
 16777215
370
    25
  0
POLYLINE
  5
18A
330
1F
100
AcDbEntity
  8
Calque 1
 62
     7
420
 16777215
370
    25
100
AcDb2dPolyline
 66
     1
 10
0.0
 20
0.0
 30
0.0
  0
VERTEX
  5
18B
330
18A
100
AcDbEntity
  8
Calque 1
 62
     7
420
 16777215
370
    25
100
AcDbVertex
100
AcDb2dVertex
 10
558.4929198846187
 20
-187.5313936417008
 30
0.0
  0
VERTEX
  5
18C
330
18A
100
AcDbEntity
  8
Calque 1
 62
     7
420
 16777215
370
    25
100
AcDbVertex
100
AcDb2dVertex
 10
558.4929198846187
 20
-205.5582864052062
 30
0.0
  0
SEQEND
  5
18D
330
18A
100
AcDbEntity
  8
Calque 1
 62
     7
420
 16777215
370
    25
  0
POLYLINE
  5
18E
330
1F
100
AcDbEntity
  8
Calque 1
 62
     7
420
 16777215
370
    25
100
AcDb2dPolyline
 66
     1
 10
0.0
 20
0.0
 30
0.0
  0
VERTEX
  5
18F
330
18E
100
AcDbEntity
  8
Calque 1
 62
     7
420
 16777215
370
    25
100
AcDbVertex
100
AcDb2dVertex
 10
568.511774320048
 20
-187.5313936417008
 30
0.0
  0
VERTEX
  5
190
330
18E
100
AcDbEntity
  8
Calque 1
 62
     7
420
 16777215
370
    25
100
AcDbVertex
100
AcDb2dVertex
 10
568.511774320048
 20
-151.5480603173633
 30
0.0
  0
SEQEND
  5
191
330
18E
100
AcDbEntity
  8
Calque 1
 62
     7
420
 16777215
370
    25
  0
ENDSEC
  0
SECTION
  2
OBJECTS
  0
DICTIONARY
  5
C
330
0
100
AcDbDictionary
281
     1
  3
ACAD_GROUP
350
D
  3
ACAD_LAYOUT
350
1A
  3
ACAD_MATERIAL
350
3B
  3
ACAD_MLEADERSTYLE
350
193
  3
ACAD_MLINESTYLE
350
17
  3
ACAD_PLOTSETTINGS
350
19
  3
ACAD_PLOTSTYLENAME
350
E
  3
ACAD_TABLESTYLE
350
192
  3
ACAD_VISUALSTYLE
350
2A
  0
SUN
  5
3F
330
29
100
AcDbSun
 90
        1
290
     0
 63
     7
421
 16777215
 40
1.0
291
     1
 91
  2455826
 92
 54000000
292
     0
 70
     2
 71
   256
280
     1
  0
DICTIONARY
  5
D
102
{ACAD_REACTORS
330
C
102
}
330
C
100
AcDbDictionary
281
     1
  0
DICTIONARY
  5
1A
102
{ACAD_REACTORS
330
C
102
}
330
C
100
AcDbDictionary
281
     1
  3
Layout1
350
1E
  3
Layout2
350
26
  3
Model
350
22
  0
DICTIONARY
  5
3B
102
{ACAD_REACTORS
330
C
102
}
330
C
100
AcDbDictionary
281
     1
  3
ByBlock
350
3D
  3
ByLayer
350
3C
  3
Global
350
3E
  0
DICTIONARY
  5
193
102
{ACAD_REACTORS
330
C
102
}
330
C
100
AcDbDictionary
281
     1
  0
DICTIONARY
  5
17
102
{ACAD_REACTORS
330
C
102
}
330
C
100
AcDbDictionary
281
     1
  3
Standard
350
18
  0
DICTIONARY
  5
19
102
{ACAD_REACTORS
330
C
102
}
330
C
100
AcDbDictionary
281
     1
  0
ACDBDICTIONARYWDFLT
  5
E
102
{ACAD_REACTORS
330
C
102
}
330
C
100
AcDbDictionary
281
     1
  3
Normal
350
F
100
AcDbDictionaryWithDefault
340
F
  0
DICTIONARY
  5
192
102
{ACAD_REACTORS
330
C
102
}
330
C
100
AcDbDictionary
281
     1
  0
DICTIONARY
  5
2A
102
{ACAD_REACTORS
330
C
102
}
330
C
100
AcDbDictionary
281
     1
  3
2dWireframe
350
2F
  3
3D Hidden
350
31
  3
3dWireframe
350
30
  3
Basic
350
32
  3
Brighten
350
36
  3
ColorChange
350
3A
  3
Conceptual
350
34
  3
Dim
350
35
  3
Facepattern
350
39
  3
Flat
350
2B
  3
FlatWithEdges
350
2C
  3
Gouraud
350
2D
  3
GouraudWithEdges
350
2E
  3
Linepattern
350
38
  3
Realistic
350
33
  3
Thicken
350
37
  0
LAYOUT
  5
1E
102
{ACAD_REACTORS
330
1A
102
}
330
1A
100
AcDbPlotSettings
  1

  2
none_device
  4

  6

 40
0.0
 41
0.0
 42
0.0
 43
0.0
 44
0.0
 45
0.0
 46
0.0
 47
0.0
 48
0.0
 49
0.0
140
0.0
141
0.0
142
1.0
143
1.0
 70
   688
 72
     0
 73
     0
 74
     5
  7

 75
    16
 76
     0
 77
     2
 78
   300
147
1.0
148
0.0
149
0.0
100
AcDbLayout
  1
Layout1
 70
     1
 71
     1
 10
0.0
 20
0.0
 11
12.0
 21
9.0
 12
0.0
 22
0.0
 32
0.0
 14
1.000000000000000E+20
 24
1.000000000000000E+20
 34
1.000000000000000E+20
 15
-1.000000000000000E+20
 25
-1.000000000000000E+20
 35
-1.000000000000000E+20
146
0.0
 13
0.0
 23
0.0
 33
0.0
 16
1.0
 26
0.0
 36
0.0
 17
0.0
 27
1.0
 37
0.0
 76
     0
330
1B
  0
LAYOUT
  5
26
102
{ACAD_REACTORS
330
1A
102
}
330
1A
100
AcDbPlotSettings
  1

  2
none_device
  4

  6

 40
0.0
 41
0.0
 42
0.0
 43
0.0
 44
0.0
 45
0.0
 46
0.0
 47
0.0
 48
0.0
 49
0.0
140
0.0
141
0.0
142
1.0
143
1.0
 70
   688
 72
     0
 73
     0
 74
     5
  7

 75
    16
 76
     0
 77
     2
 78
   300
147
1.0
148
0.0
149
0.0
100
AcDbLayout
  1
Layout2
 70
     1
 71
     2
 10
0.0
 20
0.0
 11
0.0
 21
0.0
 12
0.0
 22
0.0
 32
0.0
 14
0.0
 24
0.0
 34
0.0
 15
0.0
 25
0.0
 35
0.0
146
0.0
 13
0.0
 23
0.0
 33
0.0
 16
1.0
 26
0.0
 36
0.0
 17
0.0
 27
1.0
 37
0.0
 76
     0
330
23
  0
LAYOUT
  5
22
102
{ACAD_REACTORS
330
1A
102
}
330
1A
100
AcDbPlotSettings
  1

  2
none_device
  4

  6

 40
0.0
 41
0.0
 42
0.0
 43
0.0
 44
0.0
 45
0.0
 46
0.0
 47
0.0
 48
0.0
 49
0.0
140
0.0
141
0.0
142
1.0
143
1.0
 70
  1712
 72
     0
 73
     0
 74
     0
  7

 75
     0
 76
     0
 77
     2
 78
   300
147
1.0
148
0.0
149
0.0
100
AcDbLayout
  1
Model
 70
     1
 71
     0
 10
0.0
 20
0.0
 11
12.0
 21
9.0
 12
0.0
 22
0.0
 32
0.0
 14
1.000000000000000E+20
 24
1.000000000000000E+20
 34
1.000000000000000E+20
 15
-1.000000000000000E+20
 25
-1.000000000000000E+20
 35
-1.000000000000000E+20
146
0.0
 13
0.0
 23
0.0
 33
0.0
 16
1.0
 26
0.0
 36
0.0
 17
0.0
 27
1.0
 37
0.0
 76
     0
330
1F
331
29
  0
MATERIAL
  5
3D
102
{ACAD_REACTORS
330
3B
102
}
330
3B
100
AcDbMaterial
  1
ByBlock
 72
     1
 94
      127
  0
MATERIAL
  5
3C
102
{ACAD_REACTORS
330
3B
102
}
330
3B
100
AcDbMaterial
  1
ByLayer
 72
     1
 94
      127
  0
MATERIAL
  5
3E
102
{ACAD_REACTORS
330
3B
102
}
330
3B
100
AcDbMaterial
  1
Global
 72
     1
 94
      127
  0
MLINESTYLE
  5
18
102
{ACAD_REACTORS
330
17
102
}
330
17
100
AcDbMlineStyle
  2
Standard
 70
     0
  3

 62
   256
 51
90.0
 52
90.0
 71
     2
 49
0.5
 62
   256
  6
BYLAYER
 49
-0.5
 62
   256
  6
BYLAYER
  0
ACDBPLACEHOLDER
  5
F
102
{ACAD_REACTORS
330
E
102
}
330
E
  0
VISUALSTYLE
  5
2F
102
{ACAD_REACTORS
330
2A
102
}
330
2A
100
AcDbVisualStyle
  2
2dWireframe
 70
     4
177
     2
291
     0
 71
     0
176
     1
 72
     2
176
     1
 73
     0
176
     1
 90
        0
176
     1
 40
-0.6
176
     1
 41
-30.0
176
     1
 62
     5
 63
     7
421
 16777215
176
     1
 74
     1
176
     1
 91
        4
176
     1
 64
     7
176
     1
 65
   257
176
     1
 75
     1
176
     1
175
     1
176
     1
 42
1.0
176
     1
 92
        0
176
     1
 66
   257
176
     1
 43
1.0
176
     1
 76
     1
176
     1
 77
     6
176
     1
 78
     2
176
     1
 67
     7
176
     1
 79
     5
176
     1
170
     0
176
     1
171
     0
176
     1
290
     0
176
     1
 93
        1
176
     1
 44
0.0
176
     1
173
     0
176
     1
  0
VISUALSTYLE
  5
31
102
{ACAD_REACTORS
330
2A
102
}
330
2A
100
AcDbVisualStyle
  2
3D Hidden
 70
     6
177
     2
291
     0
 71
     1
176
     1
 72
     2
176
     1
 73
     2
176
     1
 90
        0
176
     1
 40
-0.6
176
     1
 41
-30.0
176
     1
 62
     5
 63
     7
421
 16777215
176
     1
 74
     2
176
     1
 91
        2
176
     1
 64
     7
176
     1
 65
   257
176
     1
 75
     2
176
     1
175
     1
176
     1
 42
40.0
176
     1
 92
        0
176
     1
 66
   257
176
     1
 43
1.0
176
     1
 76
     1
176
     1
 77
     6
176
     1
 78
     2
176
     1
 67
     7
176
     1
 79
     3
176
     1
170
     0
176
     1
171
     0
176
     1
290
     0
176
     1
 93
        1
176
     1
 44
0.0
176
     1
173
     0
176
     1
  0
VISUALSTYLE
  5
30
102
{ACAD_REACTORS
330
2A
102
}
330
2A
100
AcDbVisualStyle
  2
3dWireframe
 70
     5
177
     2
291
     0
 71
     0
176
     1
 72
     2
176
     1
 73
     0
176
     1
 90
        0
176
     1
 40
-0.6
176
     1
 41
-30.0
176
     1
 62
     5
 63
     7
421
 16777215
176
     1
 74
     1
176
     1
 91
        4
176
     1
 64
     7
176
     1
 65
   257
176
     1
 75
     1
176
     1
175
     1
176
     1
 42
1.0
176
     1
 92
        0
176
     1
 66
   257
176
     1
 43
1.0
176
     1
 76
     1
176
     1
 77
     6
176
     1
 78
     2
176
     1
 67
     7
176
     1
 79
     5
176
     1
170
     0
176
     1
171
     0
176
     1
290
     0
176
     1
 93
        1
176
     1
 44
0.0
176
     1
173
     0
176
     1
  0
VISUALSTYLE
  5
32
102
{ACAD_REACTORS
330
2A
102
}
330
2A
100
AcDbVisualStyle
  2
Basic
 70
     7
177
     2
291
     1
 71
     1
176
     1
 72
     0
176
     1
 73
     1
176
     1
 90
        0
176
     1
 40
-0.6
176
     1
 41
-30.0
176
     1
 62
     5
 63
     7
421
 16777215
176
     1
 74
     0
176
     1
 91
        4
176
     1
 64
     7
176
     1
 65
   257
176
     1
 75
     1
176
     1
175
     1
176
     1
 42
1.0
176
     1
 92
        8
176
     1
 66
     7
176
     1
 43
1.0
176
     1
 76
     1
176
     1
 77
     6
176
     1
 78
     2
176
     1
 67
     7
176
     1
 79
     5
176
     1
170
     0
176
     1
171
     0
176
     1
290
     0
176
     1
 93
        1
176
     1
 44
0.0
176
     1
173
     0
176
     1
  0
VISUALSTYLE
  5
36
102
{ACAD_REACTORS
330
2A
102
}
330
2A
100
AcDbVisualStyle
  2
Brighten
 70
    12
177
     2
291
     1
 71
     2
176
     1
 72
     2
176
     1
 73
     0
176
     1
 90
        0
176
     1
 40
-0.6
176
     1
 41
-30.0
176
     1
 62
     5
 63
     7
421
 16777215
176
     1
 74
     1
176
     1
 91
        4
176
     1
 64
     7
176
     1
 65
   257
176
     1
 75
     1
176
     1
175
     1
176
     1
 42
1.0
176
     1
 92
        8
176
     1
 66
     7
176
     1
 43
1.0
176
     1
 76
     1
176
     1
 77
     6
176
     1
 78
     2
176
     1
 67
     7
176
     1
 79
     5
176
     1
170
     0
176
     1
171
     0
176
     1
290
     0
176
     1
 93
        1
176
     1
 44
50.0
176
     1
173
     0
176
     1
  0
VISUALSTYLE
  5
3A
102
{ACAD_REACTORS
330
2A
102
}
330
2A
100
AcDbVisualStyle
  2
ColorChange
 70
    16
177
     2
291
     1
 71
     2
176
     1
 72
     2
176
     1
 73
     3
176
     1
 90
        0
176
     1
 40
-0.6
176
     1
 41
-30.0
176
     1
 62
     5
 63
     8
421
  8421504
176
     1
 74
     1
176
     1
 91
        4
176
     1
 64
     7
176
     1
 65
   257
176
     1
 75
     1
176
     1
175
     1
176
     1
 42
1.0
176
     1
 92
        8
176
     1
 66
     8
424
  8421504
176
     1
 43
1.0
176
     1
 76
     1
176
     1
 77
     6
176
     1
 78
     2
176
     1
 67
     7
176
     1
 79
     5
176
     1
170
     0
176
     1
171
     0
176
     1
290
     0
176
     1
 93
        1
176
     1
 44
0.0
176
     1
173
     0
176
     1
  0
VISUALSTYLE
  5
34
102
{ACAD_REACTORS
330
2A
102
}
330
2A
100
AcDbVisualStyle
  2
Conceptual
 70
     9
177
     2
291
     0
 71
     3
176
     1
 72
     2
176
     1
 73
     0
176
     1
 90
        0
176
     1
 40
-0.6
176
     1
 41
-30.0
176
     1
 62
     5
 63
     7
421
 16777215
176
     1
 74
     2
176
     1
 91
        2
176
     1
 64
     7
176
     1
 65
   257
176
     1
 75
     1
176
     1
175
     1
176
     1
 42
40.0
176
     1
 92
        8
176
     1
 66
     7
176
     1
 43
1.0
176
     1
 76
     1
176
     1
 77
     6
176
     1
 78
     2
176
     1
 67
     7
176
     1
 79
     3
176
     1
170
     0
176
     1
171
     0
176
     1
290
     0
176
     1
 93
        1
176
     1
 44
0.0
176
     1
173
     0
176
     1
  0
VISUALSTYLE
  5
35
102
{ACAD_REACTORS
330
2A
102
}
330
2A
100
AcDbVisualStyle
  2
Dim
 70
    11
177
     2
291
     1
 71
     2
176
     1
 72
     2
176
     1
 73
     0
176
     1
 90
        0
176
     1
 40
-0.6
176
     1
 41
-30.0
176
     1
 62
     5
 63
     7
421
 16777215
176
     1
 74
     1
176
     1
 91
        4
176
     1
 64
     7
176
     1
 65
   257
176
     1
 75
     1
176
     1
175
     1
176
     1
 42
1.0
176
     1
 92
        8
176
     1
 66
     7
176
     1
 43
1.0
176
     1
 76
     1
176
     1
 77
     6
176
     1
 78
     2
176
     1
 67
     7
176
     1
 79
     5
176
     1
170
     0
176
     1
171
     0
176
     1
290
     0
176
     1
 93
        1
176
     1
 44
-50.0
176
     1
173
     0
176
     1
  0
VISUALSTYLE
  5
39
102
{ACAD_REACTORS
330
2A
102
}
330
2A
100
AcDbVisualStyle
  2
Facepattern
 70
    15
177
     2
291
     1
 71
     2
176
     1
 72
     2
176
     1
 73
     0
176
     1
 90
        0
176
     1
 40
-0.6
176
     1
 41
-30.0
176
     1
 62
     5
 63
     7
421
 16777215
176
     1
 74
     1
176
     1
 91
        4
176
     1
 64
     7
176
     1
 65
   257
176
     1
 75
     1
176
     1
175
     1
176
     1
 42
1.0
176
     1
 92
        8
176
     1
 66
     7
176
     1
 43
1.0
176
     1
 76
     1
176
     1
 77
     6
176
     1
 78
     2
176
     1
 67
     7
176
     1
 79
     5
176
     1
170
     0
176
     1
171
     0
176
     1
290
     0
176
     1
 93
        1
176
     1
 44
0.0
176
     1
173
     0
176
     1
  0
VISUALSTYLE
  5
2B
102
{ACAD_REACTORS
330
2A
102
}
330
2A
100
AcDbVisualStyle
  2
Flat
 70
     0
177
     2
291
     1
 71
     2
176
     1
 72
     1
176
     1
 73
     1
176
     1
 90
        2
176
     1
 40
-0.6
176
     1
 41
30.0
176
     1
 62
     5
 63
     7
421
 16777215
176
     1
 74
     0
176
     1
 91
        4
176
     1
 64
     7
176
     1
 65
   257
176
     1
 75
     1
176
     1
175
     1
176
     1
 42
1.0
176
     1
 92
        8
176
     1
 66
     7
176
     1
 43
1.0
176
     1
 76
     1
176
     1
 77
     6
176
     1
 78
     2
176
     1
 67
     7
176
     1
 79
     5
176
     1
170
     0
176
     1
171
     0
176
     1
290
     0
176
     1
 93
       13
176
     1
 44
0.0
176
     1
173
     0
176
     1
  0
VISUALSTYLE
  5
2C
102
{ACAD_REACTORS
330
2A
102
}
330
2A
100
AcDbVisualStyle
  2
FlatWithEdges
 70
     1
177
     2
291
     1
 71
     2
176
     1
 72
     1
176
     1
 73
     1
176
     1
 90
        2
176
     1
 40
-0.6
176
     1
 41
30.0
176
     1
 62
     5
 63
     7
421
 16777215
176
     1
 74
     1
176
     1
 91
        4
176
     1
 64
     7
176
     1
 65
   257
176
     1
 75
     1
176
     1
175
     1
176
     1
 42
1.0
176
     1
 92
        0
176
     1
 66
   257
176
     1
 43
1.0
176
     1
 76
     1
176
     1
 77
     6
176
     1
 78
     2
176
     1
 67
     7
176
     1
 79
     5
176
     1
170
     0
176
     1
171
     0
176
     1
290
     0
176
     1
 93
       13
176
     1
 44
0.0
176
     1
173
     0
176
     1
  0
VISUALSTYLE
  5
2D
102
{ACAD_REACTORS
330
2A
102
}
330
2A
100
AcDbVisualStyle
  2
Gouraud
 70
     2
177
     2
291
     1
 71
     2
176
     1
 72
     2
176
     1
 73
     1
176
     1
 90
        2
176
     1
 40
-0.6
176
     1
 41
30.0
176
     1
 62
     5
 63
     7
421
 16777215
176
     1
 74
     0
176
     1
 91
        4
176
     1
 64
     7
176
     1
 65
   257
176
     1
 75
     1
176
     1
175
     1
176
     1
 42
1.0
176
     1
 92
        0
176
     1
 66
     7
176
     1
 43
1.0
176
     1
 76
     1
176
     1
 77
     6
176
     1
 78
     2
176
     1
 67
     7
176
     1
 79
     5
176
     1
170
     0
176
     1
171
     0
176
     1
290
     0
176
     1
 93
       13
176
     1
 44
0.0
176
     1
173
     0
176
     1
  0
VISUALSTYLE
  5
2E
102
{ACAD_REACTORS
330
2A
102
}
330
2A
100
AcDbVisualStyle
  2
GouraudWithEdges
 70
     3
177
     2
291
     1
 71
     2
176
     1
 72
     2
176
     1
 73
     1
176
     1
 90
        2
176
     1
 40
-0.6
176
     1
 41
30.0
176
     1
 62
     5
 63
     7
421
 16777215
176
     1
 74
     1
176
     1
 91
        4
176
     1
 64
     7
176
     1
 65
   257
176
     1
 75
     1
176
     1
175
     1
176
     1
 42
1.0
176
     1
 92
        0
176
     1
 66
   257
176
     1
 43
1.0
176
     1
 76
     1
176
     1
 77
     6
176
     1
 78
     2
176
     1
 67
     7
176
     1
 79
     5
176
     1
170
     0
176
     1
171
     0
176
     1
290
     0
176
     1
 93
       13
176
     1
 44
0.0
176
     1
173
     0
176
     1
  0
VISUALSTYLE
  5
38
102
{ACAD_REACTORS
330
2A
102
}
330
2A
100
AcDbVisualStyle
  2
Linepattern
 70
    14
177
     2
291
     1
 71
     2
176
     1
 72
     2
176
     1
 73
     0
176
     1
 90
        0
176
     1
 40
-0.6
176
     1
 41
-30.0
176
     1
 62
     5
 63
     7
421
 16777215
176
     1
 74
     1
176
     1
 91
        4
176
     1
 64
     7
176
     1
 65
   257
176
     1
 75
     7
176
     1
175
     7
176
     1
 42
1.0
176
     1
 92
        8
176
     1
 66
     7
176
     1
 43
1.0
176
     1
 76
     1
176
     1
 77
     6
176
     1
 78
     2
176
     1
 67
     7
176
     1
 79
     5
176
     1
170
     0
176
     1
171
     0
176
     1
290
     0
176
     1
 93
        1
176
     1
 44
0.0
176
     1
173
     0
176
     1
  0
VISUALSTYLE
  5
33
102
{ACAD_REACTORS
330
2A
102
}
330
2A
100
AcDbVisualStyle
  2
Realistic
 70
     8
177
     2
291
     0
 71
     2
176
     1
 72
     2
176
     1
 73
     0
176
     1
 90
        0
176
     1
 40
-0.6
176
     1
 41
-30.0
176
     1
 62
     5
 63
     7
421
 16777215
176
     1
 74
     1
176
     1
 91
        0
176
     1
 64
     7
176
     1
 65
   257
176
     1
 75
     1
176
     1
175
     1
176
     1
 42
1.0
176
     1
 92
        8
176
     1
 66
     8
424
  7895160
176
     1
 43
1.0
176
     1
 76
     1
176
     1
 77
     6
176
     1
 78
     2
176
     1
 67
     7
176
     1
 79
     5
176
     1
170
     0
176
     1
171
     0
176
     1
290
     0
176
     1
 93
       13
176
     1
 44
0.0
176
     1
173
     0
176
     1
  0
VISUALSTYLE
  5
37
102
{ACAD_REACTORS
330
2A
102
}
330
2A
100
AcDbVisualStyle
  2
Thicken
 70
    13
177
     2
291
     1
 71
     2
176
     1
 72
     2
176
     1
 73
     0
176
     1
 90
        0
176
     1
 40
-0.6
176
     1
 41
-30.0
176
     1
 62
     5
 63
     7
421
 16777215
176
     1
 74
     1
176
     1
 91
        4
176
     1
 64
     7
176
     1
 65
   257
176
     1
 75
     1
176
     1
175
     1
176
     1
 42
1.0
176
     1
 92
       12
176
     1
 66
     7
176
     1
 43
1.0
176
     1
 76
     1
176
     1
 77
     6
176
     1
 78
     2
176
     1
 67
     7
176
     1
 79
     5
176
     1
170
     0
176
     1
171
     0
176
     1
290
     0
176
     1
 93
        1
176
     1
 44
0.0
176
     1
173
     0
176
     1
  0
ENDSEC
  0
EOF
