<?xml version="1.0" encoding="utf-8"?>
<!-- Generator: Adobe Illustrator 21.0.0, SVG Export Plug-In . SVG Version: 6.00 Build 0)  -->
<svg version="1.1" id="Calque_1" xmlns="http://www.w3.org/2000/svg" xmlns:xlink="http://www.w3.org/1999/xlink" x="0px" y="0px"
	 viewBox="0 0 1729.1 1295.4" style="enable-background:new 0 0 1729.1 1295.4;" xml:space="preserve">
<style type="text/css">
	.st0{fill:none;stroke:#000000;stroke-width:0.1;stroke-linecap:round;stroke-linejoin:round;stroke-miterlimit:10;}
</style>
<path class="st0" d="M131.9,336l-1-2.6l-0.7-2.6l-0.3-2.8l0-2.8l0.5-2.7l0.8-2.7l1.1-2.5l1.4-2.4 M133.8,314.8l123.1-175.7
	 M256.9,139.1l4.2-5.4l4.8-4.8l5.2-4.4l5.7-3.8l6-3.1l6.4-2.5l6.6-1.7l6.7-1.1l6.8-0.3 M309.3,112l550.9,1.8 M860.2,113.8l0.1-28.4
	 M860.3,85.5l-550.9-1.8 M309.4,83.7l-8,0.3l-8,1l-7.8,1.7l-7.7,2.4l-7.5,3.1l-7.2,3.7l-6.8,4.3l-6.4,4.8l-6,5.5l-5.4,5.9l-5,6.4
	 M233.6,122.9l-123,175.6 M110.6,298.5l-3,5l-2.5,5.1l-1.9,5.5l-1.2,5.7l-0.4,5.7l0.1,5.7l0.8,5.8l1.5,5.6l2.2,5.3 M106.2,348
	l49.4,106.2 M155.6,454.2l25.7-12 M181.3,442.2L131.9,336"/>
<path class="st0" d="M185.1,368.2l-1-2.6l-0.7-2.6l-0.3-2.8l0-2.8l0.5-2.7l0.8-2.7l1.1-2.5l1.4-2.4 M186.9,347l123.1-175.7
	 M310.1,171.3l4.2-5.4l4.8-4.8l5.2-4.4l5.7-3.8l6-3.1l6.4-2.5l6.6-1.7l6.7-1.1l6.8-0.3 M362.5,144.2l550.9,1.8 M913.4,146l0.1-28.4
	 M913.5,117.7l-550.9-1.8 M362.6,115.8l-8,0.3l-8,1l-7.8,1.7l-7.7,2.4l-7.5,3.1l-7.2,3.7l-6.8,4.3l-6.4,4.8l-6,5.5l-5.4,5.9l-5,6.4
	 M286.8,155.1l-123,175.6 M163.8,330.7l-3,5l-2.5,5.1l-1.9,5.5l-1.2,5.7l-0.4,5.7l0.1,5.7l0.8,5.8l1.5,5.6l2.2,5.3 M159.4,380.1
	l49.4,106.2 M208.8,486.4l25.7-12 M234.5,474.4l-49.4-106.2"/>
<path class="st0" d="M220.2,38.6l536.6,1.8 M756.9,40.4l0.1-14.2 M756.9,26.2l-536.7-1.7 M220.2,24.5l-7.4,0.3l-7.4,0.8l-7.2,1.5
	l-7.2,2l-6.8,2.6l-6.8,3.1l-6.4,3.7l-6.1,4.1l-5.7,4.6l-5.4,5.1l-5,5.5l-4.5,5.9 M144.5,63.7L21.4,239.2 M21.4,239.2l-3,5l-2.4,5.2
	l-1.9,5.5l-1.2,5.6l-0.4,5.7l0.2,5.8l0.8,5.7l1.5,5.6l2.2,5.3 M17,288.7L66.5,395 M66.5,395l12.8-6 M79.3,389L29.9,282.7
	 M29.9,282.7l-1.7-4.3l-1.1-4.4l-0.5-4.7l0.1-4.6l0.7-4.6l1.3-4.5l1.9-4.2l2.4-4 M33,247.4L156.1,71.7 M156.1,71.7l4.2-5.4l4.6-5.1
	l5-4.6l5.5-4.1l5.7-3.7l6.1-3.2l6.3-2.6l6.5-2l6.7-1.4l6.8-0.9l6.9-0.2"/>
<path class="st0" d="M248.3,55.9l536.6,1.8 M784.9,57.7l0.1-14.2 M785,43.5l-536.7-1.7 M248.3,41.8l-7.4,0.3l-7.4,0.8l-7.2,1.5
	l-7.2,2l-6.8,2.6l-6.8,3.1l-6.4,3.7l-6.1,4.1l-5.7,4.6l-5.4,5.1l-5,5.5l-4.5,5.9 M172.5,81L49.4,256.6 M49.4,256.6l-3,5l-2.4,5.2
	l-1.9,5.5l-1.2,5.6l-0.4,5.7l0.2,5.8l0.8,5.7l1.5,5.6l2.2,5.3 M45.1,306l49.5,106.3 M94.5,412.3l12.8-6 M107.4,406.3L57.9,300
	 M57.9,300l-1.7-4.3l-1.1-4.4l-0.5-4.7l0.1-4.6l0.7-4.6l1.3-4.5l1.9-4.2l2.4-4 M61,264.7L184.1,89.1 M184.1,89.1l4.2-5.4l4.6-5.1
	l5-4.6l5.5-4.1l5.7-3.7l6.1-3.2l6.3-2.6l6.5-2l6.7-1.4l6.8-0.9l6.9-0.2"/>
<path class="st0" d="M280.2,77.6l536.6,1.8 M816.8,79.4l0.1-14.2 M816.9,65.2l-536.7-1.7 M280.2,63.5l-7.4,0.3l-7.4,0.8l-7.2,1.5
	l-7.2,2l-6.8,2.6l-6.8,3.1l-6.4,3.7l-6.1,4.1l-5.7,4.6l-5.4,5.1l-5,5.5l-4.5,5.9 M204.4,102.7L81.3,278.3 M81.3,278.3l-3,5l-2.4,5.2
	L74,294l-1.2,5.6l-0.4,5.7l0.2,5.8l0.8,5.7l1.5,5.6l2.2,5.3 M77,327.7L126.5,434 M126.5,434l12.8-6 M139.3,428L89.8,321.7
	 M89.8,321.7l-1.7-4.3l-1.1-4.4l-0.5-4.7l0.1-4.6l0.7-4.6l1.3-4.5l1.9-4.2l2.4-4 M93,286.4l123.1-175.7 M216.1,110.8l4.2-5.4
	l4.6-5.1l5-4.6l5.5-4.1l5.7-3.7l6.1-3.2l6.3-2.6l6.5-2l6.7-1.4l6.8-0.9l6.9-0.2"/>
<g>
	<rect x="470.2" y="172.8" class="st0" width="39.7" height="28.3"/>
	<rect x="485.8" y="155.1" class="st0" width="8.5" height="28.3"/>
	<path class="st0" d="M622,325.2H358c-5.4,0-9.7-4.4-9.7-9.7V164.8c0-5.4,4.4-9.7,9.7-9.7h264c5.4,0,9.7,4.4,9.7,9.7v150.6
		C631.8,320.8,627.4,325.2,622,325.2z"/>
</g>
</svg>
