<?xml version="1.0" encoding="utf-8"?>
<!-- Generator: Adobe Illustrator 21.0.0, SVG Export Plug-In . SVG Version: 6.00 Build 0)  -->
<svg version="1.1" id="Calque_1" xmlns="http://www.w3.org/2000/svg" xmlns:xlink="http://www.w3.org/1999/xlink" x="0px" y="0px"
	 viewBox="0 0 1726.3 1292.6" style="enable-background:new 0 0 1726.3 1292.6;" xml:space="preserve">
<style type="text/css">
	.st0{fill:none;stroke:#010202;stroke-linecap:round;stroke-linejoin:round;stroke-miterlimit:10;}
</style>
<g id="INSERT_16_">
	<g id="LINE_592_">
		<line class="st0" x1="21.1" y1="637.1" x2="63.7" y2="637.1"/>
	</g>
	<g id="ARC_40_">
		<path class="st0" d="M95.6,605.2c-17.6,0-31.9,14.3-31.9,31.9"/>
	</g>
	<g id="LINE_587_">
		<line class="st0" x1="95.6" y1="605.2" x2="223.4" y2="605.2"/>
	</g>
	<g id="ARC_28_">
		<path class="st0" d="M255.3,637.1c0-17.6-14.3-31.9-31.9-31.9"/>
	</g>
	<g id="LINE_586_">
		<line class="st0" x1="255.3" y1="637.1" x2="297.9" y2="637.1"/>
	</g>
	<g id="LINE_585_">
		<line class="st0" x1="297.9" y1="637.1" x2="297.9" y2="615.8"/>
	</g>
	<g id="LINE_584_">
		<line class="st0" x1="79.7" y1="586" x2="47.7" y2="586"/>
	</g>
	<g id="LINE_306_">
		<line class="st0" x1="79.7" y1="594.5" x2="79.7" y2="586"/>
	</g>
	<g id="LINE_305_">
		<line class="st0" x1="47.7" y1="594.5" x2="79.7" y2="594.5"/>
	</g>
	<g id="LINE_304_">
		<line class="st0" x1="47.7" y1="586" x2="47.7" y2="594.5"/>
	</g>
	<g id="LINE_303_">
		<line class="st0" x1="143.5" y1="594.5" x2="111.6" y2="594.5"/>
	</g>
	<g id="LINE_302_">
		<line class="st0" x1="143.5" y1="586" x2="143.5" y2="594.5"/>
	</g>
	<g id="LINE_301_">
		<line class="st0" x1="111.6" y1="586" x2="143.5" y2="586"/>
	</g>
	<g id="LINE_300_">
		<line class="st0" x1="111.6" y1="594.5" x2="111.6" y2="586"/>
	</g>
	<g id="LINE_299_">
		<line class="st0" x1="207.4" y1="594.5" x2="175.5" y2="594.5"/>
	</g>
	<g id="LINE_298_">
		<line class="st0" x1="207.4" y1="586" x2="207.4" y2="594.5"/>
	</g>
	<g id="LINE_297_">
		<line class="st0" x1="175.5" y1="586" x2="207.4" y2="586"/>
	</g>
	<g id="LINE_296_">
		<line class="st0" x1="175.5" y1="594.5" x2="175.5" y2="586"/>
	</g>
	<g id="LINE_295_">
		<line class="st0" x1="271.3" y1="594.5" x2="239.4" y2="594.5"/>
	</g>
	<g id="LINE_294_">
		<line class="st0" x1="271.3" y1="586" x2="271.3" y2="594.5"/>
	</g>
	<g id="LINE_293_">
		<line class="st0" x1="239.4" y1="586" x2="271.3" y2="586"/>
	</g>
	<g id="LINE_292_">
		<line class="st0" x1="239.4" y1="594.5" x2="239.4" y2="586"/>
	</g>
	<g id="LINE_291_">
		<line class="st0" x1="297.9" y1="551.9" x2="297.9" y2="530.6"/>
	</g>
	<g id="LINE_290_">
		<line class="st0" x1="289.4" y1="573.2" x2="297.9" y2="573.2"/>
	</g>
	<g id="LINE_289_">
		<line class="st0" x1="297.9" y1="551.9" x2="289.4" y2="551.9"/>
	</g>
	<g id="LINE_288_">
		<line class="st0" x1="289.4" y1="551.9" x2="289.4" y2="573.2"/>
	</g>
	<g id="LINE_287_">
		<line class="st0" x1="297.9" y1="509.4" x2="297.9" y2="488.1"/>
	</g>
	<g id="LINE_286_">
		<line class="st0" x1="289.4" y1="530.6" x2="297.9" y2="530.6"/>
	</g>
	<g id="LINE_285_">
		<line class="st0" x1="297.9" y1="509.4" x2="289.4" y2="509.4"/>
	</g>
	<g id="LINE_284_">
		<line class="st0" x1="289.4" y1="509.4" x2="289.4" y2="530.6"/>
	</g>
	<g id="LINE_283_">
		<line class="st0" x1="297.9" y1="594.5" x2="297.9" y2="573.2"/>
	</g>
	<g id="LINE_282_">
		<line class="st0" x1="289.4" y1="615.8" x2="289.4" y2="594.5"/>
	</g>
	<g id="LINE_281_">
		<line class="st0" x1="297.9" y1="615.8" x2="289.4" y2="615.8"/>
	</g>
	<g id="LINE_280_">
		<line class="st0" x1="289.4" y1="594.5" x2="297.9" y2="594.5"/>
	</g>
	<g id="LINE_279_">
		<line class="st0" x1="289.4" y1="462.5" x2="29.6" y2="462.5"/>
	</g>
	<g id="LINE_278_">
		<line class="st0" x1="297.9" y1="488.1" x2="289.4" y2="488.1"/>
	</g>
	<g id="LINE_277_">
		<line class="st0" x1="289.4" y1="488.1" x2="289.4" y2="462.5"/>
	</g>
	<g id="LINE_276_">
		<line class="st0" x1="21.1" y1="573.2" x2="21.1" y2="594.5"/>
	</g>
	<g id="LINE_275_">
		<line class="st0" x1="29.6" y1="551.9" x2="21.1" y2="551.9"/>
	</g>
	<g id="LINE_274_">
		<line class="st0" x1="21.1" y1="573.2" x2="29.6" y2="573.2"/>
	</g>
	<g id="LINE_273_">
		<line class="st0" x1="29.6" y1="573.2" x2="29.6" y2="551.9"/>
	</g>
	<g id="LINE_272_">
		<line class="st0" x1="21.1" y1="530.6" x2="21.1" y2="551.9"/>
	</g>
	<g id="LINE_271_">
		<line class="st0" x1="29.6" y1="509.4" x2="21.1" y2="509.4"/>
	</g>
	<g id="LINE_270_">
		<line class="st0" x1="21.1" y1="530.6" x2="29.6" y2="530.6"/>
	</g>
	<g id="LINE_269_">
		<line class="st0" x1="29.6" y1="530.6" x2="29.6" y2="509.4"/>
	</g>
	<g id="LINE_268_">
		<line class="st0" x1="21.1" y1="615.8" x2="21.1" y2="637.1"/>
	</g>
	<g id="LINE_267_">
		<line class="st0" x1="29.6" y1="594.5" x2="29.6" y2="615.8"/>
	</g>
	<g id="LINE_266_">
		<line class="st0" x1="29.6" y1="615.8" x2="21.1" y2="615.8"/>
	</g>
	<g id="LINE_265_">
		<line class="st0" x1="21.1" y1="594.5" x2="29.6" y2="594.5"/>
	</g>
	<g id="LINE_264_">
		<line class="st0" x1="21.1" y1="488.1" x2="21.1" y2="509.4"/>
	</g>
	<g id="LINE_263_">
		<line class="st0" x1="29.6" y1="488.1" x2="21.1" y2="488.1"/>
	</g>
	<g id="LINE_262_">
		<line class="st0" x1="29.6" y1="462.5" x2="29.6" y2="488.1"/>
	</g>
</g>
<g id="INSERT_7_">
	<g id="LINE_261_">
		<line class="st0" x1="287.8" y1="239.3" x2="269.7" y2="239.3"/>
	</g>
	<g id="LINE_260_">
		<line class="st0" x1="28" y1="239.3" x2="28" y2="210.6"/>
	</g>
	<g id="LINE_259_">
		<line class="st0" x1="28" y1="22.1" x2="46.1" y2="22.1"/>
	</g>
	<g id="LINE_258_">
		<line class="st0" x1="287.8" y1="22.1" x2="287.8" y2="50.9"/>
	</g>
	<g id="LINE_257_">
		<line class="st0" x1="287.8" y1="146.7" x2="287.8" y2="178.6"/>
	</g>
	<g id="LINE_256_">
		<line class="st0" x1="287.8" y1="146.7" x2="296.3" y2="146.7"/>
	</g>
	<g id="LINE_255_">
		<line class="st0" x1="296.3" y1="114.7" x2="287.8" y2="114.7"/>
	</g>
	<g id="LINE_254_">
		<line class="st0" x1="296.3" y1="146.7" x2="296.3" y2="114.7"/>
	</g>
	<g id="LINE_253_">
		<line class="st0" x1="287.8" y1="82.8" x2="287.8" y2="114.7"/>
	</g>
	<g id="LINE_252_">
		<line class="st0" x1="287.8" y1="82.8" x2="296.3" y2="82.8"/>
	</g>
	<g id="LINE_251_">
		<line class="st0" x1="296.3" y1="50.9" x2="287.8" y2="50.9"/>
	</g>
	<g id="LINE_250_">
		<line class="st0" x1="296.3" y1="82.8" x2="296.3" y2="50.9"/>
	</g>
	<g id="LINE_249_">
		<line class="st0" x1="287.8" y1="210.6" x2="287.8" y2="239.3"/>
	</g>
	<g id="LINE_248_">
		<line class="st0" x1="287.8" y1="210.6" x2="296.3" y2="210.6"/>
	</g>
	<g id="LINE_247_">
		<line class="st0" x1="296.3" y1="178.6" x2="287.8" y2="178.6"/>
	</g>
	<g id="LINE_231_">
		<line class="st0" x1="296.3" y1="210.6" x2="296.3" y2="178.6"/>
	</g>
	<g id="LINE_230_">
		<line class="st0" x1="28" y1="114.7" x2="28" y2="82.8"/>
	</g>
	<g id="LINE_229_">
		<line class="st0" x1="28" y1="114.7" x2="19.5" y2="114.7"/>
	</g>
	<g id="LINE_228_">
		<line class="st0" x1="19.5" y1="146.7" x2="28" y2="146.7"/>
	</g>
	<g id="LINE_227_">
		<line class="st0" x1="19.5" y1="114.7" x2="19.5" y2="146.7"/>
	</g>
	<g id="LINE_226_">
		<line class="st0" x1="28" y1="50.9" x2="28" y2="22.1"/>
	</g>
	<g id="LINE_225_">
		<line class="st0" x1="28" y1="50.9" x2="19.5" y2="50.9"/>
	</g>
	<g id="LINE_224_">
		<line class="st0" x1="19.5" y1="82.8" x2="28" y2="82.8"/>
	</g>
	<g id="LINE_223_">
		<line class="st0" x1="19.5" y1="50.9" x2="19.5" y2="82.8"/>
	</g>
	<g id="LINE_222_">
		<line class="st0" x1="28" y1="178.6" x2="28" y2="146.7"/>
	</g>
	<g id="LINE_221_">
		<line class="st0" x1="28" y1="178.6" x2="19.5" y2="178.6"/>
	</g>
	<g id="LINE_220_">
		<line class="st0" x1="19.5" y1="210.6" x2="28" y2="210.6"/>
	</g>
	<g id="LINE_219_">
		<line class="st0" x1="19.5" y1="178.6" x2="19.5" y2="210.6"/>
	</g>
	<g id="LINE_218_">
		<line class="st0" x1="173.9" y1="239.3" x2="142" y2="239.3"/>
	</g>
	<g id="LINE_217_">
		<line class="st0" x1="205.8" y1="239.3" x2="205.8" y2="247.8"/>
	</g>
	<g id="LINE_216_">
		<line class="st0" x1="205.8" y1="247.8" x2="173.9" y2="247.8"/>
	</g>
	<g id="LINE_215_">
		<line class="st0" x1="173.9" y1="247.8" x2="173.9" y2="239.3"/>
	</g>
	<g id="LINE_214_">
		<line class="st0" x1="237.8" y1="239.3" x2="205.8" y2="239.3"/>
	</g>
	<g id="LINE_213_">
		<line class="st0" x1="269.7" y1="239.3" x2="269.7" y2="247.7"/>
	</g>
	<g id="LINE_212_">
		<line class="st0" x1="269.7" y1="247.7" x2="237.8" y2="247.7"/>
	</g>
	<g id="LINE_211_">
		<line class="st0" x1="237.8" y1="247.7" x2="237.8" y2="239.3"/>
	</g>
	<g id="LINE_210_">
		<line class="st0" x1="110" y1="239.3" x2="78.1" y2="239.3"/>
	</g>
	<g id="LINE_209_">
		<line class="st0" x1="142" y1="239.3" x2="142" y2="247.7"/>
	</g>
	<g id="LINE_208_">
		<line class="st0" x1="142" y1="247.7" x2="110" y2="247.7"/>
	</g>
	<g id="LINE_207_">
		<line class="st0" x1="110" y1="247.7" x2="110" y2="239.3"/>
	</g>
	<g id="LINE_206_">
		<line class="st0" x1="46.1" y1="239.3" x2="28" y2="239.3"/>
	</g>
	<g id="LINE_205_">
		<line class="st0" x1="78.1" y1="239.3" x2="78.1" y2="247.7"/>
	</g>
	<g id="LINE_204_">
		<line class="st0" x1="78.1" y1="247.7" x2="46.1" y2="247.7"/>
	</g>
	<g id="LINE_203_">
		<line class="st0" x1="46.1" y1="247.7" x2="46.1" y2="239.3"/>
	</g>
	<g id="LINE_202_">
		<line class="st0" x1="205.8" y1="22.1" x2="237.8" y2="22.1"/>
	</g>
	<g id="LINE_201_">
		<line class="st0" x1="173.9" y1="22.1" x2="173.9" y2="13.6"/>
	</g>
	<g id="LINE_200_">
		<line class="st0" x1="173.9" y1="13.6" x2="205.8" y2="13.6"/>
	</g>
	<g id="LINE_199_">
		<line class="st0" x1="205.8" y1="13.6" x2="205.8" y2="22.1"/>
	</g>
	<g id="LINE_198_">
		<line class="st0" x1="269.7" y1="22.1" x2="287.8" y2="22.1"/>
	</g>
	<g id="LINE_197_">
		<line class="st0" x1="237.8" y1="22.1" x2="237.8" y2="13.8"/>
	</g>
	<g id="LINE_196_">
		<line class="st0" x1="237.8" y1="13.8" x2="269.7" y2="13.8"/>
	</g>
	<g id="LINE_195_">
		<line class="st0" x1="269.7" y1="13.8" x2="269.7" y2="22.1"/>
	</g>
	<g id="LINE_194_">
		<line class="st0" x1="142" y1="22.1" x2="173.9" y2="22.1"/>
	</g>
	<g id="LINE_193_">
		<line class="st0" x1="110" y1="22.1" x2="110" y2="13.8"/>
	</g>
	<g id="LINE_192_">
		<line class="st0" x1="110" y1="13.8" x2="142" y2="13.8"/>
	</g>
	<g id="LINE_191_">
		<line class="st0" x1="142" y1="13.8" x2="142" y2="22.1"/>
	</g>
	<g id="LINE_190_">
		<line class="st0" x1="78.1" y1="22.1" x2="110" y2="22.1"/>
	</g>
	<g id="LINE_189_">
		<line class="st0" x1="46.1" y1="22.1" x2="46.1" y2="13.8"/>
	</g>
	<g id="LINE_188_">
		<line class="st0" x1="46.1" y1="13.8" x2="78.1" y2="13.8"/>
	</g>
	<g id="LINE_187_">
		<line class="st0" x1="78.1" y1="13.8" x2="78.1" y2="22.1"/>
	</g>
</g>
<g id="INSERT_6_">
	<g id="ARC_27_">
		<path class="st0" d="M62.1,455.6"/>
	</g>
	<g id="ARC_26_">
		<path class="st0" d="M253.8,455.6"/>
	</g>
	<g id="LINE_186_">
		<path class="st0" d="M296.3,455.6"/>
		<path class="st0" d="M253.8,455.6"/>
	</g>
	<g id="LINE_185_">
		<path class="st0" d="M296.3,455.6"/>
	</g>
	<g id="LINE_184_">
		<path class="st0" d="M19.5,455.6"/>
	</g>
</g>
<g id="INSERT_5_">
	<g id="LINE_183_">
		<line class="st0" x1="586.5" y1="524.3" x2="586.5" y2="696.8"/>
	</g>
	<g id="LINE_182_">
		<line class="st0" x1="586.5" y1="492.3" x2="578" y2="492.3"/>
	</g>
	<g id="LINE_181_">
		<line class="st0" x1="578" y1="492.3" x2="578" y2="524.3"/>
	</g>
	<g id="LINE_180_">
		<line class="st0" x1="578" y1="524.3" x2="586.5" y2="524.3"/>
	</g>
	<g id="LINE_179_">
		<line class="st0" x1="586.5" y1="471" x2="586.5" y2="492.3"/>
	</g>
	<g id="LINE_178_">
		<line class="st0" x1="578" y1="462.5" x2="578" y2="471"/>
	</g>
	<g id="LINE_177_">
		<line class="st0" x1="578" y1="471" x2="586.5" y2="471"/>
	</g>
	<g id="LINE_176_">
		<line class="st0" x1="309.7" y1="492.3" x2="309.7" y2="471"/>
	</g>
	<g id="LINE_175_">
		<line class="st0" x1="318.2" y1="492.3" x2="309.7" y2="492.3"/>
	</g>
	<g id="LINE_174_">
		<line class="st0" x1="309.7" y1="524.3" x2="318.2" y2="524.3"/>
	</g>
	<g id="LINE_173_">
		<line class="st0" x1="318.2" y1="524.3" x2="318.2" y2="492.3"/>
	</g>
	<g id="LINE_172_">
		<line class="st0" x1="318.2" y1="462.5" x2="578" y2="462.5"/>
	</g>
	<g id="LINE_171_">
		<line class="st0" x1="309.7" y1="471" x2="318.2" y2="471"/>
	</g>
	<g id="LINE_170_">
		<line class="st0" x1="318.2" y1="471" x2="318.2" y2="462.5"/>
	</g>
	<g id="LINE_169_">
		<line class="st0" x1="466.2" y1="688.2" x2="466.2" y2="696.8"/>
	</g>
	<g id="LINE_168_">
		<line class="st0" x1="466.2" y1="696.8" x2="430" y2="696.8"/>
	</g>
	<g id="LINE_167_">
		<line class="st0" x1="430" y1="696.8" x2="430" y2="688.2"/>
	</g>
	<g id="LINE_166_">
		<line class="st0" x1="430" y1="688.2" x2="466.2" y2="688.2"/>
	</g>
	<g id="LINE_165_">
		<line class="st0" x1="578" y1="705.3" x2="318.2" y2="705.3"/>
	</g>
	<g id="ARC_25_">
		<path class="st0" d="M578,705.3c4.7,0,8.5-3.8,8.5-8.5"/>
	</g>
	<g id="LINE_164_">
		<line class="st0" x1="309.7" y1="696.8" x2="309.7" y2="524.3"/>
	</g>
	<g id="ARC_24_">
		<path class="st0" d="M309.7,696.8c0,4.7,3.8,8.5,8.5,8.5"/>
	</g>
</g>
<g id="INSERT_4_">
	<g id="LINE_163_">
		<line class="st0" x1="305.5" y1="45.7" x2="305.5" y2="71.2"/>
	</g>
	<g id="ARC_23_">
		<path class="st0" d="M380,188.4c-17.6,0-31.9,14.3-31.9,31.9"/>
	</g>
	<g id="LINE_162_">
		<line class="st0" x1="380" y1="188.4" x2="465.2" y2="188.4"/>
	</g>
	<g id="ARC_22_">
		<path class="st0" d="M497.1,220.3c0-17.6-14.3-31.9-31.9-31.9"/>
	</g>
	<g id="LINE_161_">
		<line class="st0" x1="497.1" y1="220.3" x2="531.2" y2="220.3"/>
	</g>
	<g id="LINE_160_">
		<line class="st0" x1="374.7" y1="169.2" x2="342.7" y2="169.2"/>
	</g>
	<g id="LINE_159_">
		<line class="st0" x1="374.7" y1="177.7" x2="374.7" y2="169.2"/>
	</g>
	<g id="LINE_158_">
		<line class="st0" x1="342.7" y1="177.7" x2="374.7" y2="177.7"/>
	</g>
	<g id="LINE_157_">
		<line class="st0" x1="342.7" y1="169.2" x2="342.7" y2="177.7"/>
	</g>
	<g id="LINE_156_">
		<line class="st0" x1="438.5" y1="177.7" x2="406.6" y2="177.7"/>
	</g>
	<g id="LINE_155_">
		<line class="st0" x1="438.5" y1="169.2" x2="438.5" y2="177.7"/>
	</g>
	<g id="LINE_154_">
		<line class="st0" x1="406.6" y1="169.2" x2="438.5" y2="169.2"/>
	</g>
	<g id="LINE_153_">
		<line class="st0" x1="406.6" y1="177.7" x2="406.6" y2="169.2"/>
	</g>
	<g id="LINE_152_">
		<line class="st0" x1="502.4" y1="177.7" x2="470.5" y2="177.7"/>
	</g>
	<g id="LINE_151_">
		<line class="st0" x1="502.4" y1="169.2" x2="502.4" y2="177.7"/>
	</g>
	<g id="LINE_150_">
		<line class="st0" x1="470.5" y1="169.2" x2="502.4" y2="169.2"/>
	</g>
	<g id="LINE_149_">
		<line class="st0" x1="470.5" y1="177.7" x2="470.5" y2="169.2"/>
	</g>
	<g id="LINE_148_">
		<line class="st0" x1="539.7" y1="156.4" x2="539.7" y2="135.1"/>
	</g>
	<g id="LINE_147_">
		<line class="st0" x1="531.2" y1="177.7" x2="539.7" y2="177.7"/>
	</g>
	<g id="LINE_146_">
		<line class="st0" x1="539.7" y1="156.4" x2="531.2" y2="156.4"/>
	</g>
	<g id="LINE_145_">
		<line class="st0" x1="531.2" y1="156.4" x2="531.2" y2="177.7"/>
	</g>
	<g id="LINE_144_">
		<line class="st0" x1="539.7" y1="113.8" x2="539.7" y2="92.5"/>
	</g>
	<g id="LINE_143_">
		<line class="st0" x1="531.2" y1="135.1" x2="539.7" y2="135.1"/>
	</g>
	<g id="LINE_142_">
		<line class="st0" x1="539.7" y1="113.8" x2="531.2" y2="113.8"/>
	</g>
	<g id="LINE_141_">
		<line class="st0" x1="531.2" y1="113.8" x2="531.2" y2="135.1"/>
	</g>
	<g id="LINE_140_">
		<line class="st0" x1="539.7" y1="199" x2="539.7" y2="177.7"/>
	</g>
	<g id="LINE_139_">
		<line class="st0" x1="531.2" y1="220.3" x2="531.2" y2="199"/>
	</g>
	<g id="LINE_138_">
		<line class="st0" x1="531.2" y1="199" x2="539.7" y2="199"/>
	</g>
	<g id="LINE_137_">
		<line class="st0" x1="539.7" y1="71.2" x2="539.7" y2="45.7"/>
	</g>
	<g id="LINE_136_">
		<line class="st0" x1="531.2" y1="92.5" x2="531.2" y2="71.2"/>
	</g>
	<g id="LINE_135_">
		<line class="st0" x1="539.7" y1="92.5" x2="531.2" y2="92.5"/>
	</g>
	<g id="LINE_134_">
		<line class="st0" x1="531.2" y1="71.2" x2="539.7" y2="71.2"/>
	</g>
	<g id="LINE_133_">
		<line class="st0" x1="305.5" y1="177.7" x2="305.5" y2="199"/>
	</g>
	<g id="LINE_132_">
		<line class="st0" x1="314" y1="156.4" x2="305.5" y2="156.4"/>
	</g>
	<g id="LINE_131_">
		<line class="st0" x1="305.5" y1="177.7" x2="314" y2="177.7"/>
	</g>
	<g id="LINE_130_">
		<line class="st0" x1="314" y1="177.7" x2="314" y2="156.4"/>
	</g>
	<g id="LINE_129_">
		<line class="st0" x1="305.5" y1="135.1" x2="305.5" y2="156.4"/>
	</g>
	<g id="LINE_128_">
		<line class="st0" x1="314" y1="113.8" x2="305.5" y2="113.8"/>
	</g>
	<g id="LINE_127_">
		<line class="st0" x1="305.5" y1="135.1" x2="314" y2="135.1"/>
	</g>
	<g id="LINE_126_">
		<line class="st0" x1="314" y1="135.1" x2="314" y2="113.8"/>
	</g>
	<g id="LINE_125_">
		<line class="st0" x1="314" y1="220.3" x2="348" y2="220.3"/>
	</g>
	<g id="LINE_124_">
		<line class="st0" x1="305.5" y1="199" x2="314" y2="199"/>
	</g>
	<g id="LINE_123_">
		<line class="st0" x1="314" y1="199" x2="314" y2="220.3"/>
	</g>
	<g id="LINE_122_">
		<line class="st0" x1="305.5" y1="92.5" x2="305.5" y2="113.8"/>
	</g>
	<g id="LINE_121_">
		<line class="st0" x1="314" y1="71.2" x2="314" y2="92.5"/>
	</g>
	<g id="LINE_120_">
		<line class="st0" x1="314" y1="92.5" x2="305.5" y2="92.5"/>
	</g>
	<g id="LINE_119_">
		<line class="st0" x1="305.5" y1="71.2" x2="314" y2="71.2"/>
	</g>
	<g id="LINE_118_">
		<line class="st0" x1="475.8" y1="45.7" x2="305.5" y2="45.7"/>
	</g>
	<g id="ARC_12_">
		<path class="st0" d="M539.7,45.7c0-17.6-14.3-31.9-31.9-31.9c-17.6,0-31.9,14.3-31.9,31.9"/>
	</g>
	<g id="LINE_117_">
		<line class="st0" x1="526.9" y1="36.7" x2="531.2" y2="36.7"/>
	</g>
	<g id="LINE_116_">
		<line class="st0" x1="531.2" y1="36.7" x2="531.2" y2="45.7"/>
	</g>
	<g id="LINE_115_">
		<line class="st0" x1="531.2" y1="45.7" x2="505.6" y2="45.7"/>
	</g>
	<g id="LINE_114_">
		<line class="st0" x1="505.6" y1="45.7" x2="497.9" y2="41.2"/>
	</g>
	<g id="LINE_113_">
		<line class="st0" x1="497.9" y1="41.2" x2="510.7" y2="19.1"/>
	</g>
	<g id="LINE_112_">
		<line class="st0" x1="510.7" y1="19.1" x2="518.4" y2="23.5"/>
	</g>
	<g id="LINE_111_">
		<line class="st0" x1="518.4" y1="23.5" x2="518.4" y2="23.6"/>
	</g>
	<g id="ARC_11_">
		<path class="st0" d="M521.2,35.1c1.7,1.1,3.7,1.7,5.7,1.7"/>
	</g>
	<g id="ARC_10_">
		<path class="st0" d="M518.4,23.6c-2.3,4-1,9,2.8,11.4"/>
	</g>
</g>
<g id="INSERT_3_">
	<g id="LINE_110_">
		<line class="st0" x1="390.6" y1="399.2" x2="390.6" y2="390.7"/>
	</g>
	<g id="LINE_109_">
		<line class="st0" x1="390.6" y1="390.7" x2="358.7" y2="390.7"/>
	</g>
	<g id="LINE_108_">
		<line class="st0" x1="358.7" y1="390.7" x2="358.7" y2="399.2"/>
	</g>
	<g id="LINE_107_">
		<line class="st0" x1="358.7" y1="399.2" x2="390.6" y2="399.2"/>
	</g>
	<g id="LINE_106_">
		<line class="st0" x1="454.5" y1="399.2" x2="454.5" y2="390.7"/>
	</g>
	<g id="LINE_105_">
		<line class="st0" x1="454.5" y1="390.7" x2="422.6" y2="390.7"/>
	</g>
	<g id="LINE_104_">
		<line class="st0" x1="422.6" y1="390.7" x2="422.6" y2="399.2"/>
	</g>
	<g id="LINE_103_">
		<line class="st0" x1="422.6" y1="399.2" x2="454.5" y2="399.2"/>
	</g>
	<g id="LINE_102_">
		<line class="st0" x1="518.4" y1="390.7" x2="518.4" y2="399.2"/>
	</g>
	<g id="LINE_101_">
		<line class="st0" x1="518.4" y1="399.2" x2="486.5" y2="399.2"/>
	</g>
	<g id="LINE_100_">
		<line class="st0" x1="486.5" y1="399.2" x2="486.5" y2="390.7"/>
	</g>
	<g id="LINE_99_">
		<line class="st0" x1="486.5" y1="390.7" x2="518.4" y2="390.7"/>
	</g>
	<g id="LINE_98_">
		<line class="st0" x1="364" y1="441.8" x2="329.9" y2="441.8"/>
	</g>
	<g id="ARC_9_">
		<path class="st0" d="M396,409.8c-17.6,0-31.9,14.3-31.9,31.9"/>
	</g>
	<g id="LINE_97_">
		<line class="st0" x1="481.1" y1="409.8" x2="396" y2="409.8"/>
	</g>
	<g id="ARC_8_">
		<path class="st0" d="M513.1,441.8c0-17.6-14.3-31.9-31.9-31.9"/>
	</g>
	<g id="LINE_96_">
		<line class="st0" x1="555.7" y1="267.2" x2="555.7" y2="292.7"/>
	</g>
	<g id="LINE_95_">
		<line class="st0" x1="321.4" y1="377.9" x2="321.4" y2="356.6"/>
	</g>
	<g id="LINE_94_">
		<line class="st0" x1="321.4" y1="399.2" x2="329.9" y2="399.2"/>
	</g>
	<g id="LINE_93_">
		<line class="st0" x1="329.9" y1="399.2" x2="329.9" y2="377.9"/>
	</g>
	<g id="LINE_92_">
		<line class="st0" x1="329.9" y1="377.9" x2="321.4" y2="377.9"/>
	</g>
	<g id="LINE_91_">
		<line class="st0" x1="321.4" y1="335.3" x2="321.4" y2="314"/>
	</g>
	<g id="LINE_90_">
		<line class="st0" x1="329.9" y1="335.3" x2="321.4" y2="335.3"/>
	</g>
	<g id="LINE_89_">
		<line class="st0" x1="329.9" y1="356.6" x2="329.9" y2="335.3"/>
	</g>
	<g id="LINE_88_">
		<line class="st0" x1="321.4" y1="356.6" x2="329.9" y2="356.6"/>
	</g>
	<g id="LINE_87_">
		<line class="st0" x1="321.4" y1="420.5" x2="321.4" y2="399.2"/>
	</g>
	<g id="LINE_86_">
		<line class="st0" x1="321.4" y1="420.5" x2="329.9" y2="420.5"/>
	</g>
	<g id="LINE_85_">
		<line class="st0" x1="329.9" y1="420.5" x2="329.9" y2="441.8"/>
	</g>
	<g id="LINE_84_">
		<line class="st0" x1="321.4" y1="292.7" x2="321.4" y2="267.2"/>
	</g>
	<g id="LINE_83_">
		<line class="st0" x1="329.9" y1="292.7" x2="329.9" y2="314"/>
	</g>
	<g id="LINE_82_">
		<line class="st0" x1="329.9" y1="314" x2="321.4" y2="314"/>
	</g>
	<g id="LINE_81_">
		<line class="st0" x1="321.4" y1="292.7" x2="329.9" y2="292.7"/>
	</g>
	<g id="LINE_80_">
		<line class="st0" x1="555.7" y1="399.2" x2="555.7" y2="420.5"/>
	</g>
	<g id="LINE_79_">
		<line class="st0" x1="547.2" y1="377.9" x2="547.2" y2="399.2"/>
	</g>
	<g id="LINE_78_">
		<line class="st0" x1="555.7" y1="377.9" x2="547.2" y2="377.9"/>
	</g>
	<g id="LINE_77_">
		<line class="st0" x1="547.2" y1="399.2" x2="555.7" y2="399.2"/>
	</g>
	<g id="LINE_76_">
		<line class="st0" x1="555.7" y1="356.6" x2="555.7" y2="377.9"/>
	</g>
	<g id="LINE_75_">
		<line class="st0" x1="555.7" y1="335.3" x2="547.2" y2="335.3"/>
	</g>
	<g id="LINE_74_">
		<line class="st0" x1="547.2" y1="335.3" x2="547.2" y2="356.6"/>
	</g>
	<g id="LINE_73_">
		<line class="st0" x1="547.2" y1="356.6" x2="555.7" y2="356.6"/>
	</g>
	<g id="LINE_72_">
		<line class="st0" x1="547.2" y1="441.8" x2="513.1" y2="441.8"/>
	</g>
	<g id="LINE_71_">
		<line class="st0" x1="547.2" y1="420.5" x2="555.7" y2="420.5"/>
	</g>
	<g id="LINE_70_">
		<line class="st0" x1="547.2" y1="441.8" x2="547.2" y2="420.5"/>
	</g>
	<g id="LINE_69_">
		<line class="st0" x1="555.7" y1="314" x2="555.7" y2="335.3"/>
	</g>
	<g id="LINE_68_">
		<line class="st0" x1="547.2" y1="314" x2="547.2" y2="292.7"/>
	</g>
	<g id="LINE_67_">
		<line class="st0" x1="555.7" y1="314" x2="547.2" y2="314"/>
	</g>
	<g id="LINE_66_">
		<line class="st0" x1="547.2" y1="292.7" x2="555.7" y2="292.7"/>
	</g>
	<g id="LINE_65_">
		<line class="st0" x1="385.3" y1="267.2" x2="555.7" y2="267.2"/>
	</g>
	<g id="ARC_7_">
		<path class="st0" d="M385.3,267.2c0-17.6-14.3-31.9-31.9-31.9c-17.6,0-31.9,14.3-31.9,31.9"/>
	</g>
	<g id="ARC_6_">
		<path class="st0" d="M334.2,258.2c2,0,4-0.6,5.8-1.7"/>
	</g>
	<g id="LINE_64_">
		<line class="st0" x1="342.7" y1="245" x2="350.5" y2="240.5"/>
	</g>
	<g id="LINE_63_">
		<line class="st0" x1="350.5" y1="240.5" x2="363.2" y2="262.7"/>
	</g>
	<g id="LINE_62_">
		<line class="st0" x1="363.2" y1="262.7" x2="355.5" y2="267.2"/>
	</g>
	<g id="LINE_61_">
		<line class="st0" x1="355.5" y1="267.2" x2="329.9" y2="267.2"/>
	</g>
	<g id="LINE_60_">
		<line class="st0" x1="329.9" y1="267.2" x2="329.9" y2="258.2"/>
	</g>
	<g id="LINE_59_">
		<line class="st0" x1="329.9" y1="258.2" x2="334.2" y2="258.2"/>
	</g>
	<g id="LINE_58_">
		<line class="st0" x1="342.8" y1="245.1" x2="342.7" y2="245"/>
	</g>
	<g id="ARC_5_">
		<path class="st0" d="M340,256.5c3.8-2.4,5.1-7.5,2.8-11.4"/>
	</g>
</g>
<g id="INSERT_2_">
	<g id="LINE_57_">
		<line class="st0" x1="20.3" y1="435.9" x2="62.9" y2="435.9"/>
	</g>
	<g id="ARC_4_">
		<path class="st0" d="M94.8,403.9c-17.6,0-31.9,14.3-31.9,31.9"/>
	</g>
	<g id="LINE_56_">
		<line class="st0" x1="94.8" y1="403.9" x2="222.6" y2="403.9"/>
	</g>
	<g id="ARC_3_">
		<path class="st0" d="M254.6,435.9c0-17.6-14.3-31.9-31.9-31.9"/>
	</g>
	<g id="LINE_55_">
		<line class="st0" x1="254.6" y1="435.9" x2="297.1" y2="435.9"/>
	</g>
	<g id="LINE_54_">
		<line class="st0" x1="297.1" y1="435.9" x2="297.1" y2="414.6"/>
	</g>
	<g id="LINE_53_">
		<line class="st0" x1="78.9" y1="384.8" x2="46.9" y2="384.8"/>
	</g>
	<g id="LINE_52_">
		<line class="st0" x1="78.9" y1="393.3" x2="78.9" y2="384.8"/>
	</g>
	<g id="LINE_51_">
		<line class="st0" x1="46.9" y1="393.3" x2="78.9" y2="393.3"/>
	</g>
	<g id="LINE_50_">
		<line class="st0" x1="46.9" y1="384.8" x2="46.9" y2="393.3"/>
	</g>
	<g id="LINE_49_">
		<line class="st0" x1="142.7" y1="393.3" x2="110.8" y2="393.3"/>
	</g>
	<g id="LINE_48_">
		<line class="st0" x1="142.7" y1="384.8" x2="142.7" y2="393.3"/>
	</g>
	<g id="LINE_47_">
		<line class="st0" x1="110.8" y1="384.8" x2="142.7" y2="384.8"/>
	</g>
	<g id="LINE_46_">
		<line class="st0" x1="110.8" y1="393.3" x2="110.8" y2="384.8"/>
	</g>
	<g id="LINE_45_">
		<line class="st0" x1="206.6" y1="393.3" x2="174.7" y2="393.3"/>
	</g>
	<g id="LINE_44_">
		<line class="st0" x1="206.6" y1="384.8" x2="206.6" y2="393.3"/>
	</g>
	<g id="LINE_43_">
		<line class="st0" x1="174.7" y1="384.8" x2="206.6" y2="384.8"/>
	</g>
	<g id="LINE_42_">
		<line class="st0" x1="174.7" y1="393.3" x2="174.7" y2="384.8"/>
	</g>
	<g id="LINE_41_">
		<line class="st0" x1="270.5" y1="393.3" x2="238.6" y2="393.3"/>
	</g>
	<g id="LINE_40_">
		<line class="st0" x1="270.5" y1="384.8" x2="270.5" y2="393.3"/>
	</g>
	<g id="LINE_39_">
		<line class="st0" x1="238.6" y1="384.8" x2="270.5" y2="384.8"/>
	</g>
	<g id="LINE_38_">
		<line class="st0" x1="238.6" y1="393.3" x2="238.6" y2="384.8"/>
	</g>
	<g id="LINE_37_">
		<line class="st0" x1="297.1" y1="350.7" x2="297.1" y2="329.4"/>
	</g>
	<g id="LINE_36_">
		<line class="st0" x1="288.6" y1="372" x2="297.1" y2="372"/>
	</g>
	<g id="LINE_35_">
		<line class="st0" x1="297.1" y1="350.7" x2="288.6" y2="350.7"/>
	</g>
	<g id="LINE_34_">
		<line class="st0" x1="288.6" y1="350.7" x2="288.6" y2="372"/>
	</g>
	<g id="LINE_33_">
		<line class="st0" x1="297.1" y1="308.1" x2="297.1" y2="286.8"/>
	</g>
	<g id="LINE_32_">
		<line class="st0" x1="288.6" y1="329.4" x2="297.1" y2="329.4"/>
	</g>
	<g id="LINE_31_">
		<line class="st0" x1="297.1" y1="308.1" x2="288.6" y2="308.1"/>
	</g>
	<g id="LINE_30_">
		<line class="st0" x1="288.6" y1="308.1" x2="288.6" y2="329.4"/>
	</g>
	<g id="LINE_29_">
		<line class="st0" x1="297.1" y1="393.3" x2="297.1" y2="372"/>
	</g>
	<g id="LINE_28_">
		<line class="st0" x1="288.6" y1="414.6" x2="288.6" y2="393.3"/>
	</g>
	<g id="LINE_27_">
		<line class="st0" x1="297.1" y1="414.6" x2="288.6" y2="414.6"/>
	</g>
	<g id="LINE_26_">
		<line class="st0" x1="288.6" y1="393.3" x2="297.1" y2="393.3"/>
	</g>
	<g id="LINE_25_">
		<line class="st0" x1="288.6" y1="261.2" x2="28.8" y2="261.2"/>
	</g>
	<g id="LINE_24_">
		<line class="st0" x1="297.1" y1="286.8" x2="288.6" y2="286.8"/>
	</g>
	<g id="LINE_23_">
		<line class="st0" x1="288.6" y1="286.8" x2="288.6" y2="261.2"/>
	</g>
	<g id="LINE_22_">
		<line class="st0" x1="20.3" y1="372" x2="20.3" y2="393.3"/>
	</g>
	<g id="LINE_21_">
		<line class="st0" x1="28.8" y1="350.7" x2="20.3" y2="350.7"/>
	</g>
	<g id="LINE_20_">
		<line class="st0" x1="20.3" y1="372" x2="28.8" y2="372"/>
	</g>
	<g id="LINE_19_">
		<line class="st0" x1="28.8" y1="372" x2="28.8" y2="350.7"/>
	</g>
	<g id="LINE_18_">
		<line class="st0" x1="20.3" y1="329.4" x2="20.3" y2="350.7"/>
	</g>
	<g id="LINE_17_">
		<line class="st0" x1="28.8" y1="308.1" x2="20.3" y2="308.1"/>
	</g>
	<g id="LINE_16_">
		<line class="st0" x1="20.3" y1="329.4" x2="28.8" y2="329.4"/>
	</g>
	<g id="LINE_15_">
		<line class="st0" x1="28.8" y1="329.4" x2="28.8" y2="308.1"/>
	</g>
	<g id="LINE_14_">
		<line class="st0" x1="20.3" y1="414.6" x2="20.3" y2="435.9"/>
	</g>
	<g id="LINE_13_">
		<line class="st0" x1="28.8" y1="393.3" x2="28.8" y2="414.6"/>
	</g>
	<g id="LINE_12_">
		<line class="st0" x1="28.8" y1="414.6" x2="20.3" y2="414.6"/>
	</g>
	<g id="LINE_11_">
		<line class="st0" x1="20.3" y1="393.3" x2="28.8" y2="393.3"/>
	</g>
	<g id="LINE_10_">
		<line class="st0" x1="20.3" y1="286.8" x2="20.3" y2="308.1"/>
	</g>
	<g id="LINE_9_">
		<line class="st0" x1="28.8" y1="286.8" x2="20.3" y2="286.8"/>
	</g>
	<g id="LINE_8_">
		<line class="st0" x1="28.8" y1="261.2" x2="28.8" y2="286.8"/>
	</g>
</g>
<g id="INSERT_1_">
	<g id="ARC_2_">
		<path class="st0" d="M61.3,254.4"/>
	</g>
	<g id="ARC_1_">
		<path class="st0" d="M253,254.4"/>
	</g>
	<g id="LINE_7_">
		<path class="st0" d="M295.5,254.4"/>
		<path class="st0" d="M253,254.4"/>
	</g>
	<g id="LINE_6_">
		<path class="st0" d="M295.5,254.4"/>
	</g>
	<g id="LINE_5_">
		<path class="st0" d="M18.7,254.4"/>
	</g>
</g>
</svg>
