<?xml version="1.0" encoding="utf-8"?>
<!-- Generator: Adobe Illustrator 21.0.0, SVG Export Plug-In . SVG Version: 6.00 Build 0)  -->
<svg version="1.1" id="Calque_1" xmlns="http://www.w3.org/2000/svg" xmlns:xlink="http://www.w3.org/1999/xlink" x="0px" y="0px"
	 viewBox="0 0 1729.1 1295.4" style="enable-background:new 0 0 1729.1 1295.4;" xml:space="preserve">
<style type="text/css">
	.st0{fill:none;stroke:#000000;stroke-width:0.1;}
	.st1{fill:none;stroke:#000000;stroke-width:0.1;stroke-miterlimit:10;}
</style>
<g transform="translate(22.5000185, 22.5000185) ">
	<polyline class="st0" points="155.2,1100 121.1,1100 121.1,1083 87.1,1083 87.1,1100 53.1,1100 53.1,1083 19.1,1083 19.1,1100 
		-14.9,1100 -14.9,1041.2 -14.9,209.2 -14.9,150.4 19.1,150.4 19.1,167.4 53.1,167.4 53.1,150.4 87.1,150.4 87.1,167.4 121.1,167.4 
		121.1,150.4 155.2,150.4 	"/>
</g>
<g transform="translate(1209.5088685, 22.5000185) ">
	<polyline class="st0" points="136.4,150.7 170.4,150.7 170.4,167.7 204.5,167.7 204.5,150.7 238.5,150.7 238.5,167.7 272.5,167.7 
		272.5,150.7 306.5,150.7 306.5,209.5 306.5,1041.4 306.5,1100.3 272.5,1100.3 272.5,1083.3 238.5,1083.3 238.5,1100.3 
		204.5,1100.3 204.5,1083.3 170.4,1083.3 170.4,1100.3 136.4,1100.3 	"/>
</g>
<g>
	<g transform="translate(2396.5177185000002, 235.0986185) ">
		<polyline class="st0" points="-1050.9,871.3 -1050.9,905.3 -1033.8,905.3 -1033.8,939.3 -1050.9,939.3 -1050.9,973.3 
			-1033.8,973.3 -1033.8,1007.4 -1050.9,1007.4 -1050.9,1041.4 -1087.7,1041.4 -2218.7,1041.4 -2218.7,1007.4 -2235.7,1007.4 
			-2235.7,973.3 -2218.7,973.3 -2218.7,939.3 -2235.7,939.3 -2235.7,905.3 -2218.7,905.3 -2218.7,871.3 		"/>
	</g>
	
		<rect x="726.3" y="1232.6" transform="matrix(-1.836970e-16 1 -1 -1.836970e-16 2002.8374 479.3888)" class="st0" width="70.9" height="17"/>
</g>
<g>
	<g transform="translate(2396.5177185000002, 235.0986185) ">
		<polyline class="st0" points="-2218.7,-44.7 -2218.7,-78.7 -2235.7,-78.7 -2235.7,-112.7 -2218.7,-112.7 -2218.7,-146.7 
			-2235.7,-146.7 -2235.7,-180.7 -2218.7,-180.7 -2218.7,-214.8 -2181.9,-214.8 -1050.9,-214.8 -1050.9,-180.7 -1033.8,-180.7 
			-1033.8,-146.7 -1050.9,-146.7 -1050.9,-112.7 -1033.8,-112.7 -1033.8,-78.7 -1050.9,-78.7 -1050.9,-44.7 		"/>
	</g>
	
		<rect x="726.3" y="47.2" transform="matrix(6.123234e-17 -1 1 6.123234e-17 706.0171 817.4351)" class="st0" width="70.9" height="17"/>
</g>
<polygon class="st0" points="1627.7,172.7 1627.7,189.7 1544.5,189.7 1544.5,224.6 1527.5,224.6 1527.5,295.5 1544.5,295.5 
	1544.5,483.1 1527.5,483.1 1527.5,553.9 1544.5,553.9 1544.5,741.5 1527.5,741.5 1527.5,812.4 1544.5,812.4 1544.5,999.9 
	1527.5,999.9 1527.5,1070.8 1544.5,1070.8 1544.5,1105.6 1627.7,1105.6 1627.7,1122.7 1698.5,1122.7 1698.5,1105.6 1698.5,1103 
	1698.5,195.1 1698.5,189.7 1698.5,172.7 "/>
<g>
	<g transform="translate(1209.5088685, 235.0986185) ">
		<polygon class="st0" points="136.2,-44.5 136.2,-2.7 153.2,-2.7 153.2,56.2 136.2,56.2 136.2,90.2 153.2,90.2 153.2,124.2 
			136.2,124.2 136.2,158.2 153.2,158.2 153.2,192.2 136.2,192.2 136.2,226.2 153.2,226.2 153.2,260.2 136.2,260.2 136.2,294.3 
			153.2,294.3 153.2,328.3 136.2,328.3 136.2,362.3 153.2,362.3 153.2,396.3 136.2,396.3 136.2,430.3 153.2,430.3 153.2,464.3 
			136.2,464.3 136.2,498.4 153.2,498.4 153.2,532.4 136.2,532.4 136.2,566.4 153.2,566.4 153.2,600.4 136.2,600.4 136.2,634.4 
			153.2,634.4 153.2,668.4 136.2,668.4 136.2,702.5 153.2,702.5 153.2,736.5 136.2,736.5 136.2,770.5 153.2,770.5 153.2,829.3 
			136.2,829.3 136.2,871.1 99.3,871.1 99.3,888.1 45.4,888.1 45.4,871.1 11.4,871.1 11.4,888.1 -22.6,888.1 -22.6,871.1 
			-56.6,871.1 -56.6,888.1 -90.6,888.1 -90.6,871.1 -124.6,871.1 -124.6,888.1 -158.7,888.1 -158.7,871.1 -192.7,871.1 
			-192.7,888.1 -226.7,888.1 -226.7,871.1 -260.7,871.1 -260.7,888.1 -294.7,888.1 -294.7,871.1 -328.7,871.1 -328.7,888.1 
			-362.7,888.1 -362.7,871.1 -396.8,871.1 -396.8,888.1 -430.8,888.1 -430.8,871.1 -464.8,871.1 -464.8,888.1 -498.8,888.1 
			-498.8,871.1 -532.8,871.1 -532.8,888.1 -566.8,888.1 -566.8,871.1 -600.9,871.1 -600.9,888.1 -634.9,888.1 -634.9,871.1 
			-668.9,871.1 -668.9,888.1 -702.9,888.1 -702.9,871.1 -736.9,871.1 -736.9,888.1 -770.9,888.1 -770.9,871.1 -805,871.1 
			-805,888.1 -839,888.1 -839,871.1 -873,871.1 -873,888.1 -907,888.1 -907,871.1 -941,871.1 -941,888.1 -994.9,888.1 -994.9,871.1 
			-1031.7,871.1 -1031.7,829.3 -1048.7,829.3 -1048.7,770.5 -1031.7,770.5 -1031.7,736.5 -1048.7,736.5 -1048.7,702.5 
			-1031.7,702.5 -1031.7,668.4 -1048.7,668.4 -1048.7,634.4 -1031.7,634.4 -1031.7,600.4 -1048.7,600.4 -1048.7,566.4 
			-1031.7,566.4 -1031.7,532.4 -1048.7,532.4 -1048.7,498.4 -1031.7,498.4 -1031.7,464.3 -1048.7,464.3 -1048.7,430.3 
			-1031.7,430.3 -1031.7,396.3 -1048.7,396.3 -1048.7,362.3 -1031.7,362.3 -1031.7,328.3 -1048.7,328.3 -1048.7,294.3 
			-1031.7,294.3 -1031.7,260.2 -1048.7,260.2 -1048.7,226.2 -1031.7,226.2 -1031.7,192.2 -1048.7,192.2 -1048.7,158.2 
			-1031.7,158.2 -1031.7,124.2 -1048.7,124.2 -1048.7,90.2 -1031.7,90.2 -1031.7,56.2 -1048.7,56.2 -1048.7,-2.7 -1031.7,-2.7 
			-1031.7,-44.5 -994.9,-44.5 -994.9,-61.5 -941,-61.5 -941,-44.5 -907,-44.5 -907,-61.5 -873,-61.5 -873,-44.5 -839,-44.5 
			-839,-61.5 -805,-61.5 -805,-44.5 -770.9,-44.5 -770.9,-61.5 -736.9,-61.5 -736.9,-44.5 -702.9,-44.5 -702.9,-61.5 -668.9,-61.5 
			-668.9,-44.5 -634.9,-44.5 -634.9,-61.5 -600.9,-61.5 -600.9,-44.5 -566.8,-44.5 -566.8,-61.5 -532.8,-61.5 -532.8,-44.5 
			-498.8,-44.5 -498.8,-61.5 -464.8,-61.5 -464.8,-44.5 -430.8,-44.5 -430.8,-61.5 -396.8,-61.5 -396.8,-44.5 -362.7,-44.5 
			-362.7,-61.5 -328.7,-61.5 -328.7,-44.5 -294.7,-44.5 -294.7,-61.5 -260.7,-61.5 -260.7,-44.5 -226.7,-44.5 -226.7,-61.5 
			-192.7,-61.5 -192.7,-44.5 -158.7,-44.5 -158.7,-61.5 -124.6,-61.5 -124.6,-44.5 -90.6,-44.5 -90.6,-61.5 -56.6,-61.5 
			-56.6,-44.5 -22.6,-44.5 -22.6,-61.5 11.4,-61.5 11.4,-44.5 45.4,-44.5 45.4,-61.5 99.3,-61.5 99.3,-44.5 		"/>
	</g>
	<g>
		
			<rect x="726.3" y="1027.5" transform="matrix(6.123234e-17 -1 1 6.123234e-17 -274.3294 1797.7773)" class="st0" width="70.9" height="17"/>
		
			<rect x="726.3" y="769.1" transform="matrix(6.123234e-17 -1 1 6.123234e-17 -15.9048 1539.3528)" class="st0" width="70.9" height="17"/>
		
			<rect x="726.3" y="510.7" transform="matrix(6.123234e-17 -1 1 6.123234e-17 242.5198 1280.9282)" class="st0" width="70.9" height="17"/>
		
			<rect x="726.3" y="252.3" transform="matrix(6.123234e-17 -1 1 6.123234e-17 500.9444 1022.5035)" class="st0" width="70.9" height="17"/>
	</g>
</g>
<circle class="st1" cx="1427.2" cy="71.9" r="56.7"/>
<circle class="st1" cx="84.5" cy="91.1" r="56.7"/>
<circle class="st1" cx="1543" cy="112.4" r="56.7"/>
<circle class="st1" cx="1658.8" cy="71.9" r="56.7"/>
<circle class="st1" cx="1427.2" cy="1191.4" r="56.7"/>
<circle class="st1" cx="1545.4" cy="1180.5" r="56.7"/>
<circle class="st1" cx="1655.1" cy="1226.8" r="56.7"/>
<circle class="st1" cx="84.5" cy="1191.4" r="56.7"/>
<rect x="1543.3" y="576.8" class="st1" width="34" height="141.7"/>
<g>
	<rect x="1205.8" y="144.7" class="st1" width="14.2" height="28.3"/>
	<rect x="1205.8" y="1123.8" class="st1" width="14.2" height="28.3"/>
</g>
<g>
	<rect x="304.8" y="144.7" class="st1" width="14.2" height="28.3"/>
	<rect x="304.8" y="1123.8" class="st1" width="14.2" height="28.3"/>
</g>
</svg>
